<svg xmlns="http://www.w3.org/2000/svg" xmlns:xlink="http://www.w3.org/1999/xlink" width="1486" height="565" viewBox="0 40 1486 565">
  <defs>
    <clipPath id="clip-path">
      <rect id="Rectangle_3280" data-name="Rectangle 3280" width="1486" height="565" rx="16" transform="translate(187 2878)" fill="#f3f7ff"/>
    </clipPath>
    <linearGradient id="linear-gradient" x1="0.5" x2="0.474" y2="0.886" gradientUnits="objectBoundingBox">
      <stop offset="0" stop-color="#8ebaff"/>
      <stop offset="1" stop-color="#152652"/>
    </linearGradient>
    <filter id="Tracé_5350">
      <feOffset dy="3" input="SourceAlpha"/>
      <feGaussianBlur stdDeviation="40" result="blur"/>
      <feFlood flood-opacity="0.349" result="color"/>
      <feComposite operator="out" in="SourceGraphic" in2="blur"/>
      <feComposite operator="in" in="color"/>
      <feComposite operator="in" in2="SourceGraphic"/>
    </filter>
  </defs>
  <g id="Groupe_de_masques_13" data-name="Groupe de masques 13" transform="translate(-187 -2878)" clip-path="url(#clip-path)">
    <g id="Nuages" transform="translate(207.326 -1374.446)">
      <g id="Groupe_2869" data-name="Groupe 2869" transform="translate(-91.326 4396.438)">
        <path id="Tracé_20759" data-name="Tracé 20759" d="M-14696.662-12882.463h-216.955s11.869-25.66,47.107-15.9c0,0,9-17.42,39.443-11.291,0,0,35.613-56.877,78.51,7.85C-14748.557-12901.8-14713.7-12911.951-14696.662-12882.463Z" transform="translate(14913.617 12932.755)" fill="#eef3fe"/>
        <path id="Tracé_5516" data-name="Tracé 5516" d="M-14696.662-12882.463h-216.955s11.869-25.66,47.107-15.9c0,0,9-17.42,39.443-11.291,0,0,35.613-56.877,78.51,7.85C-14748.557-12901.8-14713.7-12911.951-14696.662-12882.463Z" transform="translate(14920.638 12939.775)" fill="#fff"/>
      </g>
      <g id="Groupe_2870" data-name="Groupe 2870" transform="translate(1149.963 4351.5)">
        <path id="Tracé_20759-2" data-name="Tracé 20759" d="M-14913.617-12903.546h126.006s-6.893-14.9-27.359-9.232c0,0-5.229-10.117-22.91-6.559,0,0-20.684-33.033-45.6,4.561C-14883.477-12914.776-14903.721-12920.673-14913.617-12903.546Z" transform="translate(14917.695 12932.755)" fill="#eef3fe"/>
        <path id="Tracé_5516-2" data-name="Tracé 5516" d="M-14913.617-12903.546h126.006s-6.893-14.9-27.359-9.232c0,0-5.229-10.117-22.91-6.559,0,0-20.684-33.033-45.6,4.561C-14883.477-12914.776-14903.721-12920.673-14913.617-12903.546Z" transform="translate(14913.617 12936.833)" fill="#fff"/>
      </g>
      <g id="Groupe_2871" data-name="Groupe 2871" transform="translate(1322.295 4418.384)">
        <path id="Tracé_20759-3" data-name="Tracé 20759" d="M-14913.617-12918.15h63s-3.447-7.452-13.68-4.616c0,0-2.613-5.059-11.453-3.279,0,0-10.342-16.516-22.8,2.28C-14898.547-12923.766-14908.67-12926.713-14913.617-12918.15Z" transform="translate(14915.656 12932.755)" fill="#eef3fe"/>
        <path id="Tracé_5516-3" data-name="Tracé 5516" d="M-14913.617-12918.15h63s-3.447-7.452-13.68-4.616c0,0-2.613-5.059-11.453-3.279,0,0-10.342-16.516-22.8,2.28C-14898.547-12923.766-14908.67-12926.713-14913.617-12918.15Z" transform="translate(14913.617 12934.794)" fill="#fff"/>
      </g>
      <g id="Groupe_2872" data-name="Groupe 2872" transform="translate(1434.336 4379.539)">
        <path id="Tracé_20759-4" data-name="Tracé 20759" d="M-14873.885-12923.544h-39.732s2.174-4.7,8.627-2.911c0,0,1.648-3.19,7.225-2.068,0,0,6.521-10.416,14.377,1.438C-14883.389-12927.086-14877-12928.945-14873.885-12923.544Z" transform="translate(14913.617 12932.755)" fill="#eef3fe"/>
        <path id="Tracé_5516-4" data-name="Tracé 5516" d="M-14873.885-12923.544h-39.732s2.174-4.7,8.627-2.911c0,0,1.648-3.19,7.225-2.068,0,0,6.521-10.416,14.377,1.438C-14883.389-12927.086-14877-12928.945-14873.885-12923.544Z" transform="translate(14914.903 12934.041)" fill="#fff"/>
      </g>
    </g>
    <g id="Groupe_1647" data-name="Groupe 1647" transform="matrix(0.999, -0.035, 0.035, 0.999, 303.819, -1326.071)">
      <g id="Groupe_1646" data-name="Groupe 1646" transform="translate(-77.414 4128.002) rotate(20)">
        <path id="Tracé_5349" data-name="Tracé 5349" d="M1150.309,2.074C1794.093,19.7,2322.907,144.987,2331.45,281.905L.1,218.068C-8.438,81.149,506.526-15.554,1150.309,2.074Z" transform="translate(-192.634 623.774) rotate(-18)" fill="#cfdcff"/>
        <g data-type="innerShadowGroup">
          <path id="Tracé_5350-2" data-name="Tracé 5350" d="M1141.2,15.022C1788.152,50.465,2327.081,187.64,2344.934,321.409L2.13,193.058C-15.724,59.288,494.257-20.421,1141.2,15.022Z" transform="translate(-174.267 690.558) rotate(-21)" fill="url(#linear-gradient)"/>
          <g transform="matrix(0.95, -0.31, 0.31, 0.95, -151.09, 128.88)" filter="url(#Tracé_5350)">
            <path id="Tracé_5350-3" data-name="Tracé 5350" d="M1141.2,15.022C1788.152,50.465,2327.081,187.64,2344.934,321.409L2.13,193.058C-15.724,59.288,494.257-20.421,1141.2,15.022Z" transform="translate(-195.62 527.03) rotate(-3)" fill="#fff"/>
          </g>
        </g>
      </g>
      <g id="Groupe_1645" data-name="Groupe 1645" transform="translate(-102.941 4602.36)">
        <ellipse id="Ellipse_531" data-name="Ellipse 531" cx="15.251" cy="3.697" rx="15.251" ry="3.697" transform="translate(45.477 108.257)" fill="rgba(0,0,0,0.18)"/>
        <g id="location_on_black_24dp" transform="translate(0 0)">
          <g id="location_on_black_24dp-2" data-name="location_on_black_24dp" transform="translate(2.773 0)">
            <path id="Tracé_5294" data-name="Tracé 5294" d="M0,0H121.748V121.749H0Z" transform="translate(0)" fill="none"/>
            <path id="Tracé_5295" data-name="Tracé 5295" d="M35.51,0A35.484,35.484,0,0,0,0,35.51c0,26.633,29.908,65.777,29.908,65.777S71.02,62.143,71.02,35.51A35.484,35.484,0,0,0,35.51,0Zm0,48.192A12.682,12.682,0,1,1,48.192,35.51,12.687,12.687,0,0,1,35.51,48.192Z" transform="translate(28.137 10.146)" fill="#3784ff"/>
          </g>
          <path id="Tracé_5294-2" data-name="Tracé 5294" d="M0,0H121.748V121.749H0Z" transform="translate(0 0)" fill="none"/>
          <path id="Tracé_5295-2" data-name="Tracé 5295" d="M35.51,0A35.484,35.484,0,0,0,0,35.51c0,26.633,35.51,65.947,35.51,65.947S71.02,62.143,71.02,35.51A35.484,35.484,0,0,0,35.51,0Zm0,48.192A12.682,12.682,0,1,1,48.192,35.51,12.687,12.687,0,0,1,35.51,48.192Z" transform="translate(25.364 10.146)" fill="#0060f9"/>
        </g>
      </g>
      <g id="V1" transform="matrix(0.574, 0.819, -0.819, 0.574, -100.725, 4527.209)">
        <g id="Groupe_2" transform="translate(66.401 25.011) rotate(-95)">
          <path id="Rectangle_3" d="M8.348.286h0A1.566,1.566,0,0,0,6.167.675L.286,9.4A1.566,1.566,0,0,0,.675,11.58h0a1.566,1.566,0,0,0,2.182-.388l5.88-8.724A1.573,1.573,0,0,0,8.348.286Z" transform="translate(14.151 10.325)" fill="#26365f"/>
          <path id="Rectangle_4" d="M7.5.072h0a1.558,1.558,0,0,0-1.941.952L.072,18.017a1.558,1.558,0,0,0,.952,1.941h0a1.558,1.558,0,0,0,1.941-.952L8.472,2.086A1.517,1.517,0,0,0,7.5.072Z" transform="translate(8.183 0)" fill="#26365f"/>
          <path id="Rectangle_5" d="M1.447.007h0a1.457,1.457,0,0,0-1.439,1.6L.5,12.141A1.457,1.457,0,0,0,2.1,13.58h0a1.457,1.457,0,0,0,1.439-1.6L2.972,1.468A1.368,1.368,0,0,0,1.447.007Z" transform="translate(0 6.124)" fill="#26365f"/>
        </g>
        <path id="Tracé_4674" data-name="Tracé 4674" d="M77.684,32.818c-.076-.228-.076-.532-.152-.76a2.359,2.359,0,0,0-3.421-1.6L59.9,38.671a2.4,2.4,0,0,0-1.14,2.052v.456c0,11.326-8.741,20.523-19.535,20.523-10.718,0-19.535-9.2-19.535-20.523s8.741-20.523,19.535-20.523a18.361,18.361,0,0,1,10.262,3.116,2.336,2.336,0,0,0,2.432.076l14.518-8.285a2.347,2.347,0,0,0,.608-3.5h0A35.99,35.99,0,0,0,61.265,7.05a36.188,36.188,0,0,0-6.689-3.8,37.542,37.542,0,0,0-30.557,0,44.609,44.609,0,0,0-6.689,3.8,40.845,40.845,0,0,0-5.777,5.017,45.5,45.5,0,0,0-4.789,6.081,44.055,44.055,0,0,0-3.573,7.069A45.4,45.4,0,0,0,.912,32.97,35.566,35.566,0,0,0,0,41.1q0,.57,0,1.14v.076a41.74,41.74,0,0,0,.988,8.133,37.8,37.8,0,0,0,2.432,7.525,40.556,40.556,0,0,0,2.964,5.7h0l30.861,44.457a2.349,2.349,0,0,0,4.029,0L71.451,64.895h0A53.414,53.414,0,0,0,75.1,58.054a43.454,43.454,0,0,0,2.432-7.525A41.74,41.74,0,0,0,78.52,42.4V42.32q0-.57,0-1.14A51.1,51.1,0,0,0,77.684,32.818Z" transform="translate(0 43.76) rotate(-9)" fill="#0060f9"/>
      </g>
    </g>
  </g>
</svg>
