<svg xmlns="http://www.w3.org/2000/svg" xmlns:xlink="http://www.w3.org/1999/xlink" width="52.857" height="52.857" viewBox="0 0 52.857 52.857">
  <defs>
    <clipPath id="clip-path">
      <ellipse id="Ellipse_702" data-name="Ellipse 702" cx="26.428" cy="26.428" rx="26.428" ry="26.428" transform="translate(0 0)" fill="#fff" stroke="#eeeff3" stroke-width="1"/>
    </clipPath>
  </defs>
  <g id="Groupe_de_masques_40" data-name="Groupe de masques 40" clip-path="url(#clip-path)">
    <g id="Ellipse_701" data-name="Ellipse 701" transform="translate(0 0)" fill="#dde9ff" stroke="#eeeff3" stroke-width="1">
      <ellipse cx="26.428" cy="26.428" rx="26.428" ry="26.428" stroke="none"/>
      <ellipse cx="26.428" cy="26.428" rx="25.928" ry="25.928" fill="none"/>
    </g>
    <g id="Groupe_2716" data-name="Groupe 2716" transform="translate(3.398 2.684)">
      <path id="Tracé_20613" data-name="Tracé 20613" d="M161.023,264.4c3.676,2.025,5.851-.6,5.851-.6s3.15-.1,3.75-2.4c2.2-.3,2.858-3.038,1.433-5.363,1.257-2.128-1.064-4.062-1.064-4.062,1.064-2.611-.677-5.029-2.128-6.287-1.644-6.673-5.416-5.8-5.416-5.8-1.523-2.031-4.715.145-6.649,2.853a2.518,2.518,0,0,0-1.958,3.24,1.6,1.6,0,0,0-.484,2.322s-3.337,3.312-1.451,6c-2.321,2.273-.484,3.385-.484,3.385s-.6,2.249,2.8,3.192C154.72,262.828,158.5,265.313,161.023,264.4Z" transform="translate(-140.037 -228.494)" fill="#253368" fill-rule="evenodd"/>
      <path id="Tracé_20614" data-name="Tracé 20614" d="M230.569,282.267c-.375.808-1.195,1.3-1.834,1a1.657,1.657,0,0,1,1.357-2.925A1.379,1.379,0,0,1,230.569,282.267Z" transform="translate(-202.927 -262.408)" fill="#ffc999" fill-rule="evenodd"/>
      <path id="Tracé_20615" data-name="Tracé 20615" d="M181.742,283.042c.375.808,1.195,1.3,1.834,1a1.657,1.657,0,0,0-1.357-2.925A1.379,1.379,0,0,0,181.742,283.042Z" transform="translate(-164.606 -263.046)" fill="#ffc999" fill-rule="evenodd"/>
      <path id="Tracé_20616" data-name="Tracé 20616" d="M200.946,306.394a2.308,2.308,0,0,1-2.3-2.437l.339-4.836,4.135-.045.177,4.877A2.354,2.354,0,0,1,200.946,306.394Z" transform="translate(-178.684 -277.917)" fill="#ffc999" fill-rule="evenodd"/>
      <path id="Tracé_20617" data-name="Tracé 20617" d="M196.9,258.984c-.193,2.837-1.6,5.658-4.207,5.44-1.952-.163-4.083-2.638-4.083-5.481,0-3.971,1.5-5.636,3.817-5.762C195.086,253.036,197.175,254.94,196.9,258.984Z" transform="translate(-170.417 -240.1)" fill="#ffc999" fill-rule="evenodd"/>
      <path id="Tracé_20618" data-name="Tracé 20618" d="M199.857,311.544a.094.094,0,0,1,.132-.013,3.5,3.5,0,0,0,1.886.851,2.894,2.894,0,0,0,2.045-.587.094.094,0,0,1,.114.15,3.083,3.083,0,0,1-2.174.624,3.684,3.684,0,0,1-1.99-.893A.094.094,0,0,1,199.857,311.544Z" transform="translate(-179.664 -288.159)" fill="#dd936f"/>
      <path id="Tracé_20619" data-name="Tracé 20619" d="M185.781,261.914c2.935,1.548,4.617-2.237,4.425-3.844a9.328,9.328,0,0,0-1.983-4.836c-1.813-5.513-4.739-5.851-7.592-5.1-3.993,1.049-5.62,5.958-3.578,6.456,3.075.75,3.79-1.882,4.256-3.675.338-1.306,1.4-1.063,1.789-.242.122.256.42.454.871-.1.435-.532.967-.048,1.064,1.741.1,1.839.741,1.131,1.064,1.983.531,1.4-1.451,1.886-.822,4.5C185.273,258.795,183.074,260.487,185.781,261.914Z" transform="translate(-160.168 -235.704)" fill="#253368" fill-rule="evenodd"/>
      <path id="Tracé_20620" data-name="Tracé 20620" d="M193.342,273.322a3.249,3.249,0,0,1,1.97-.085.145.145,0,0,1-.056.284,2.984,2.984,0,0,0-1.791.063.809.809,0,0,0-.243.165l-.015.017,0,.017a.145.145,0,0,1-.043.082l-.015.012a.152.152,0,0,1-.238-.168.355.355,0,0,1,.071-.124A1.04,1.04,0,0,1,193.342,273.322Z" transform="translate(-173.951 -256.543)" fill="#253368"/>
      <path id="Tracé_20621" data-name="Tracé 20621" d="M198.263,280.255a.9.9,0,0,1,.775,1,.145.145,0,0,1-.29,0c0-.4-.227-.707-.486-.708s-.489.307-.491.7a.145.145,0,1,1-.29,0A.9.9,0,0,1,198.263,280.255Z" transform="translate(-177.726 -262.411)" fill="#253368"/>
      <path id="Tracé_20622" data-name="Tracé 20622" d="M218.575,280.255a.9.9,0,0,1,.775,1,.145.145,0,0,1-.29,0c0-.4-.227-.707-.486-.708s-.489.307-.49.7a.145.145,0,0,1-.29,0A.9.9,0,0,1,218.575,280.255Z" transform="translate(-194.459 -262.411)" fill="#253368"/>
      <path id="Tracé_20623" data-name="Tracé 20623" d="M234.8,276.14s-.375,2-.725,2.15a10.713,10.713,0,0,0-.15-3.15C233.784,274.963,234.771,274.74,234.8,276.14Z" transform="translate(-207.734 -258.089)" fill="#253368" fill-rule="evenodd"/>
      <path id="Tracé_20624" data-name="Tracé 20624" d="M185.407,273.983s.532,2.747.89,2.877a17.09,17.09,0,0,1-.072-3.925C186.351,272.75,185.353,272.583,185.407,273.983Z" transform="translate(-167.776 -256.28)" fill="#253368" fill-rule="evenodd"/>
      <path id="Tracé_20625" data-name="Tracé 20625" d="M210.7,274.327a.126.126,0,0,1,.21.139l-.01.016-.479.62.118,2.518a.126.126,0,0,1-.109.131h-.888a.126.126,0,0,1-.017-.252h.755l-.113-2.432a.126.126,0,0,1,.016-.068l.01-.015Z" transform="translate(-187.56 -257.487)" fill="#dd936f"/>
      <path id="Tracé_20626" data-name="Tracé 20626" d="M205.881,298.049H208.3a1.37,1.37,0,0,1-2.418,0Z" transform="translate(-184.645 -277.07)" fill="#fff" fill-rule="evenodd"/>
      <path id="Tracé_20627" data-name="Tracé 20627" d="M207.651,297.264h-2.418a.138.138,0,0,0-.131.182,1.124,1.124,0,0,0,.275.417,1.609,1.609,0,0,0,2.13,0,1.126,1.126,0,0,0,.275-.417A.138.138,0,0,0,207.651,297.264Zm-.232.277-.031.041a.989.989,0,0,1-.077.086,1.334,1.334,0,0,1-1.738,0l-.04-.042-.037-.043-.03-.041Z" transform="translate(-183.997 -276.423)" fill="#f5222d"/>
      <path id="Tracé_20628" data-name="Tracé 20628" d="M217.24,273.255a3.039,3.039,0,0,1,1.943.064,2.062,2.062,0,0,1,.4.2.145.145,0,1,1-.163.24l-.018-.011-.066-.038a2.181,2.181,0,0,0-.259-.117,2.749,2.749,0,0,0-1.76-.057.145.145,0,0,1-.08-.279Z" transform="translate(-193.916 -256.539)" fill="#253368"/>
      <path id="Tracé_20629" data-name="Tracé 20629" d="M157.835,486.667a4.145,4.145,0,0,0-4.72,3.592L150.043,515.1a3.55,3.55,0,0,0,7.021,1.038l4.249-24.664A4.145,4.145,0,0,0,157.835,486.667Z" transform="translate(-138.622 -432.421)" fill="#ffc999" fill-rule="evenodd"/>
      <path id="Tracé_20630" data-name="Tracé 20630" d="M145.319,662.569a2.333,2.333,0,0,1-2.222-2.323l1.254-25.143a3.547,3.547,0,0,1,7.048.664L147.936,660.7A2.334,2.334,0,0,1,145.319,662.569Z" transform="translate(-132.92 -552.278)" fill="#ffc999" fill-rule="evenodd"/>
      <path id="Tracé_20631" data-name="Tracé 20631" d="M142.393,776.12l4.69.5,1.027-7.2-5.406-.579Z" transform="translate(-132.342 -664.918)" fill="#597ef7" fill-rule="evenodd"/>
      <path id="Tracé_20632" data-name="Tracé 20632" d="M143.817,776.32l4.844.516a.151.151,0,0,1-.013.3h-.019l-4.845-.516a.151.151,0,0,1,.013-.3Z" transform="translate(-133.378 -671.08)" fill="#e4ebf7"/>
      <path id="Tracé_20633" data-name="Tracé 20633" d="M107.815,808.351l5.064.54-.766,9.226-11.322-1.206.123-1.416a1.079,1.079,0,0,1,.98-.978l3.1-.564,1.637-.715a1.457,1.457,0,0,0,.871-1.22C107.595,810.867,107.754,808.911,107.815,808.351Z" transform="translate(-98.069 -697.469)" fill="#4e5c93" fill-rule="evenodd"/>
      <path id="Tracé_20634" data-name="Tracé 20634" d="M110.822,851.958l-11.288-1.2a.2.2,0,0,1-.173-.214l.135-1.266a.2.2,0,0,1,.214-.173L111,850.3a.2.2,0,0,1,.173.214l-.135,1.266A.2.2,0,0,1,110.822,851.958Z" transform="translate(-96.89 -731.04)" fill="#ccd7ee" fill-rule="evenodd"/>
      <path id="Tracé_20635" data-name="Tracé 20635" d="M101.185,841.733c.085-.8.463-1.435,1.264-1.479l2.87-.122-.043,2.008Z" transform="translate(-98.394 -723.651)" fill="#ccd7ee" fill-rule="evenodd"/>
      <path id="Tracé_20636" data-name="Tracé 20636" d="M100.842,848.811h.015l11.288,1.2a.072.072,0,0,1,0,.143h-.015l-11.288-1.2a.072.072,0,0,1,0-.143Z" transform="translate(-98.058 -730.8)" fill="#a3b5d6"/>
      <path id="Tracé_20637" data-name="Tracé 20637" d="M131.185,826.66a.151.151,0,0,1,.19-.1l.044.015c.05.018.116.045.2.081a3.035,3.035,0,0,1,.517.3,2.1,2.1,0,0,1,.513.516.151.151,0,0,1-.141.235,3.631,3.631,0,0,0-.643.019c-.092.009-.189.019-.288.031l-.189.024-.082.011.009.009a3.523,3.523,0,0,1,.295.343l.057.077q.082.115.155.238a.151.151,0,0,1-.162.224,3.376,3.376,0,0,0-.625-.066c-.207-.005-.425,0-.645.016l-.109.008.039.03.044.036a1.513,1.513,0,0,1,.363.453.151.151,0,0,1-.267.14,1.218,1.218,0,0,0-.291-.363,1.33,1.33,0,0,0-.307-.2.912.912,0,0,0-.131-.051.151.151,0,0,1,.017-.3l.1-.013.121-.014.133-.014a7.923,7.923,0,0,1,.946-.039q.128,0,.248.012l.087.008-.007-.01a3.24,3.24,0,0,0-.27-.314l-.055-.054c-.033-.032-.065-.062-.094-.087l-.028-.025-.043-.035a.151.151,0,0,1,.066-.269l.142-.023c.11-.017.229-.034.35-.05.138-.018.271-.033.4-.045q.137-.013.257-.02l.1-.005-.016-.016a2.019,2.019,0,0,0-.162-.14l-.059-.044a2.741,2.741,0,0,0-.465-.269c-.042-.019-.081-.036-.117-.051l-.064-.024-.026-.009A.151.151,0,0,1,131.185,826.66Z" transform="translate(-121.814 -712.466)" fill="#e4ebf7"/>
      <path id="Tracé_20638" data-name="Tracé 20638" d="M138.45,818.883a.154.154,0,0,0-.05,0c-.253.063-.372.223-.32.423a.593.593,0,0,0,.126.227l.023.026a1.033,1.033,0,0,0,.083.083l.01.008.083.086.136.139.1.1c.25.248.512.5.774.727.157.139.31.268.458.386a3.385,3.385,0,0,0,1.148.679c.422.1.667-.145.636-.669a2.193,2.193,0,0,0-1.628-1.831,6.018,6.018,0,0,0-1.083-.313c-.1-.02-.2-.037-.29-.05l-.066-.009C138.523,818.891,138.476,818.886,138.45,818.883Zm-.019.309.018-.006.1.013c.1.014.216.032.34.057a5.723,5.723,0,0,1,1.028.3c.87.349,1.4.862,1.439,1.569.02.335-.053.408-.265.358a3.194,3.194,0,0,1-1.029-.622c-.143-.114-.292-.24-.446-.376-.257-.227-.515-.471-.761-.715l-.1-.1-.091-.093-.128-.132-.013-.012a.7.7,0,0,1-.084-.085.383.383,0,0,1-.061-.095l-.008-.023A.14.14,0,0,1,138.431,819.192Z" transform="translate(-128.778 -706.145)" fill="#e4ebf7"/>
      <path id="Tracé_20639" data-name="Tracé 20639" d="M263.495,574.047a2.068,2.068,0,0,1-.246,2.818L246.51,587.449c-1.206.762-3.036.013-4.03-1.651s-.751-3.572.533-4.2l17.834-8.749A2.213,2.213,0,0,1,263.495,574.047Z" transform="translate(-214.292 -503.341)" fill="#ffc999" fill-rule="evenodd"/>
      <path id="Tracé_20640" data-name="Tracé 20640" d="M341.318,571.1l-2.249-4.027-5.418,2.456,2.591,4.643Z" transform="translate(-289.905 -498.702)" fill="#597ef7" fill-rule="evenodd"/>
      <path id="Tracé_20641" data-name="Tracé 20641" d="M339.894,578.928a.135.135,0,0,1,.173.036l.01.016,2.324,4.159a.135.135,0,0,1-.225.147l-.01-.016-2.324-4.159A.135.135,0,0,1,339.894,578.928Z" transform="translate(-294.991 -508.451)" fill="#e4ebf7"/>
      <path id="Tracé_20642" data-name="Tracé 20642" d="M365.548,555.042l-2.429-4.348,6.637-3.592,5.432,9.72-1.022.547a.985.985,0,0,1-1.2-.348l-2.089-2.253-1.385-1a1.226,1.226,0,0,0-1.3-.149C367.364,554.071,365.959,554.835,365.548,555.042Z" transform="translate(-314.181 -482.246)" fill="#4e5c93" fill-rule="evenodd"/>
      <path id="Tracé_20643" data-name="Tracé 20643" d="M397.586,545.775,403,555.466a.168.168,0,0,1-.049.238l-.927.469a.186.186,0,0,1-.235-.094l-5.415-9.69a.169.169,0,0,1,.049-.238l.927-.469A.186.186,0,0,1,397.586,545.775Z" transform="translate(-341.555 -481.062)" fill="#ccd7ee" fill-rule="evenodd"/>
      <path id="Tracé_20644" data-name="Tracé 20644" d="M410.5,589.119c-.047.024-1.409-.014-1.831-.579L407.14,586.5l1.376-.882Z" transform="translate(-350.447 -513.977)" fill="#ccd7ee" fill-rule="evenodd"/>
      <path id="Tracé_20645" data-name="Tracé 20645" d="M395.133,550.121a.064.064,0,0,1,.08.014l.008.01,5.415,9.691a.064.064,0,0,1-.1.073l-.007-.011-5.415-9.691A.064.064,0,0,1,395.133,550.121Z" transform="translate(-340.528 -484.726)" fill="#a3b5d6"/>
      <path id="Tracé_20646" data-name="Tracé 20646" d="M389.153,576.613a2.58,2.58,0,0,0,.068.661c.011.051.023.1.035.143l.03.1,0,.008a.135.135,0,1,1-.255.089l-.018-.058-.006-.021c-.018-.061-.035-.128-.052-.2a2.744,2.744,0,0,1-.068-.821,1.656,1.656,0,0,1,.061-.335.135.135,0,0,1,.247-.027,4,4,0,0,0,.332.469l.1.119c.073.09.15.181.227.272l.058.067,0-.016a2.993,2.993,0,0,1,.13-.583l.029-.083a.135.135,0,0,1,.25-.008,3.382,3.382,0,0,0,.189.358c.078.132.169.27.271.414.077.109.157.217.239.323l.023.029v-.02a1.352,1.352,0,0,1,.058-.4l.018-.056c.009-.026.02-.052.031-.077a.135.135,0,0,1,.247.108q-.013.029-.024.06a1.207,1.207,0,0,0-.02.691,1.018,1.018,0,0,0,.038.126.135.135,0,0,1-.226.139l-.053-.061c-.041-.048-.087-.1-.137-.165-.141-.174-.282-.358-.414-.544-.1-.149-.2-.293-.282-.431l-.047-.081-.007.031c-.013.058-.023.116-.032.174l-.012.086a2.369,2.369,0,0,0-.02.279v.034a.135.135,0,0,1-.235.1l-.129-.145-.031-.035c-.119-.137-.239-.277-.351-.414l-.1-.122-.078-.1-.036-.048-.049-.066Z" transform="translate(-335.405 -506.119)" fill="#e4ebf7"/>
      <path id="Tracé_20647" data-name="Tracé 20647" d="M380.38,566.527a1.653,1.653,0,0,0-.455,1.684,5.463,5.463,0,0,0,.335,1.129c.082.2.171.395.259.57l.066.127.053.1.023.03c.2.2.41.191.512-.007l.017-.036a.715.715,0,0,0,.049-.232v-.035l.017-.152.016-.156c.008-.081.016-.167.023-.256.032-.381.053-.76.057-1.116a4.444,4.444,0,0,0-.143-1.385C381.062,566.357,380.755,566.232,380.38,566.527Zm.577.349a4.26,4.26,0,0,1,.128,1.294c0,.348-.024.721-.056,1.1l-.015.171c-.005.055-.011.109-.016.16l-.017.158-.008.071v.018a.568.568,0,0,1-.028.167l-.014.031s0,0-.01,0l-.057-.056-.021-.039-.06-.114-.022-.043c-.085-.169-.171-.354-.25-.55a5.2,5.2,0,0,1-.319-1.072,1.406,1.406,0,0,1,.356-1.427C380.765,566.568,380.864,566.608,380.957,566.877Z" transform="translate(-327.989 -498.116)" fill="#e4ebf7"/>
      <path id="Tracé_20648" data-name="Tracé 20648" d="M211.109,474.346a4.145,4.145,0,0,1,4.971,3.236l4.885,24.546a3.55,3.55,0,0,1-6.926,1.55l-6.046-24.286A4.145,4.145,0,0,1,211.109,474.346Z" transform="translate(-186.282 -422.224)" fill="#ffc999" fill-rule="evenodd"/>
      <path id="Tracé_20649" data-name="Tracé 20649" d="M133.475,445.032c2.426.19,8.186,15.523,10.361,21.006a11.473,11.473,0,0,1-2.059,3.052s.189.879.306,1.407c-2.07,1.7-6.075,2.628-6.075,2.628l-.009.755c-6.4,2.948-14.976.123-14.976.123s-.16-.164-.045-.756c-2.907-.034-9.131-3.722-9.131-3.722l.885-1.825-2.56-2.62s6.914-12.718,9.041-16.276a10.733,10.733,0,0,1,3.62-4.022S129.17,444.695,133.475,445.032Z" transform="translate(-105.797 -397.944)" fill="#4e5c93" fill-rule="evenodd"/>
      <path id="Tracé_20650" data-name="Tracé 20650" d="M130.266,461.595a.108.108,0,0,1,.2.078l-.007.016L119.933,483.2l.1.073.082.059c.208.147.453.312.734.49a23.355,23.355,0,0,0,2.767,1.489,24.282,24.282,0,0,0,5.172,1.7.108.108,0,0,1-.044.211,24.507,24.507,0,0,1-5.218-1.714,23.529,23.529,0,0,1-2.793-1.5c-.252-.16-.477-.309-.672-.445l-.156-.111-.108-.079-.066-.05a.107.107,0,0,1-.037-.115l.007-.017Z" transform="translate(-113.638 -411.753)" fill="#253368"/>
      <path id="Tracé_20651" data-name="Tracé 20651" d="M252,486.652a.108.108,0,0,1,.131.047l.008.016,6.936,18.349a.108.108,0,0,1-.042.128l-.05.032-.142.088-.139.084q-.182.108-.4.23a20.931,20.931,0,0,1-1.94.952,18.047,18.047,0,0,1-3.52,1.121.108.108,0,0,1-.043-.211,17.851,17.851,0,0,0,3.478-1.108,20.752,20.752,0,0,0,1.92-.942l.167-.094.228-.133.176-.106.074-.046-6.9-18.267a.108.108,0,0,1,.047-.132Z" transform="translate(-222.58 -432.44)" fill="#253368"/>
      <path id="Tracé_20652" data-name="Tracé 20652" d="M180.444,448.562a.108.108,0,0,1,.127.085l.414,2.091c.168.853.35,1.778.541,2.762l.307,1.579c.562,2.9,1.12,5.826,1.651,8.67l.3,1.593.392,2.132c.68,3.729,1.245,6.978,1.668,9.619a.108.108,0,0,1-.072.119q-.471.16-.954.3a25.8,25.8,0,0,1-11.919.272c-.572-.112-1.093-.231-1.555-.351l-.114-.03c-.123-.032-.234-.063-.335-.092l-.176-.052-.1-.03a.108.108,0,0,1-.075-.106l0-.018,4.828-24.195a.108.108,0,0,1,.214.025l0,.017-4.809,24.1.061.018c.127.037.275.079.445.124.485.129,1.04.257,1.655.378a25.6,25.6,0,0,0,11.819-.268q.358-.1.709-.216l.147-.049-.15-.923c-.371-2.264-.835-4.918-1.375-7.894l-.3-1.629-.148-.8q-.112-.607-.227-1.225c-.573-3.085-1.181-6.278-1.795-9.442l-.523-2.687-.739-3.744A.108.108,0,0,1,180.444,448.562Z" transform="translate(-155.532 -401.065)" fill="#253368"/>
      <path id="Tracé_20653" data-name="Tracé 20653" d="M206.318,450.919a.108.108,0,0,1,.1.1v.017l-1.134,20.122a.108.108,0,0,1-.215.005v-.018l1.135-20.122A.108.108,0,0,1,206.318,450.919Z" transform="translate(-183.977 -403.008)" fill="#253368"/>
      <path id="Tracé_20654" data-name="Tracé 20654" d="M175.082,448.046a.108.108,0,0,1,.21.047l0,.017-4.26,13.714a.108.108,0,0,1-.21-.047l0-.017Z" transform="translate(-155.758 -400.579)" fill="#253368"/>
      <path id="Tracé_20655" data-name="Tracé 20655" d="M179.411,438.654l.183-1.387s5.476.033,10.847-.236c.136.615.292,1.724.292,1.724C190.281,438.384,185.4,439.467,179.411,438.654Z" transform="translate(-162.838 -391.567)" fill="#4e5c93" fill-rule="evenodd"/>
      <path id="Tracé_20656" data-name="Tracé 20656" d="M192.414,446.2a.108.108,0,1,1,.01.215l-.557.025c-2.224.1-4.374.139-6.305.139l-.714,0c-.738,0-1.39-.016-1.888-.031l-.292-.01-.186-.009-.132-.008-.081-.007a.271.271,0,0,1-.046-.008h-.008c-.01,0-.019-.012-.063-.059l.013-.071c.014-.075.02-.075.052-.078a.107.107,0,0,1,.067,0l.013,0,.048,0,.075.005.16.008.205.008.342.011c.528.014,1.2.024,1.956.027C187.29,446.372,189.811,446.322,192.414,446.2Z" transform="translate(-165.097 -399.121)" fill="#253368"/>
      <path id="Tracé_20657" data-name="Tracé 20657" d="M129.648,284.949a2.464,2.464,0,0,0-.919,3.361l6.571,11.519a2.464,2.464,0,0,0,3.361.919h0a2.464,2.464,0,0,0,.919-3.361l-6.571-11.519A2.465,2.465,0,0,0,129.648,284.949Z" transform="translate(-120.818 -266.011)" fill="#ffc999" fill-rule="evenodd"/>
      <path id="Tracé_20658" data-name="Tracé 20658" d="M156.136,329.349l2.786,4.883a2.472,2.472,0,0,1-.919,3.361h0a2.471,2.471,0,0,1-3.361-.92l-2.759-4.837Z" transform="translate(-140.159 -302.856)" fill="#597ef7" fill-rule="evenodd"/>
      <path id="Tracé_20659" data-name="Tracé 20659" d="M156.045,328.677a.085.085,0,0,1,.108.018l.009.013,2.785,4.883a2.556,2.556,0,0,1-.951,3.477.085.085,0,1,1-.085-.148,2.386,2.386,0,0,0,.916-3.194l-.028-.051-2.743-4.808-4.18,2.445a.086.086,0,0,1-.108-.018l-.009-.013a.085.085,0,0,1,.018-.108l.012-.009Z" transform="translate(-140.049 -302.293)" fill="#4e5c93"/>
      <path id="Tracé_20660" data-name="Tracé 20660" d="M109.615,207.335a1.42,1.42,0,0,0-1.007,1.684l3.251,14.289a2.418,2.418,0,1,0,4.653-1.315L111.321,208.2A1.42,1.42,0,0,0,109.615,207.335Z" transform="translate(-104.48 -202.295)" fill="#ffc999" fill-rule="evenodd"/>
      <path id="Tracé_20661" data-name="Tracé 20661" d="M87.832,184.665s1.76,1.955,3.209,1.4a1.588,1.588,0,0,0,.972-1.87,8.409,8.409,0,0,0-.853-2.815c-.481-.923-1.573-2.585-2.092-2.4-.676.244.669,2.053.254,2.371s-.732-.027-1.691-.6c-.6-.359-1.049-.949-1.615-1.156C84.908,179.193,84.948,181.952,87.832,184.665Z" transform="translate(-85.343 -178.97)" fill="#ffc999" fill-rule="evenodd"/>
      <path id="Tracé_20662" data-name="Tracé 20662" d="M87.159,184.949a.106.106,0,0,1,.146.032,5.352,5.352,0,0,0,.58.749,4.671,4.671,0,0,0,1.154.912,3.44,3.44,0,0,0,.377.182l.052.021c.039.015.068.025.085.03a.106.106,0,1,1-.06.2l-.031-.01c-.031-.01-.073-.026-.126-.047a3.7,3.7,0,0,1-.4-.193,4.883,4.883,0,0,1-1.206-.953,5.557,5.557,0,0,1-.6-.778A.106.106,0,0,1,87.159,184.949Z" transform="translate(-86.799 -183.882)" fill="#dd936f"/>
      <path id="Tracé_20663" data-name="Tracé 20663" d="M87.535,191.013a.106.106,0,0,1,.145.036l.022.034.037.055c.049.073.108.155.176.243a5.559,5.559,0,0,0,.689.739,4.638,4.638,0,0,0,.911.641.106.106,0,0,1-.1.187,4.845,4.845,0,0,1-.952-.67,5.756,5.756,0,0,1-.715-.768c-.057-.073-.108-.143-.152-.207l-.032-.047c-.031-.047-.053-.08-.064-.1A.106.106,0,0,1,87.535,191.013Z" transform="translate(-87.107 -188.879)" fill="#dd936f"/>
      <path id="Tracé_20664" data-name="Tracé 20664" d="M89.192,198.246a.106.106,0,0,1,.149.013,6.638,6.638,0,0,0,1.189,1.131,3.52,3.52,0,0,0,.3.2l.044.025c.059.032.1.051.118.059a.106.106,0,0,1-.079.2l-.028-.012c-.022-.01-.05-.024-.085-.042l-.027-.015a3.573,3.573,0,0,1-.367-.233,6.844,6.844,0,0,1-1.228-1.167A.106.106,0,0,1,89.192,198.246Z" transform="translate(-88.483 -194.83)" fill="#dd936f"/>
      <path id="Tracé_20665" data-name="Tracé 20665" d="M240.032,287.064a2.464,2.464,0,0,1,.464,3.453l-8.045,10.543a2.464,2.464,0,0,1-3.918-2.99l8.045-10.543A2.464,2.464,0,0,1,240.032,287.064Z" transform="translate(-202.89 -267.604)" fill="#ffc999" fill-rule="evenodd"/>
      <path id="Tracé_20666" data-name="Tracé 20666" d="M231.956,326.534,228.545,331a2.464,2.464,0,0,0,3.918,2.99l3.378-4.427Z" transform="translate(-202.902 -300.537)" fill="#597ef7" fill-rule="evenodd"/>
      <path id="Tracé_20667" data-name="Tracé 20667" d="M231.169,325.839a.085.085,0,0,1,.107-.024l.013.008,3.885,3.032a.085.085,0,0,1-.092.143l-.013-.008-3.817-2.979-3.358,4.4a2.387,2.387,0,0,0,.4,3.3l.047.037a.085.085,0,1,1-.1.135,2.557,2.557,0,0,1-.517-3.524l.037-.05Z" transform="translate(-202.239 -299.936)" fill="#4e5c93"/>
      <path id="Tracé_20668" data-name="Tracé 20668" d="M283.964,210.772a1.42,1.42,0,0,1,.927,1.729l-3.917,14.12a2.418,2.418,0,1,1-4.586-1.532l5.832-13.53A1.42,1.42,0,0,1,283.964,210.772Z" transform="translate(-242.614 -205.111)" fill="#ffc999" fill-rule="evenodd"/>
      <path id="Tracé_20669" data-name="Tracé 20669" d="M315.171,188.63s-1.849,1.87-3.271,1.251a1.588,1.588,0,0,1-.883-1.913,8.4,8.4,0,0,1,.984-2.772c.523-.9,1.692-2.508,2.2-2.3.664.276-.764,2.02-.365,2.356s.733.008,1.718-.521a12.62,12.62,0,0,1,1.668-1.079C318.349,183.3,318.179,186.055,315.171,188.63Z" transform="translate(-271.209 -182.19)" fill="#ffc999" fill-rule="evenodd"/>
      <path id="Tracé_20670" data-name="Tracé 20670" d="M336.049,189.784a.106.106,0,1,1,.172.123,5.6,5.6,0,0,1-.535.645,4.942,4.942,0,0,1-1.314.98,3.736,3.736,0,0,1-.436.189l-.063.022c-.048.016-.085.026-.108.032a.106.106,0,0,1-.05-.205l.028-.008c.029-.008.07-.021.122-.04a3.542,3.542,0,0,0,.412-.179,4.721,4.721,0,0,0,1.258-.939A5.4,5.4,0,0,0,336.049,189.784Z" transform="translate(-289.89 -187.842)" fill="#dd936f"/>
      <path id="Tracé_20671" data-name="Tracé 20671" d="M337.449,195.827a.106.106,0,1,1,.176.117l-.037.053-.029.039c-.053.071-.115.15-.187.235a5.786,5.786,0,0,1-.715.709,4.874,4.874,0,0,1-1.03.664.106.106,0,1,1-.09-.191,4.66,4.66,0,0,0,.985-.635,5.55,5.55,0,0,0,.689-.683c.055-.065.1-.126.147-.183l.031-.041C337.419,195.87,337.439,195.842,337.449,195.827Z" transform="translate(-291.408 -192.819)" fill="#dd936f"/>
      <path id="Tracé_20672" data-name="Tracé 20672" d="M336.371,202.953a.106.106,0,1,1,.155.144,6.844,6.844,0,0,1-1.281,1.108,3.593,3.593,0,0,1-.378.216l-.076.035c-.029.013-.051.022-.067.027a.106.106,0,0,1-.07-.2l.022-.008c.023-.009.056-.024.1-.045a3.419,3.419,0,0,0,.355-.2A6.639,6.639,0,0,0,336.371,202.953Z" transform="translate(-290.673 -198.7)" fill="#dd936f"/>
      <path id="Tracé_20673" data-name="Tracé 20673" d="M181.988,326.87c-2.134-.835-1.917-.68-2.616-1.308a3.517,3.517,0,0,1-.689-1.279h-5.154a2.538,2.538,0,0,1-.6,1.077c-.7.628-1.5-.138-3.42.905-1.818.985-.3,4.627-.9,7.363a3.938,3.938,0,0,0,.182,2.21c.323.723.815,1.6,1.01,2.067.641,1.538.509,3.195.923,4.59,0,0-.659,1.274.381,1.792H181.1c1.247-.569.381-1.792.381-1.792.4-1.332.155-2.406.74-4.356.117-.39.557-1.008.932-1.833a4.949,4.949,0,0,0,.39-2.835C182.842,330.567,183.838,327.595,181.988,326.87Z" transform="translate(-153.88 -298.683)" fill="#597ef7" fill-rule="evenodd"/>
      <path id="Tracé_20674" data-name="Tracé 20674" d="M201.359,332.724l3.416.028a.085.085,0,0,1,.014.169h-.015l-3.416-.028a.085.085,0,0,1-.014-.169Z" transform="translate(-180.849 -305.636)" fill="#4e5c93"/>
      <path id="Tracé_20675" data-name="Tracé 20675" d="M169.736,359.773a.085.085,0,1,1,.154.073l-.034.075-.053.124-.038.095c-.094.237-.188.506-.276.8a8.705,8.705,0,0,0-.372,3.269,5.844,5.844,0,0,0,1.008,2.626l.107.175.011.03.132.744.129.715c.043.236.085.47.128.7l.156.836c.156.825.274,1.4.337,1.639a.085.085,0,0,1-.008.064c-.388.69-.105,1.57.285,1.66l.022,0h10l.005,0,.032-.02.019-.013a.961.961,0,0,0,.17-.155,1.324,1.324,0,0,0,.065-1.481.086.086,0,0,1-.005-.05l.074-.387c.193-1.021.358-1.953.5-2.786l.095-.584q.032-.2.059-.378l.059-.4.014-.037a6.077,6.077,0,0,0,1.265-3.25,7.292,7.292,0,0,0-.457-2.868,7.837,7.837,0,0,0-.32-.762l-.044-.089-.041-.08-.058-.106a.085.085,0,0,1,.147-.086l.042.075c.033.061.069.131.108.212a8,8,0,0,1,.327.778,7.459,7.459,0,0,1,.466,2.935,6.151,6.151,0,0,1-1.231,3.245l-.052.076-.043.291c-.039.255-.086.554-.141.9l-.052.313c-.141.846-.31,1.791-.507,2.825l-.033.169.015.036a1.476,1.476,0,0,1-.091,1.568l-.027.032a1.038,1.038,0,0,1-.272.229l-.024.013-.037.009H171.413c-.536-.08-.879-1.084-.465-1.876l.006-.011-.026-.109c-.058-.246-.141-.653-.244-1.191l-.156-.825-.1-.559c-.042-.231-.085-.467-.128-.705l-.216-1.206-.047-.076-.111-.185a5.916,5.916,0,0,1-.966-2.532l-.007-.069a8.869,8.869,0,0,1,.378-3.333c.078-.263.161-.505.245-.724l.036-.092c.027-.068.052-.129.076-.184l.017-.04C169.717,359.814,169.73,359.787,169.736,359.773Z" transform="translate(-154.193 -327.88)" fill="#4e5c93"/>
      <path id="Tracé_20676" data-name="Tracé 20676" d="M192.9,335.93a.108.108,0,0,1,.139.014l.011.014,3.042,4.4,3.179-4.325a.108.108,0,0,1,.136-.032l.015.009a.108.108,0,0,1,.032.136l-.009.015-3.269,4.447a.108.108,0,0,1-.164.011l-.012-.014-3.128-4.525A.108.108,0,0,1,192.9,335.93Z" transform="translate(-173.916 -308.262)" fill="#e4ebf7"/>
      <path id="Tracé_20677" data-name="Tracé 20677" d="M204.411,362.932a1.794,1.794,0,1,1-1.794-1.794A1.795,1.795,0,0,1,204.411,362.932Z" transform="translate(-180.477 -329.044)" fill="#e4ebf7" fill-rule="evenodd"/>
      <path id="Tracé_20678" data-name="Tracé 20678" d="M206.244,365.264a1.3,1.3,0,1,1-1.3-1.3A1.3,1.3,0,0,1,206.244,365.264Z" transform="translate(-182.809 -331.376)" fill="#faad14" fill-rule="evenodd"/>
    </g>
  </g>
</svg>
