<svg xmlns="http://www.w3.org/2000/svg" xmlns:xlink="http://www.w3.org/1999/xlink" width="449" height="166" viewBox="0 0 449 166">
  <defs>
    <clipPath id="clip-path">
      <path id="Rectangle_3896" data-name="Rectangle 3896" d="M19,0H430a19,19,0,0,1,19,19V166a0,0,0,0,1,0,0H0a0,0,0,0,1,0,0V19A19,19,0,0,1,19,0Z" transform="translate(1224 1497)" fill="#fff"/>
    </clipPath>
  </defs>
  <g id="Groupe_de_masques_49" data-name="Groupe de masques 49" transform="translate(-1224 -1497)" clip-path="url(#clip-path)">
    <path id="Rectangle_3895" data-name="Rectangle 3895" d="M19,0H430a19,19,0,0,1,19,19V166a0,0,0,0,1,0,0H0a0,0,0,0,1,0,0V19A19,19,0,0,1,19,0Z" transform="translate(1224 1497)" fill="#fff"/>
    <g id="Groupe_2878" data-name="Groupe 2878" transform="translate(238 -2728.973)">
      <path id="Tracé_18493" data-name="Tracé 18493" d="M1276.057,4284.335H1080.92v-13.8a5.366,5.366,0,0,1,5.307-5.423H1270.75a5.366,5.366,0,0,1,5.307,5.423Z" transform="translate(-0.723)" fill="#253368" fill-rule="evenodd"/>
      <path id="Tracé_18494" data-name="Tracé 18494" d="M1120.5,4294.763a3.311,3.311,0,1,1-3.31-3.4A3.358,3.358,0,0,1,1120.5,4294.763Z" transform="translate(-26.621 -20.626)" fill="#ff7946" fill-rule="evenodd"/>
      <path id="Tracé_18495" data-name="Tracé 18495" d="M1178.19,4294.763a3.312,3.312,0,1,1-3.31-3.4A3.358,3.358,0,0,1,1178.19,4294.763Z" transform="translate(-71.95 -20.626)" fill="#faad14" fill-rule="evenodd"/>
      <path id="Tracé_18496" data-name="Tracé 18496" d="M1235.87,4294.763a3.311,3.311,0,1,1-3.31-3.4A3.357,3.357,0,0,1,1235.87,4294.763Z" transform="translate(-117.272 -20.626)" fill="#7cb305" fill-rule="evenodd"/>
      <path id="Tracé_18497" data-name="Tracé 18497" d="M1085.918,4473.317c-3.267,0-5.918-2.351-5.918-5.25V4343.05h195.4v125.018c0,2.9-2.65,5.25-5.918,5.25Z" transform="translate(0 -61.241)" fill="#e4ebf7" fill-rule="evenodd"/>
      <path id="Tracé_18498" data-name="Tracé 18498" d="M1463.192,4400.569H1341.175a2.365,2.365,0,0,0-2.365,2.366v23.433a2.366,2.366,0,0,0,2.365,2.367h122.016a2.367,2.367,0,0,0,2.365-2.367v-23.433A2.366,2.366,0,0,0,1463.192,4400.569Z" transform="translate(-203.358 -106.436)" fill="#fff"/>
      <path id="Tracé_18499" data-name="Tracé 18499" d="M1465.415,4482.73h-67.773a1.32,1.32,0,1,0,0,2.639h67.773a1.32,1.32,0,1,0,0-2.639Z" transform="translate(-248.547 -170.994)" fill="#e4ebf7"/>
      <path id="Tracé_18500" data-name="Tracé 18500" d="M1490.061,4441.65h-92.419a1.32,1.32,0,1,0,0,2.64h92.419a1.32,1.32,0,1,0,0-2.64Z" transform="translate(-248.547 -138.715)" fill="#e4ebf7"/>
      <path id="Tracé_18501" data-name="Tracé 18501" d="M1463.192,4581.32H1341.175a2.366,2.366,0,0,0-2.365,2.367v23.433a2.365,2.365,0,0,0,2.365,2.366h122.016a2.366,2.366,0,0,0,2.365-2.366v-23.433A2.368,2.368,0,0,0,1463.192,4581.32Z" transform="translate(-203.358 -248.46)" fill="#597ef7"/>
      <path id="Tracé_18502" data-name="Tracé 18502" d="M1465.415,4663.49h-67.773a1.32,1.32,0,1,0,0,2.64h67.773a1.32,1.32,0,0,0,0-2.64Z" transform="translate(-248.547 -313.025)" fill="#fff"/>
      <path id="Tracé_18503" data-name="Tracé 18503" d="M1490.061,4622.41h-92.419a1.32,1.32,0,1,0,0,2.64h92.419a1.32,1.32,0,0,0,0-2.64Z" transform="translate(-248.547 -280.747)" fill="#fff"/>
      <path id="Tracé_18504" data-name="Tracé 18504" d="M1463.192,4762.08H1341.175a2.365,2.365,0,0,0-2.365,2.366v23.435a2.365,2.365,0,0,0,2.365,2.366h122.016a2.366,2.366,0,0,0,2.365-2.366v-23.435A2.367,2.367,0,0,0,1463.192,4762.08Z" transform="translate(-203.358 -390.491)" fill="#fff"/>
      <path id="Tracé_18505" data-name="Tracé 18505" d="M1465.415,4844.24h-67.773a1.321,1.321,0,1,0,0,2.642h67.773a1.321,1.321,0,0,0,0-2.642Z" transform="translate(-248.547 -455.049)" fill="#e4ebf7"/>
      <path id="Tracé_18506" data-name="Tracé 18506" d="M1490.061,4803.16h-92.419a1.321,1.321,0,1,0,0,2.642h92.419a1.321,1.321,0,0,0,0-2.642Z" transform="translate(-248.547 -422.77)" fill="#e4ebf7"/>
      <path id="Tracé_18507" data-name="Tracé 18507" d="M1179.161,4400.569h-26.955a2.365,2.365,0,0,0-2.365,2.366v23.433a2.366,2.366,0,0,0,2.365,2.367h26.955a2.366,2.366,0,0,0,2.365-2.367v-23.433A2.365,2.365,0,0,0,1179.161,4400.569Z" transform="translate(-54.877 -106.436)" fill="#faad14"/>
      <path id="Tracé_18508" data-name="Tracé 18508" d="M1179.161,4581.32h-26.955a2.366,2.366,0,0,0-2.365,2.367v23.433a2.365,2.365,0,0,0,2.365,2.366h26.955a2.365,2.365,0,0,0,2.365-2.366v-23.433A2.366,2.366,0,0,0,1179.161,4581.32Z" transform="translate(-54.877 -248.46)" fill="#597ef7"/>
      <path id="Tracé_18509" data-name="Tracé 18509" d="M1179.161,4762.08h-26.955a2.366,2.366,0,0,0-2.365,2.366v23.435a2.365,2.365,0,0,0,2.365,2.366h26.955a2.365,2.365,0,0,0,2.365-2.366v-23.435A2.366,2.366,0,0,0,1179.161,4762.08Z" transform="translate(-54.877 -390.491)" fill="#ff7946"/>
    </g>
    <g id="Groupe_2879" data-name="Groupe 2879" transform="translate(-2212.766 1406.56)">
      <path id="Tracé_11619" data-name="Tracé 11619" d="M3748.681,541.2a10.372,10.372,0,0,0,10.361-9.865l2.667-54.356a13.044,13.044,0,1,0-26.056,0l2.667,54.356A10.375,10.375,0,0,0,3748.681,541.2Z" transform="translate(-34.754 -217.41)" fill="#4e5c93" fill-rule="evenodd"/>
      <path id="Tracé_11620" data-name="Tracé 11620" d="M3823.213,520.441a10.376,10.376,0,0,0,8.8-11.283L3826.649,455a13.044,13.044,0,1,0-25.773,3.835l10.638,53.372A10.374,10.374,0,0,0,3823.213,520.441Z" transform="translate(-76.091 -204.653)" fill="#4e5c93" fill-rule="evenodd"/>
      <path id="Tracé_11621" data-name="Tracé 11621" d="M3741.33,678.943l15.794.615c4.476-3.359.7-9.557.7-9.557l3.57-44.02a10.362,10.362,0,1,0-20.692-.8l.116,44.909S3737.007,675.54,3741.33,678.943Z" transform="translate(-37.063 -313.775)" fill="#4e5c93" fill-rule="evenodd"/>
      <path id="Tracé_11622" data-name="Tracé 11622" d="M3822.9,670.772l15.2.786c4.625-3.152,1.674-8.969,1.674-8.969l5.568-43.812a10.364,10.364,0,1,0-20.638-1.745l-1.922,44.868S3818.741,667.177,3822.9,670.772Z" transform="translate(-89.068 -308.894)" fill="#4e5c93" fill-rule="evenodd"/>
      <path id="Tracé_11623" data-name="Tracé 11623" d="M3765.327,815.676l-19.026-4.538-.571-22.547,15.1.852-2.092,14.538,7.573,10.206A.949.949,0,0,1,3765.327,815.676Z" transform="translate(-41.175 -424.324)" fill="#253368" fill-rule="evenodd"/>
      <path id="Tracé_11624" data-name="Tracé 11624" d="M3844.286,806.38l-18.945-3.245.473-22,15.041,1-2.762,14.425,7.075,8.265A.949.949,0,0,1,3844.286,806.38Z" transform="translate(-91.813 -419.579)" fill="#253368" fill-rule="evenodd"/>
      <path id="Tracé_11625" data-name="Tracé 11625" d="M3721.585,297.261s-20.933-42.227-18.931-46.23,16.78-13.007,39.118-11.47c22.436,1.544,30.278,10.658,30.278,10.658s-5.768,26.763-10.6,44.131c2.547,4.55-2.085,7.78-2.085,7.78s-29.073-1.344-35.991-.98C3720.141,299.765,3721.585,297.261,3721.585,297.261Z" transform="translate(-13.689 -74.985)" fill="#597ef7" fill-rule="evenodd"/>
      <path id="Tracé_11626" data-name="Tracé 11626" d="M3784.016,438.371,3765.365,449l-6.2.859-25.5-10.049s3.115-19.38,8.912-28.378a33.413,33.413,0,0,0,1.3-4.441s22.843-3.461,35.3.923l.462,4.153a67.69,67.69,0,0,1,3,9C3784.361,428.335,3784.016,438.371,3784.016,438.371Z" transform="translate(-33.497 -180.772)" fill="#4e5c93" fill-rule="evenodd"/>
      <path id="Tracé_11627" data-name="Tracé 11627" d="M3767.42,196l1.154-20.092h19.033l-.018,21.707-5.458,10.383Z" transform="translate(-54.971 -34.605)" fill="#ffc2bd" fill-rule="evenodd"/>
      <path id="Tracé_11628" data-name="Tracé 11628" d="M3776.643,143.81s10.612-2.769,13.5,2.192c2.8,4.824,3,22.264-2.54,24.918-4.512,2.162-13.727,1.154-15.918-7.268a36.25,36.25,0,0,1-1.154-12.228C3771.221,145.655,3776.643,143.81,3776.643,143.81Z" transform="translate(-56.851 -13.7)" fill="#ffc2bd" fill-rule="evenodd"/>
      <path id="Tracé_11629" data-name="Tracé 11629" d="M3763.942,179.738s-2.886-5.537-5.077-2.538,1.5,8.536,4.731,8.306S3763.942,179.738,3763.942,179.738Z" transform="translate(-49.109 -34.863)" fill="#ffc2bd" fill-rule="evenodd"/>
      <path id="Tracé_11630" data-name="Tracé 11630" d="M3787.073,142.338s1.383-6.691-.233-10.843-3.69-8.306-5.19-6.114a8.524,8.524,0,0,0-2.653-3.807c-1.037-.692-4.269,3.807-4.269,3.807s.229-2.077-1.037-.808-9,5.191-10.266,7.268-.6,9.71-.6,9.71,2.482-.231,3.807,4.5c-.346-3.807,1.241-5.8,2.052-6.554a1.673,1.673,0,0,0,.517-1.106c.062-.806.153-2.16.186-3.483a1.214,1.214,0,0,1,1.015-1.164,46.568,46.568,0,0,1,14.567.293,1.2,1.2,0,0,1,.986,1.026l.575,4.327A12.766,12.766,0,0,1,3787.073,142.338Z" transform="translate(-51.938)" fill="#253368" fill-rule="evenodd"/>
      <path id="Tracé_11631" data-name="Tracé 11631" d="M3786.563,174.5a.471.471,0,0,1,.149-.015l.051.006,3.741.654a.461.461,0,0,1-.113.914l-.047-.005-3.643-.636-1.852.492a.463.463,0,0,1-.55-.282l-.015-.045a.466.466,0,0,1,.284-.549l.044-.015Z" transform="translate(-65.69 -33.7)" fill="#253368"/>
      <path id="Tracé_11632" data-name="Tracé 11632" d="M3814.771,173.385a.478.478,0,0,1,.2-.009l.047.011,1.441.4a.461.461,0,0,1-.2.9l-.047-.011-1.321-.37-3.57.948a.463.463,0,0,1-.55-.282l-.014-.045a.462.462,0,0,1,.284-.55l.043-.015Z" transform="translate(-82.525 -32.993)" fill="#253368"/>
      <path id="Tracé_11633" data-name="Tracé 11633" d="M3773.844,191.57a23.657,23.657,0,0,1,4.538,4.75,15.334,15.334,0,0,1,4.444-3.836s2.613,1.941,4,1.336a1.555,1.555,0,0,0,.385-1.047,9.242,9.242,0,0,1,3.981,3.287,18.278,18.278,0,0,1,2.642-3.971s.415,11.3-7.89,11.469c-8.392,0-11.19-4.643-12.14-8.536C3773.579,193.8,3773.24,190.7,3773.844,191.57Z" transform="translate(-58.841 -44.474)" fill="#efadab" fill-rule="evenodd"/>
      <path id="Tracé_11634" data-name="Tracé 11634" d="M3793.694,199.587a.367.367,0,0,1,.477-.208l.175.064.164.056c.277.092.586.185.924.271a11.04,11.04,0,0,0,3.355.38,6.036,6.036,0,0,0,1.441-.252.369.369,0,0,1,.222.7,6.816,6.816,0,0,1-1.62.285,11.737,11.737,0,0,1-3.581-.4c-.3-.076-.575-.156-.826-.238l-.226-.074-.258-.093-.04-.015A.367.367,0,0,1,3793.694,199.587Z" transform="translate(-71.667 -49.52)" fill="#d18888"/>
      <path id="Tracé_11635" data-name="Tracé 11635" d="M3802.71,177.374a.273.273,0,0,1,.248.259v.037l-.113,1.227.076.365.022.1c.076.393.157.813.229,1.244s.142.876.2,1.285l.037.289c.193,1.6.156,2.592-.262,2.919s-1.11.206-2.082-.179c-.244-.1-.5-.209-.76-.334-.233-.111-.462-.229-.684-.347l-.291-.16-.2-.113c-.051-.028-.083-.048-.1-.059a.273.273,0,1,1,.28-.468l.095.055.167.1c.029.017.062.035.095.052.277.154.575.308.873.452.251.12.5.227.724.319.786.312,1.358.4,1.543.256s.215-1.156.04-2.58l-.018-.127c-.051-.4-.116-.826-.193-1.264-.054-.341-.116-.674-.178-.993l-.106-.518-.047-.215c0-.018,0-.037-.007-.055l0-.028.113-1.269a.277.277,0,0,1,.262-.248Z" transform="translate(-74.992 -35.539)" fill="#d18888"/>
      <path id="Tracé_11636" data-name="Tracé 11636" d="M3804.752,207.817a.228.228,0,0,1,.229.229.23.23,0,0,1-.193.229l-.037,0-1.943.009a.23.23,0,0,1-.036-.458l.036,0Z" transform="translate(-77.336 -54.904)" fill="#d18888"/>
      <path id="Tracé_11637" data-name="Tracé 11637" d="M3791.131,181.064a1.554,1.554,0,0,1,1.321,1.722.317.317,0,1,1-.633,0c0-.62-.335-1.088-.688-1.088s-.687.469-.687,1.088a.317.317,0,0,1-.634,0A1.554,1.554,0,0,1,3791.131,181.064Z" transform="translate(-69.213 -37.887)" fill="#253368"/>
      <path id="Tracé_11638" data-name="Tracé 11638" d="M3815.351,181.064a1.554,1.554,0,0,1,1.321,1.722.317.317,0,0,1-.634,0c0-.62-.335-1.088-.688-1.088s-.688.469-.688,1.088a.317.317,0,1,1-.633,0A1.554,1.554,0,0,1,3815.351,181.064Z" transform="translate(-84.619 -37.887)" fill="#253368"/>
      <path id="Tracé_11639" data-name="Tracé 11639" d="M3792.658,197.161a.272.272,0,0,1,.411.356l-.026.031-1.5,1.5a.273.273,0,0,1-.386,0,.275.275,0,0,1-.029-.356l.029-.031Z" transform="translate(-70.02 -48.075)" fill="#d18888"/>
      <path id="Tracé_11640" data-name="Tracé 11640" d="M3774.094,201.642a.233.233,0,0,1,.28.169l.033.13c.015.042.029.092.047.149l.018.059c.087.275.2.582.342.912a12.273,12.273,0,0,0,1.612,2.774c2.5,3.234,6.267,4.77,11.605,3.678a.231.231,0,0,1,.095.452c-5.521,1.129-9.462-.479-12.067-3.848a12.88,12.88,0,0,1-1.67-2.878c-.146-.344-.262-.663-.357-.95l-.043-.143-.037-.126a.907.907,0,0,1-.025-.1A.228.228,0,0,1,3774.094,201.642Z" transform="translate(-59.105 -50.972)" fill="#d18888"/>
      <path id="Tracé_11641" data-name="Tracé 11641" d="M3805.223,215.932a.227.227,0,0,1,.313.081,2.843,2.843,0,0,1,.208.446,2.683,2.683,0,0,1,.149,1.521,2.031,2.031,0,0,1-.95,1.287.231.231,0,0,1-.248-.39,1.576,1.576,0,0,0,.75-1,2.244,2.244,0,0,0-.135-1.258,2.7,2.7,0,0,0-.12-.278l-.051-.1A.228.228,0,0,1,3805.223,215.932Z" transform="translate(-78.614 -60.045)" fill="#d18888"/>
      <path id="Tracé_11642" data-name="Tracé 11642" d="M3761.7,182.367c.109-.543.535-.793,1.223-.528,1.091.419,1.2,1.218.833,2.693-.2.812.077,1.269.83,1.42a.23.23,0,0,1-.087.452,1.445,1.445,0,0,1-1.19-1.984c.32-1.271.236-1.848-.55-2.151-.418-.16-.553-.08-.607.188a1.18,1.18,0,0,0-.011.324l0,.043a.227.227,0,0,1-.189.264.234.234,0,0,1-.266-.19l0-.043a.076.076,0,0,1,0-.03A1.631,1.631,0,0,1,3761.7,182.367Z" transform="translate(-51.319 -38.312)" fill="#d18888"/>
      <path id="Tracé_11643" data-name="Tracé 11643" d="M3797.7,206.821a.218.218,0,1,1-.178-.249A.219.219,0,0,1,3797.7,206.821Z" transform="translate(-73.954 -54.11)" fill="#d18888" fill-rule="evenodd"/>
      <path id="Tracé_11644" data-name="Tracé 11644" d="M3788.771,209.058a.216.216,0,1,1-.178-.249A.214.214,0,0,1,3788.771,209.058Z" transform="translate(-68.28 -55.533)" fill="#d18888" fill-rule="evenodd"/>
      <path id="Tracé_11645" data-name="Tracé 11645" d="M3817.536,211.195a.217.217,0,1,1-.28-.127A.218.218,0,0,1,3817.536,211.195Z" transform="translate(-86.582 -56.963)" fill="#d18888" fill-rule="evenodd"/>
      <path id="Tracé_11646" data-name="Tracé 11646" d="M3823.115,208.353a.217.217,0,0,1-.408.151.217.217,0,0,1,.127-.278A.219.219,0,0,1,3823.115,208.353Z" transform="translate(-90.13 -55.155)" fill="#d18888" fill-rule="evenodd"/>
      <path id="Tracé_11647" data-name="Tracé 11647" d="M3812.7,212.926a.216.216,0,0,1-.127.278.216.216,0,1,1,.127-.278Z" transform="translate(-83.503 -58.064)" fill="#d18888" fill-rule="evenodd"/>
      <path id="Tracé_11648" data-name="Tracé 11648" d="M3805.759,211.562a.216.216,0,1,1-.277-.127A.215.215,0,0,1,3805.759,211.562Z" transform="translate(-79.092 -57.197)" fill="#d18888" fill-rule="evenodd"/>
      <path id="Tracé_11649" data-name="Tracé 11649" d="M3781.866,206.807a.217.217,0,0,1-.408.151.217.217,0,0,1,.408-.151Z" transform="translate(-63.893 -54.172)" fill="#d18888" fill-rule="evenodd"/>
      <path id="Tracé_11650" data-name="Tracé 11650" d="M3793.21,215.163a.216.216,0,1,1-.178-.249A.215.215,0,0,1,3793.21,215.163Z" transform="translate(-71.102 -59.416)" fill="#d18888" fill-rule="evenodd"/>
      <path id="Tracé_11651" data-name="Tracé 11651" d="M3797.821,214.241a.216.216,0,1,1-.178-.249A.215.215,0,0,1,3797.821,214.241Z" transform="translate(-74.036 -58.83)" fill="#d18888" fill-rule="evenodd"/>
      <path id="Tracé_11652" data-name="Tracé 11652" d="M3816.445,215.842a.218.218,0,1,1-.179-.249A.219.219,0,0,1,3816.445,215.842Z" transform="translate(-85.881 -59.848)" fill="#d18888" fill-rule="evenodd"/>
      <path id="Tracé_11653" data-name="Tracé 11653" d="M3813.5,208.821a.218.218,0,1,1-.178-.249A.218.218,0,0,1,3813.5,208.821Z" transform="translate(-84.004 -55.382)" fill="#d18888" fill-rule="evenodd"/>
      <path id="Tracé_11654" data-name="Tracé 11654" d="M3815.635,202.877a.218.218,0,1,1-.178-.249A.219.219,0,0,1,3815.635,202.877Z" transform="translate(-85.365 -51.601)" fill="#d18888" fill-rule="evenodd"/>
      <path id="Tracé_11655" data-name="Tracé 11655" d="M3788.185,212.763a.218.218,0,1,1-.178-.249A.218.218,0,0,1,3788.185,212.763Z" transform="translate(-67.905 -57.89)" fill="#d18888" fill-rule="evenodd"/>
      <path id="Tracé_11656" data-name="Tracé 11656" d="M3783.99,234.619l-.866-3.519-3.883.346-2.326,8.939-5.153-9.842-11.5-1.174-1.616,5.537s7.486,10.174,19.63,8.306C3784.277,242.291,3783.99,234.619,3783.99,234.619Z" transform="translate(-49.393 -68.613)" fill="#597ef7" fill-rule="evenodd"/>
      <path id="Tracé_11657" data-name="Tracé 11657" d="M3865.16,253.717s6.765,16.154.422,30.794c5.073,8.682,10.361,15.043,13.531,17.87s15.339,2.187,16.282-7.269c.844-8.481-14.648-28.656-16.915-32.308C3875.1,257.351,3867.486,253.717,3865.16,253.717Z" transform="translate(-117.142 -84.1)" fill="#ffc2bd" fill-rule="evenodd"/>
      <path id="Tracé_11658" data-name="Tracé 11658" d="M3886.578,274.832c-4.178-6.877-7.649-11.375-8.829-13.276-3.381-5.452-10.994-9.087-13.32-9.087,0,0,6.766,16.154.422,30.793a41.928,41.928,0,0,0,3.967,6.108s1.583-3.332,7.609-8.178C3882.7,276.153,3886.578,274.832,3886.578,274.832Z" transform="translate(-116.677 -83.306)" fill="#597ef7" fill-rule="evenodd"/>
      <path id="Tracé_11659" data-name="Tracé 11659" d="M3874.268,293.941a.212.212,0,0,1,.251.156l.018.1c.018.077.033.168.054.273.051.3.106.651.156,1.055a37.931,37.931,0,0,1-.054,8.873,55.075,55.075,0,0,1-4.109,15.212.212.212,0,0,1-.277.111.207.207,0,0,1-.109-.274,54.5,54.5,0,0,0,4.076-15.1,37.742,37.742,0,0,0,.059-8.774q-.066-.51-.131-.9l-.025-.128c-.029-.173-.055-.29-.065-.347A.207.207,0,0,1,3874.268,293.941Z" transform="translate(-120.336 -109.683)" fill="#253368"/>
      <path id="Tracé_11660" data-name="Tracé 11660" d="M3795.113,411.227c-17.562-2.25-37.2-.961-37.2-.961l.691-4.931s22.323-2.855,36.108.836C3795.026,408.536,3795.113,411.227,3795.113,411.227Z" transform="translate(-48.922 -179.872)" fill="#253368" fill-rule="evenodd"/>
      <path id="Tracé_11661" data-name="Tracé 11661" d="M3809.308,421.1a.305.305,0,0,1,.313.3l.018.986c0,.162,0,.332.007.511l.014,1.3c.047,5.463-.033,11.533-.324,17.356l-.036.7a91.068,91.068,0,0,1-1.889,15.87.307.307,0,1,1-.6-.149l.091-.381a93.4,93.4,0,0,0,1.78-15.373c.331-6.251.415-12.833.353-18.668l-.014-1.313-.015-.824A.308.308,0,0,1,3809.308,421.1Z" transform="translate(-80.024 -190.567)" fill="#253368"/>
      <path id="Tracé_11662" data-name="Tracé 11662" d="M3818.689,421.73a.306.306,0,0,1,.309.3l0,.645.007.969c.007,3.276-.029,6.987-.146,10.576l-.044,1.219c-.273,7.108-.793,11.424-1.761,12.178a18,18,0,0,1-2.038,1.337c-.783.449-1.616.877-2.449,1.272l-.342.159-.16.074-.517.229-.1.043a.308.308,0,0,1-.24-.566l.3-.13.3-.135q.235-.107.491-.229c.823-.388,1.645-.81,2.409-1.249a17.317,17.317,0,0,0,1.965-1.29c.76-.592,1.3-5.3,1.55-12.4.135-3.924.175-8.03.161-11.578l-.007-1.122A.309.309,0,0,1,3818.689,421.73Z" transform="translate(-82.71 -190.97)" fill="#253368"/>
      <path id="Tracé_11663" data-name="Tracé 11663" d="M3801.34,408.252v-4.926a1.168,1.168,0,0,1,1.11-1.189,74.934,74.934,0,0,1,10.794.41,1.179,1.179,0,0,1,1.015,1.182v4.631a1.167,1.167,0,0,1-1.161,1.189c-2.351-.029-7.715-.093-10.619-.109A1.166,1.166,0,0,1,3801.34,408.252Z" transform="translate(-76.547 -178.483)" fill="#e4ebf7" fill-rule="evenodd"/>
      <path id="Tracé_11664" data-name="Tracé 11664" d="M3805,409.554v-3.261a.864.864,0,0,1,.91-.786,75.3,75.3,0,0,1,8.8.274.855.855,0,0,1,.83.784v3.066a.877.877,0,0,1-.95.787c-1.918-.02-6.3-.064-8.665-.076A.87.87,0,0,1,3805,409.554Z" transform="translate(-78.875 -180.635)" fill="#253368" fill-rule="evenodd"/>
      <path id="Tracé_11665" data-name="Tracé 11665" d="M3814.807,404.576l-10.907,4.867.451.991,10.994-4.958Z" transform="translate(-78.175 -180.059)" fill="#e4ebf7" fill-rule="evenodd"/>
      <path id="Tracé_11666" data-name="Tracé 11666" d="M3815.3,409.113l-10.932-4.811-.433,1,11.06,4.817Z" transform="translate(-78.195 -179.885)" fill="#e4ebf7" fill-rule="evenodd"/>
      <path id="Tracé_11667" data-name="Tracé 11667" d="M3757.876,421.1a.3.3,0,0,1,.237.364l-.059.256c-.011.051-.025.106-.04.164-.08.33-.182.7-.3,1.091a22.67,22.67,0,0,1-1.277,3.313c-1.874,3.864-4.433,5.787-7.729,4.573a.307.307,0,0,1,.211-.577c2.919,1.075,5.211-.648,6.965-4.265a21.724,21.724,0,0,0,1.241-3.221c.1-.321.182-.622.251-.9l.08-.321.055-.239A.307.307,0,0,1,3757.876,421.1Z" transform="translate(-42.942 -190.567)" fill="#253368"/>
      <path id="Tracé_11668" data-name="Tracé 11668" d="M3811.482,520.943a.308.308,0,0,1,.215.575l-.037.013-6.15,1.844a.307.307,0,0,1-.211-.575l.036-.013Z" transform="translate(-78.949 -254.07)" fill="#253368"/>
      <path id="Tracé_11669" data-name="Tracé 11669" d="M3686.225,490.706l-.866-26.843a1.61,1.61,0,0,1,1.485-1.657l35.508-3.109a1.611,1.611,0,0,1,1.736,1.54l1.175,28.845a1.61,1.61,0,0,1-1.565,1.675l-35.817,1.108A1.612,1.612,0,0,1,3686.225,490.706Z" transform="translate(-2.773 -214.735)" fill="#597ef7" fill-rule="evenodd"/>
      <path id="Tracé_11670" data-name="Tracé 11670" d="M3681.883,491.036,3681,463.67a1.344,1.344,0,0,1,1.237-1.381l36.042-3.151a1.341,1.341,0,0,1,1.445,1.283l1.2,29.394a1.344,1.344,0,0,1-1.307,1.4l-36.355,1.122A1.343,1.343,0,0,1,3681.883,491.036Z" transform="translate(0 -214.762)" fill="#253368" fill-rule="evenodd"/>
      <path id="Tracé_11671" data-name="Tracé 11671" d="M3693.365,260.277s-6.23,1.384-9,12-1.729,20.3-1.037,33.685,5.535,36.8,7.613,45.335,2.835,11.386,4.96,14.419a4.039,4.039,0,0,0,4.614,1.615c1.845,1.845,4.786.577,4.786.577s4.443,1.154,5.364-1.384c3.635.519,2.078-4.5,2.54-6.345s-1.445-5.537-6.518-10.613c-3.232-5.768-.346-57.217,1.037-63.677S3709.053,261.661,3693.365,260.277Z" transform="translate(-0.986 -88.273)" fill="#ffc2bd" fill-rule="evenodd"/>
      <path id="Tracé_11672" data-name="Tracé 11672" d="M3706.723,291.8s3.345-20.765.116-27.225-8.406-11.362-16.612-5.306c-9.688,7.152-7.73,28.032-7.73,28.032S3693.225,289.719,3706.723,291.8Z" transform="translate(-0.85 -85.876)" fill="#597ef7" fill-rule="evenodd"/>
      <path id="Tracé_11673" data-name="Tracé 11673" d="M3725.36,271.065a6.545,6.545,0,0,1,1.9.167,7.578,7.578,0,0,1,3.064,1.5c2.9,2.332,4.735,6.884,5.015,14.235l.007.251-1.27,14.535a.206.206,0,0,1-.226.19.209.209,0,0,1-.189-.193v-.034l1.266-14.51c-.244-7.362-2.042-11.876-4.869-14.149a7.126,7.126,0,0,0-2.893-1.422,6.2,6.2,0,0,0-1.645-.163l-.258.015a.683.683,0,0,1-.069,0,.21.21,0,0,1,.051-.416A.458.458,0,0,1,3725.36,271.065Z" transform="translate(-27.992 -95.127)" fill="#253368"/>
      <path id="Tracé_11674" data-name="Tracé 11674" d="M3758.132,533.592a.207.207,0,0,1,.2.214l-.019.428v.107c-.029.962-.029,1.984.011,2.94a9.573,9.573,0,0,0,.448,3,.2.2,0,1,1-.371.171,9.7,9.7,0,0,1-.484-3.159c-.04-.968-.04-2-.015-2.969l.018-.543A.207.207,0,0,1,3758.132,533.592Z" transform="translate(-48.904 -262.123)" fill="#d18888"/>
      <path id="Tracé_11675" data-name="Tracé 11675" d="M3761.151,244.625a.211.211,0,0,1,.237-.134l.032.009,7.614,2.769a.209.209,0,0,1-.109.4l-.033-.009-7.613-2.769A.213.213,0,0,1,3761.151,244.625Z" transform="translate(-50.976 -78.229)" fill="#253368"/>
      <path id="Tracé_11676" data-name="Tracé 11676" d="M3808.413,259.071a.209.209,0,0,1,.258.143l.069.25.069.257c.025.091.047.186.073.286l.04.154c.189.748.375,1.575.553,2.459a40.6,40.6,0,0,1,.779,6.083,21.521,21.521,0,0,1-.116,3.555.208.208,0,0,1-.233.182.21.21,0,0,1-.182-.234,21.1,21.1,0,0,0,.113-3.485,40.313,40.313,0,0,0-.771-6.019c-.156-.779-.32-1.514-.484-2.188l-.138-.547-.167-.611a.054.054,0,0,0-.007-.024A.212.212,0,0,1,3808.413,259.071Z" transform="translate(-80.949 -87.501)" fill="#253368"/>
      <path id="Tracé_11677" data-name="Tracé 11677" d="M3911.34,245.511c-4.276,7.512-9.287,20.9-19.539,35.831,0,0-3.817,11.669,6.948,14.864,10.5,3.115,13.785-8.982,13.785-8.982a168.678,168.678,0,0,0,10.488-36.232,7.286,7.286,0,0,0,.153-2.908,6.357,6.357,0,0,0-3.672-4.147C3913.756,241.057,3911.34,245.511,3911.34,245.511Z" transform="translate(-133.67 -77.262)" fill="#ffc2bd" fill-rule="evenodd"/>
      <path id="Tracé_11678" data-name="Tracé 11678" d="M3948.013,225.08a11.553,11.553,0,0,1-3.079-5.586c-.917-3.668-1.358-14.067-1.245-14.675.375-2.068,2.689-1.346,3.232,4.649,2.569-3.5,3.406-6.58,2.853-9.514s3.01-3.289,5.033.558,4.56,6.645,3.948,10.747c-.771,5.176-1.736,9.778-3.573,13.064C3953.159,227.945,3951.448,227.546,3948.013,225.08Z" transform="translate(-167.082 -48.463)" fill="#ffc2bd" fill-rule="evenodd"/>
      <path id="Tracé_11679" data-name="Tracé 11679" d="M3952.09,229.4a.248.248,0,0,1,.3.12l.014.033.881,2.612.124.146.152.186c.081.1.164.2.255.314.418.53.837,1.1,1.23,1.694a15.783,15.783,0,0,1,1.194,2.111c.677,1.48.833,2.7.3,3.56a.246.246,0,0,1-.419-.256c.422-.686.288-1.754-.327-3.1a15.235,15.235,0,0,0-1.157-2.044c-.386-.579-.8-1.14-1.208-1.66l-.248-.307-.262-.316a.513.513,0,0,0-.037-.04.165.165,0,0,1-.033-.053l-.015-.029-.9-2.657A.244.244,0,0,1,3952.09,229.4Z" transform="translate(-172.331 -68.623)" fill="#d18888"/>
      <path id="Tracé_11680" data-name="Tracé 11680" d="M3973.743,216.73c.149-.845.6-1.332,1.4-1.107a.244.244,0,1,1-.131.471c-.451-.126-.68.123-.79.722a3.668,3.668,0,0,0-.047.687l.007.157v.032l.015.061.007.04c.018.095.04.2.055.328a8.079,8.079,0,0,1-.8,4.889,7.221,7.221,0,0,1-.571.926.241.241,0,0,1-.338.055.245.245,0,0,1-.059-.341,6.768,6.768,0,0,0,.535-.865,7.624,7.624,0,0,0,.75-4.594l-.019-.135c-.018-.1-.033-.183-.047-.237l-.007-.029,0-.037-.007-.063v-.03A4.283,4.283,0,0,1,3973.743,216.73Z" transform="translate(-185.385 -59.834)" fill="#d18888"/>
      <path id="Tracé_11681" data-name="Tracé 11681" d="M3968.823,210.282a12.6,12.6,0,0,1-.652,5.071,3.6,3.6,0,0,1-.706,1.219.244.244,0,1,1-.338-.353l.025-.028a1.57,1.57,0,0,0,.142-.19,4.1,4.1,0,0,0,.422-.828,12.177,12.177,0,0,0,.619-4.885l-.011-.215,0-.081a4.7,4.7,0,0,1,.113-.931,1.6,1.6,0,0,1,.568-1.008c.371-.25.841-.16,1.372.262a.245.245,0,0,1,.04.344.248.248,0,0,1-.346.039c-.382-.3-.626-.351-.793-.239a1.2,1.2,0,0,0-.364.713,4.7,4.7,0,0,0-.091.616l-.007.118c0,.036,0,.068,0,.1v.067Z" transform="translate(-181.953 -54.966)" fill="#d18888"/>
      <path id="Tracé_11682" data-name="Tracé 11682" d="M3963.217,201.352a1.26,1.26,0,0,1,1.463-.937.245.245,0,1,1-.044.487.781.781,0,0,0-.953.6,6.2,6.2,0,0,0-.16,1.9v.815c0,.727-.022,1.178-.073,1.722a13.172,13.172,0,0,1-.593,2.928,9.149,9.149,0,0,1-.459,1.141l-.065.135c-.065.123-.116.211-.149.264a.245.245,0,1,1-.411-.265l.032-.053c.037-.064.091-.163.156-.3a8.827,8.827,0,0,0,.433-1.08,12.868,12.868,0,0,0,.568-2.82l.018-.183c.044-.543.055-1.036.055-1.908v-.524A6.05,6.05,0,0,1,3963.217,201.352Z" transform="translate(-178.571 -50.19)" fill="#d18888"/>
      <path id="Tracé_11683" data-name="Tracé 11683" d="M3900.918,305.359a.245.245,0,0,1,.448.194l-.015.033-9.859,18.832a.246.246,0,0,1-.331.1.243.243,0,0,1-.117-.3l.015-.033Z" transform="translate(-133.598 -116.866)" fill="#d18888"/>
    </g>
  </g>
</svg>
