<svg xmlns="http://www.w3.org/2000/svg" xmlns:xlink="http://www.w3.org/1999/xlink" width="259" height="166" viewBox="100 0 259 166">
  <defs>
    <clipPath id="clip-path">
      <path id="Rectangle_3893" data-name="Rectangle 3893" d="M19,0H430a19,19,0,0,1,19,19V166a0,0,0,0,1,0,0H0a0,0,0,0,1,0,0V19A19,19,0,0,1,19,0Z" transform="translate(272 1497)" fill="#fff"/>
    </clipPath>
  </defs>
  <g id="Groupe_de_masques_50" data-name="Groupe de masques 50" transform="translate(-272 -1497)" clip-path="url(#clip-path)">
    <path id="Rectangle_3892" data-name="Rectangle 3892" d="M19,0H430a19,19,0,0,1,19,19V166a0,0,0,0,1,0,0H0a0,0,0,0,1,0,0V19A19,19,0,0,1,19,0Z" transform="translate(272 1497)" fill="#fff"/>
    <g id="Groupe_2457" data-name="Groupe 2457" transform="translate(377.676 1566.867)">
      <path id="Tracé_18148" data-name="Tracé 18148" d="M7.834,125.626a4.737,4.737,0,0,1-1.979-.567,4.551,4.551,0,0,1-1.47-1.283,4.841,4.841,0,0,1-.825-1.807,5.463,5.463,0,0,1-.049-2.14L22.448,8.57,198.729,0l11.039,132.188a5.388,5.388,0,0,1-1.819,4.564,6.343,6.343,0,0,1-2.279,1.278,7.759,7.759,0,0,1-2.879.335Z" transform="translate(-3.428 14.057)" fill="#e4ebf7"/>
      <path id="Tracé_18149" data-name="Tracé 18149" d="M120.138.392,12.6,4.713a2.3,2.3,0,0,0-.807.184,2.45,2.45,0,0,0-.686.441,2.342,2.342,0,0,0-.493.633,2.041,2.041,0,0,0-.232.762l-9.441,99.2a2.7,2.7,0,0,0,.088.995,2.449,2.449,0,0,0,.419.834,2.2,2.2,0,0,0,.683.586,2.082,2.082,0,0,0,.883.25l124.126,6.913a2.722,2.722,0,0,0,1.11-.163,2.461,2.461,0,0,0,.88-.564,2.436,2.436,0,0,0,.561-.877,2.656,2.656,0,0,0,.156-1.1l-7.1-110.387A1.9,1.9,0,0,0,122.5,1.6a2.22,2.22,0,0,0-.573-.654,2.606,2.606,0,0,0-.814-.423,2.841,2.841,0,0,0-.97-.128Z" transform="translate(60.172 24.501)" fill="#fff"/>
      <path id="Tracé_18150" data-name="Tracé 18150" d="M50.005.324,18.422,1.613a2.12,2.12,0,0,0-.753.176A2.478,2.478,0,0,0,16.516,2.82a2.143,2.143,0,0,0-.261.732L1.424,98.257a2.629,2.629,0,0,0,.019.944,2.187,2.187,0,0,0,.331.789,1.836,1.836,0,0,0,.589.554,1.749,1.749,0,0,0,.791.235l35.65,1.954a2.132,2.132,0,0,0,.9-.148,2.45,2.45,0,0,0,.777-.5,2.741,2.741,0,0,0,.57-.771,2.83,2.83,0,0,0,.282-.964L51.8,2.163a1.727,1.727,0,0,0-.078-.743,1.569,1.569,0,0,0-.363-.592,1.639,1.639,0,0,0-.591-.385,1.906,1.906,0,0,0-.759-.12Z" transform="translate(10.746 28.664)" fill="#fff"/>
      <path id="Tracé_18151" data-name="Tracé 18151" d="M20.956.029,2.389.142a1.194,1.194,0,0,0-.454.095,1.392,1.392,0,0,0-.4.254,1.462,1.462,0,0,0-.3.375,1.357,1.357,0,0,0-.156.459L.659,4.251a1.169,1.169,0,0,0,.022.462.993.993,0,0,0,.189.378.926.926,0,0,0,.325.255,1,1,0,0,0,.43.093l18.689-.019a1.234,1.234,0,0,0,.471-.1,1.393,1.393,0,0,0,.407-.261,1.44,1.44,0,0,0,.3-.386,1.344,1.344,0,0,0,.148-.472l.351-2.985a1.159,1.159,0,0,0-.037-.467,1.023,1.023,0,0,0-.207-.38A.987.987,0,0,0,21.4.12a1.068,1.068,0,0,0-.446-.092Z" transform="translate(28.419 66.462)" fill="#597ef7"/>
      <path id="Tracé_18152" data-name="Tracé 18152" d="M21.226.084,2.389.016a1.165,1.165,0,0,0-.452.092,1.371,1.371,0,0,0-.395.254,1.463,1.463,0,0,0-.3.377A1.382,1.382,0,0,0,1.09,1.2L.669,4.081A1.2,1.2,0,0,0,.69,4.55a1.021,1.021,0,0,0,.187.385A.936.936,0,0,0,1.2,5.2a.984.984,0,0,0,.427.1l18.958.165a1.2,1.2,0,0,0,.469-.093,1.372,1.372,0,0,0,.406-.26,1.441,1.441,0,0,0,.3-.388,1.368,1.368,0,0,0,.148-.477L22.254,1.3A1.194,1.194,0,0,0,22.217.83a1.054,1.054,0,0,0-.206-.387A1,1,0,0,0,21.67.181a1.053,1.053,0,0,0-.443-.1Z" transform="translate(26.937 76.737)" fill="#adc6ff"/>
      <path id="Tracé_18153" data-name="Tracé 18153" d="M21.513.323,2.437.063a1.158,1.158,0,0,0-.458.09,1.371,1.371,0,0,0-.4.257,1.486,1.486,0,0,0-.3.386,1.429,1.429,0,0,0-.159.476L.687,4.231a1.261,1.261,0,0,0,.02.483,1.069,1.069,0,0,0,.189.4.962.962,0,0,0,.326.272.988.988,0,0,0,.432.106l19.2.361a1.2,1.2,0,0,0,.475-.091,1.372,1.372,0,0,0,.411-.264,1.464,1.464,0,0,0,.3-.4,1.416,1.416,0,0,0,.152-.49l.355-3.021a1.252,1.252,0,0,0-.036-.488,1.1,1.1,0,0,0-.208-.4,1.026,1.026,0,0,0-.345-.273A1.057,1.057,0,0,0,21.513.323Z" transform="translate(25.384 87.122)" fill="#ff7946"/>
      <path id="Tracé_18154" data-name="Tracé 18154" d="M21.809.574,2.488.111A1.15,1.15,0,0,0,2.024.2,1.371,1.371,0,0,0,1.618.46a1.509,1.509,0,0,0-.306.395,1.479,1.479,0,0,0-.162.487L.706,4.386a1.323,1.323,0,0,0,.019.5,1.119,1.119,0,0,0,.19.412.979.979,0,0,0,.768.4l19.448.57a1.19,1.19,0,0,0,.482-.089,1.372,1.372,0,0,0,.417-.268,1.488,1.488,0,0,0,.308-.406,1.467,1.467,0,0,0,.155-.5l.366-3.109a1.313,1.313,0,0,0-.036-.5,1.154,1.154,0,0,0-.21-.415,1.049,1.049,0,0,0-.8-.4Z" transform="translate(23.786 97.798)" fill="#adc6ff"/>
      <path id="Tracé_18155" data-name="Tracé 18155" d="M71.647,2.053,2.155.166a1.5,1.5,0,0,0-.6.109A1.635,1.635,0,0,0,1.044.6,1.719,1.719,0,0,0,.508,1.714V1.72a1.62,1.62,0,0,0,.067.624,1.5,1.5,0,0,0,.285.518,1.409,1.409,0,0,0,1.042.5l69.78,2.1a1.7,1.7,0,0,0,.672-.114A1.638,1.638,0,0,0,72.9,5a1.613,1.613,0,0,0,.364-.532,1.64,1.64,0,0,0,.128-.66V3.8a1.716,1.716,0,0,0-.144-.666,1.8,1.8,0,0,0-.376-.55,1.822,1.822,0,0,0-.552-.38A1.78,1.78,0,0,0,71.647,2.053Z" transform="translate(74.037 102.474)" fill="#597ef7"/>
      <path id="Tracé_18156" data-name="Tracé 18156" d="M73.257,3.318,2.216.266A1.493,1.493,0,0,0,1.6.37,1.635,1.635,0,0,0,1.08.7a1.765,1.765,0,0,0-.375.513,1.808,1.808,0,0,0-.174.642v.006A1.742,1.742,0,0,0,.6,2.52a1.611,1.611,0,0,0,.288.545,1.484,1.484,0,0,0,.466.381,1.431,1.431,0,0,0,.6.159L73.294,6.889a1.7,1.7,0,0,0,.688-.109,1.639,1.639,0,0,0,.559-.358,1.656,1.656,0,0,0,.373-.551,1.737,1.737,0,0,0,.131-.689V5.175a1.851,1.851,0,0,0-.148-.7,1.924,1.924,0,0,0-.951-.987,1.806,1.806,0,0,0-.687-.169Z" transform="translate(72.614 119.585)" fill="#597ef7"/>
      <path id="Tracé_18157" data-name="Tracé 18157" d="M99.068,3.56,2.182.212a1.5,1.5,0,0,0-.608.107A1.635,1.635,0,0,0,1.059.65,1.752,1.752,0,0,0,.516,1.782v.006a1.678,1.678,0,0,0,.07.638,1.553,1.553,0,0,0,.287.53,1.45,1.45,0,0,0,.461.368,1.422,1.422,0,0,0,.589.151l97.3,3.654a1.78,1.78,0,0,0,.706-.114,1.64,1.64,0,0,0,.564-.362,1.6,1.6,0,0,0,.366-.554,1.666,1.666,0,0,0,.112-.691V5.4a1.831,1.831,0,0,0-.177-.7,1.991,1.991,0,0,0-.417-.579,2.04,2.04,0,0,0-.6-.4A1.948,1.948,0,0,0,99.068,3.56Z" transform="translate(73.373 110.486)" fill="#597ef7"/>
      <path id="Tracé_18158" data-name="Tracé 18158" d="M93.3.42,8.23,3.156A3.109,3.109,0,0,0,7.122,3.4a3.271,3.271,0,0,0-.935.6,3.133,3.133,0,0,0-.669.869,2.777,2.777,0,0,0-.3,1.05L.986,58.018a3.084,3.084,0,0,0,.138,1.209,2.881,2.881,0,0,0,.565,1,2.777,2.777,0,0,0,.9.687,2.823,2.823,0,0,0,1.156.269l92.206,1.91a3.569,3.569,0,0,0,1.374-.238,3.279,3.279,0,0,0,1.1-.7,3.082,3.082,0,0,0,.932-2.374L96.706,3.2a2.622,2.622,0,0,0-.311-1.118,2.964,2.964,0,0,0-.745-.895A3.391,3.391,0,0,0,94.583.605,3.664,3.664,0,0,0,93.3.42Z" transform="translate(74.509 34.462)" fill="#c7d4ff"/>
      <path id="Tracé_18159" data-name="Tracé 18159" d="M176.757,17.212,0,25.531,1.729,15.358a4.549,4.549,0,0,1,.578-1.548,5.407,5.407,0,0,1,1.078-1.3A5.513,5.513,0,0,1,4.813,11.6a4.8,4.8,0,0,1,1.631-.4L169.931,1.3a6.551,6.551,0,0,1,2.149.222,5.836,5.836,0,0,1,1.817.855,4.746,4.746,0,0,1,1.3,1.36,3.9,3.9,0,0,1,.581,1.734Z" transform="translate(18.896 -1.289)" fill="#253368"/>
      <path id="Tracé_18160" data-name="Tracé 18160" d="M6.7,2.934a2.866,2.866,0,0,1-.356.991,3.387,3.387,0,0,1-.68.831,3.44,3.44,0,0,1-.908.584,2.985,2.985,0,0,1-1.038.251,2.348,2.348,0,0,1-.973-.146,1.923,1.923,0,0,1-.732-.5,1.885,1.885,0,0,1-.422-.77,2.249,2.249,0,0,1-.044-.964,2.875,2.875,0,0,1,.359-.983,3.39,3.39,0,0,1,.677-.824,3.44,3.44,0,0,1,.9-.579A2.992,2.992,0,0,1,4.516.575a2.357,2.357,0,0,1,.969.139A1.928,1.928,0,0,1,6.22,1.2a1.882,1.882,0,0,1,.43.765A2.238,2.238,0,0,1,6.7,2.934Z" transform="translate(24.068 13.188)" fill="#ff7946"/>
      <path id="Tracé_18161" data-name="Tracé 18161" d="M6.688,2.961a2.83,2.83,0,0,1-.347,1,3.349,3.349,0,0,1-.68.839,3.44,3.44,0,0,1-.917.59,3.041,3.041,0,0,1-1.055.252,2.436,2.436,0,0,1-1-.148,2,2,0,0,1-.754-.5A1.931,1.931,0,0,1,1.5,4.217a2.252,2.252,0,0,1-.059-.973,2.841,2.841,0,0,1,.35-.992,3.35,3.35,0,0,1,.677-.828A3.438,3.438,0,0,1,3.374.839,3.048,3.048,0,0,1,4.42.584a2.442,2.442,0,0,1,.991.14,2.007,2.007,0,0,1,.757.493,1.929,1.929,0,0,1,.45.77,2.24,2.24,0,0,1,.069.974Z" transform="translate(33.84 12.631)" fill="#faad14"/>
      <path id="Tracé_18162" data-name="Tracé 18162" d="M6.667,2.992A2.8,2.8,0,0,1,6.331,4a3.308,3.308,0,0,1-.68.846,3.438,3.438,0,0,1-.925.6A3.1,3.1,0,0,1,3.654,5.7,2.523,2.523,0,0,1,2.637,5.55a2.085,2.085,0,0,1-.777-.5A1.981,1.981,0,0,1,1.4,4.264a2.252,2.252,0,0,1-.077-.981,2.8,2.8,0,0,1,.342-1,3.314,3.314,0,0,1,.677-.839A3.442,3.442,0,0,1,3.256.854,3.1,3.1,0,0,1,4.318.6a2.534,2.534,0,0,1,1.013.14,2.09,2.09,0,0,1,.78.5,1.978,1.978,0,0,1,.471.777A2.245,2.245,0,0,1,6.667,2.992Z" transform="translate(43.798 12.06)" fill="#7cb305"/>
      <path id="Tracé_18163" data-name="Tracé 18163" d="M12.878,19.617a9.842,9.842,0,0,0,3.691-.8,11.26,11.26,0,0,0,3.2-2.076,11.467,11.467,0,0,0,2.352-3.027,10.326,10.326,0,0,0,1.16-3.646,8.642,8.642,0,0,0-.3-3.573,7.478,7.478,0,0,0-1.614-2.846A7.336,7.336,0,0,0,18.717,1.8a8.265,8.265,0,0,0-3.425-.59,9.892,9.892,0,0,0-3.587.82A11.264,11.264,0,0,0,8.6,4.045,11.485,11.485,0,0,0,6.285,6.967a10.41,10.41,0,0,0-1.209,3.555,8.755,8.755,0,0,0,.194,3.555,7.536,7.536,0,0,0,1.519,2.907A7.308,7.308,0,0,0,9.4,18.936a8.188,8.188,0,0,0,3.474.681Z" transform="translate(29.028 36.244)" fill="#faad14"/>
      <path id="Tracé_18164" data-name="Tracé 18164" d="M8.233,8.1A9.246,9.246,0,0,0,10.22,7.85a10.158,10.158,0,0,0,1.93-.672,10.865,10.865,0,0,0,1.8-1.061,11.218,11.218,0,0,0,1.6-1.417,6.521,6.521,0,0,0-1.03-1.735,6.3,6.3,0,0,0-1.464-1.291,6.535,6.535,0,0,0-1.8-.794A7.187,7.187,0,0,0,9.211.637,8.1,8.1,0,0,0,7.093.976a9.03,9.03,0,0,0-2,.875A9.677,9.677,0,0,0,3.311,3.2,9.846,9.846,0,0,0,1.85,4.965,7.078,7.078,0,0,0,3.061,6.313a7.167,7.167,0,0,0,1.5.994,7.607,7.607,0,0,0,1.744.607A8.34,8.34,0,0,0,8.233,8.1Z" transform="translate(33.673 47.759)" fill="#253368"/>
      <path id="Tracé_18165" data-name="Tracé 18165" d="M4.753,7.3a3.71,3.71,0,0,0,1.373-.3,4.238,4.238,0,0,0,1.19-.773A4.308,4.308,0,0,0,8.2,5.1a3.873,3.873,0,0,0,.441-1.357,3.241,3.241,0,0,0-.1-1.337,2.8,2.8,0,0,0-.595-1.071A2.75,2.75,0,0,0,6.95.63,3.1,3.1,0,0,0,5.657.4,3.717,3.717,0,0,0,4.3.707a4.239,4.239,0,0,0-1.177.763,4.311,4.311,0,0,0-.874,1.108A3.886,3.886,0,0,0,1.8,3.921a3.257,3.257,0,0,0,.086,1.334,2.813,2.813,0,0,0,.582,1.082,2.745,2.745,0,0,0,.987.718,3.088,3.088,0,0,0,1.3.243Z" transform="translate(38.133 41.465)" fill="#253368"/>
      <path id="Tracé_18166" data-name="Tracé 18166" d="M93.734.028a.525.525,0,0,1,.185.031.5.5,0,0,1,.154.089.447.447,0,0,1,.108.134.4.4,0,0,1,.045.165A.379.379,0,0,1,94.2.605a.4.4,0,0,1-.087.133.454.454,0,0,1-.135.094.5.5,0,0,1-.169.044l-.035,0L.492,2.19a.384.384,0,0,1-.152-.029.35.35,0,0,1-.121-.082.345.345,0,0,1-.075-.123A.37.37,0,0,1,.124,1.8a.411.411,0,0,1,.04-.147.446.446,0,0,1,.088-.123.456.456,0,0,1,.123-.087.433.433,0,0,1,.148-.04H.553Z" transform="translate(78.635 55.375)" fill="#fff"/>
      <path id="Tracé_18167" data-name="Tracé 18167" d="M3.711.053A.412.412,0,0,1,3.86.075a.366.366,0,0,1,.121.07.335.335,0,0,1,.082.108A.33.33,0,0,1,4.095.39V.418L.966,59.709a.456.456,0,0,1-.044.173.466.466,0,0,1-.1.139.458.458,0,0,1-.144.092.438.438,0,0,1-.173.031.416.416,0,0,1-.29-.125.423.423,0,0,1-.088-.132.431.431,0,0,1-.033-.162v-.033L3.288.444A.376.376,0,0,1,3.328.3.428.428,0,0,1,3.421.172.457.457,0,0,1,3.553.087.444.444,0,0,1,3.711.053Z" transform="translate(96.094 36.325)" fill="#fff"/>
      <path id="Tracé_18168" data-name="Tracé 18168" d="M1.7.055a.44.44,0,0,1,.156.022.4.4,0,0,1,.129.072.365.365,0,0,1,.091.11A.343.343,0,0,1,2.116.4V.427L.952,61.031a.454.454,0,0,1-.465.444.459.459,0,0,1-.31-.128.453.453,0,0,1-.1-.135.442.442,0,0,1-.04-.166v-.034L1.273.454A.368.368,0,0,1,1.309.3.416.416,0,0,1,1.4.177.458.458,0,0,1,1.537.091.469.469,0,0,1,1.7.055Z" transform="translate(122.003 35.54)" fill="#fff"/>
      <path id="Tracé_18169" data-name="Tracé 18169" d="M.456.057A.479.479,0,0,1,.62.08.438.438,0,0,1,.756.153a.391.391,0,0,1,.1.112A.356.356,0,0,1,.9.406V.436l.913,61.928a.441.441,0,0,1-.134.326.455.455,0,0,1-.15.1.477.477,0,0,1-.186.033.5.5,0,0,1-.328-.132.491.491,0,0,1-.106-.139.467.467,0,0,1-.049-.169l0-.035L.021.464A.36.36,0,0,1,.053.31.405.405,0,0,1,.146.182.459.459,0,0,1,.285.094.489.489,0,0,1,.456.057Z" transform="translate(147.315 34.749)" fill="#fff"/>
      <path id="Tracé_18170" data-name="Tracé 18170" d="M96.292.282a.533.533,0,0,1,.191.036.525.525,0,0,1,.159.1.485.485,0,0,1,.111.143A.434.434,0,0,1,96.8.734.407.407,0,0,1,96.773.9a.417.417,0,0,1-.089.139.456.456,0,0,1-.139.1.5.5,0,0,1-.175.043h-.036L.506.835A.387.387,0,0,1,.349.8.367.367,0,0,1,.225.713.374.374,0,0,1,.148.581.4.4,0,0,1,.13.42.438.438,0,0,1,.17.266.461.461,0,0,1,.389.049.429.429,0,0,1,.542.009h.03Z" transform="translate(77.071 76.093)" fill="#fff"/>
    </g>
    <g id="Groupe_2880" data-name="Groupe 2880" transform="translate(97.971 -4)">
      <g id="Groupe_2486" data-name="Groupe 2486" transform="translate(405.422 1527.079)">
        <path id="Tracé_12593" data-name="Tracé 12593" d="M135.315,581.937c1.786-17.36,3.809-35.288,5.745-49.511,0,0,3.15-10.106,12.384-7.262,9.053,2.789,7.7,14.469,7.7,14.469L151.806,585.1s-1.6,7.389-9.819,5.661C134.492,589.189,135.315,581.937,135.315,581.937Z" transform="translate(-102.486 -399.005)" fill="#597ef7" fill-rule="evenodd"/>
        <path id="Tracé_12594" data-name="Tracé 12594" d="M152.077,753.1a5.169,5.169,0,0,1,6.77,4.465c.329,3.826.8,8.992,1.38,14.549.6,5.719,1.082,10.459.746,11.109-1.479,2.864-4.957,4.284-8.335,7.352-2.673,2.428-3.058,3.475-6.7,4.624-5.163,1.628-2.971-.911,2.038-8.707,4.462-6.946,3.753-9.865,3.753-9.865L148.6,758.911A5.173,5.173,0,0,1,152.077,753.1Z" transform="translate(-106.759 -525.747)" fill="#c99382" fill-rule="evenodd"/>
        <path id="Tracé_12595" data-name="Tracé 12595" d="M146.274,815.583c-3.3,4.7-7.272,8.584-6.922,10.586s2.157,3.629,8.446.5c4.3-2.139,2.9-2.948,6.854-6.26,1.975-1.654,2.775-1.6,4.555-3.46.956-1.593-.408-8.607-.408-8.607l-6.525,9.151s1.491-4.075-.216-4.713-3.255-1.025-4.121-.229A10.061,10.061,0,0,0,146.274,815.583Z" transform="translate(-104.731 -556.579)" fill="#7d4556" fill-rule="evenodd"/>
        <path id="Tracé_12596" data-name="Tracé 12596" d="M135.025,650.722c5.292,29.746,11.007,60.816,11.007,60.816l10.622-2.442-4.726-60.162s-1.86-8.895-10.181-7.76C134.24,642.2,135.025,650.722,135.025,650.722Z" transform="translate(-102.327 -463.668)" fill="#597ef7" fill-rule="evenodd"/>
        <path id="Tracé_12597" data-name="Tracé 12597" d="M213.865,588.864c-7.438-15.787-14.967-32.183-20.657-45.362,0,0-2.523-10.28,6.854-12.615,9.191-2.289,14.065,8.413,14.065,8.413l15.5,43.757s2.445,7.154-5.483,9.919C216.907,595.5,213.865,588.864,213.865,588.864Z" transform="translate(-134.486 -402.286)" fill="#597ef7" fill-rule="evenodd"/>
        <path id="Tracé_12598" data-name="Tracé 12598" d="M346.6,608.44a5.169,5.169,0,0,1,3.066-7.508c3.689-1.065,8.666-2.529,14-4.177,5.493-1.7,10.05-3.093,10.753-2.89,3.1.895,5.164,4.031,8.83,6.749,2.9,2.151,4,2.325,5.837,5.676,2.6,4.748-.317,3.091-8.938-.309-7.679-3.029-10.405-1.766-10.405-1.766l-16.771,6.506A5.173,5.173,0,0,1,346.6,608.44Z" transform="translate(-219.485 -437.434)" fill="#c99382" fill-rule="evenodd"/>
        <path id="Tracé_12599" data-name="Tracé 12599" d="M407.018,604.879c5.255,2.328,9.832,5.468,11.728,4.736s3.142-2.821-1.146-8.383c-2.934-3.807-3.455-2.273-7.472-5.509-2.006-1.616-2.106-2.411-4.277-3.8C404.1,591.3,397.486,594,397.486,594l10.244,4.625s-4.286-.672-4.581,1.127-.373,3.393.576,4.087A10.062,10.062,0,0,0,407.018,604.879Z" transform="translate(-248.125 -436.315)" fill="#7d4556" fill-rule="evenodd"/>
        <path id="Tracé_12600" data-name="Tracé 12600" d="M250,631.451c28.153-10.966,57.523-22.6,57.523-22.6l-4.458-9.945-58.1,16.316s-8.365,3.552-5.636,11.493C241.792,633.876,250,631.451,250,631.451Z" transform="translate(-159.973 -440.243)" fill="#597ef7" fill-rule="evenodd"/>
        <path id="Tracé_12601" data-name="Tracé 12601" d="M189.433,355.769l-.476-9.96-13.211.008-.323,10.022a6.9,6.9,0,0,0,6.82,7.155l.222,0A6.9,6.9,0,0,0,189.433,355.769Z" transform="translate(-124.776 -299.662)" fill="#c99382" fill-rule="evenodd"/>
        <path id="Tracé_12602" data-name="Tracé 12602" d="M188.113,523.668c-1.064-11.265-2.718-16.518-3.982-18.634-27.15.776-33.914.419-33.914.419s-2.324,6.574-2.658,19.8c0,0,9.489,11.684,20.277,11.684C177.562,536.936,188.113,523.668,188.113,523.668Z" transform="translate(-109.302 -388.104)" fill="#597ef7" fill-rule="evenodd"/>
        <path id="Tracé_12603" data-name="Tracé 12603" d="M187.453,498.649l-.513-5.109-33.246.4-.155,5.117S171.134,499.733,187.453,498.649Z" transform="translate(-112.623 -381.72)" fill="#597ef7" fill-rule="evenodd"/>
        <path id="Tracé_12604" data-name="Tracé 12604" d="M186.292,506.748a.256.256,0,0,1,.25.261l-.02,1.2c-.005.344-.01.715-.015,1.111-.057,4.771-.052,9.9.06,14.717l.036,1.388a110.009,110.009,0,0,0,.813,11.923.256.256,0,1,1-.506.075,119.885,119.885,0,0,1-.854-13.374c-.1-4.42-.116-9.1-.072-13.534l.031-2.517.017-1A.256.256,0,0,1,186.292,506.748Z" transform="translate(-130.632 -389.056)" fill="#253368"/>
        <path id="Tracé_12605" data-name="Tracé 12605" d="M191.306,506.994a.256.256,0,0,1,.255.257v1.616c0,.766.008,1.636.018,2.585.025,2.44.074,4.85.152,7.1l.036.984c.105,2.684.25,4.944.439,6.661l.046.4v.051a3.813,3.813,0,0,1-2.816,3.544,7.156,7.156,0,0,1-2.616.325l-.124-.008-.025,0a.256.256,0,0,1,.011-.51h.042l.047,0,.078.005a6.677,6.677,0,0,0,2.426-.3,3.3,3.3,0,0,0,2.453-2.955l.011-.12-.02-.172c-.209-1.823-.366-4.281-.477-7.228l-.024-.663c-.07-2.032-.117-4.191-.144-6.383l-.018-1.833c-.005-.707-.008-1.357-.009-1.936v-1.172A.256.256,0,0,1,191.306,506.994Z" transform="translate(-130.901 -389.193)" fill="#253368"/>
        <path id="Tracé_12606" data-name="Tracé 12606" d="M222.83,507.235a.256.256,0,0,1,.26.252l.006.179c0,.06.006.13.01.21.018.313.046.663.088,1.04a17.956,17.956,0,0,0,.618,3.153c.686,2.295,1.782,3.838,3.352,4.314a.256.256,0,1,1-.148.489c-1.773-.537-2.964-2.215-3.695-4.657a18.5,18.5,0,0,1-.636-3.243c-.034-.309-.06-.6-.078-.87l-.012-.2c-.011-.194-.016-.334-.017-.41A.256.256,0,0,1,222.83,507.235Z" transform="translate(-150.971 -389.326)" fill="#253368"/>
        <path id="Tracé_12607" data-name="Tracé 12607" d="M155.761,508.566a.255.255,0,0,1,.254.212l0,.042v.089c0,.339-.016.836-.058,1.439a22.5,22.5,0,0,1-.413,3.087c-.545,2.577-1.509,4.283-3.04,4.68a.256.256,0,0,1-.128-.5c1.281-.332,2.16-1.887,2.668-4.29a22.012,22.012,0,0,0,.4-3.016l.026-.423c.021-.4.03-.736.031-.982v-.085A.255.255,0,0,1,155.761,508.566Z" transform="translate(-111.873 -390.066)" fill="#253368"/>
        <path id="Tracé_12608" data-name="Tracé 12608" d="M173.335,571.013a.256.256,0,0,1,.343-.114l.206.1.216.1.24.108.129.057c.628.276,1.318.551,2.047.809a21.556,21.556,0,0,0,4.058,1.043,9.742,9.742,0,0,0,3.082.012.256.256,0,0,1,.091.5,10.213,10.213,0,0,1-3.245-.009,22.041,22.041,0,0,1-4.156-1.067c-.636-.225-1.242-.463-1.8-.7l-.277-.12q-.2-.089-.377-.169l-.411-.194-.028-.013A.256.256,0,0,1,173.335,571.013Z" transform="translate(-123.604 -424.674)" fill="#253368"/>
        <path id="Tracé_12609" data-name="Tracé 12609" d="M217.428,315.157s3.374-3.84,5.332-.208c1.861,3.451-1.971,8.161-5.219,7.214C216.121,318.931,217.428,315.157,217.428,315.157Z" transform="translate(-147.806 -281.653)" fill="#c99382" fill-rule="evenodd"/>
        <path id="Tracé_12610" data-name="Tracé 12610" d="M157.942,315.157s-3.374-3.84-5.333-.208c-1.861,3.451,1.971,8.161,5.219,7.214C159.249,318.931,157.942,315.157,157.942,315.157Z" transform="translate(-111.836 -281.653)" fill="#c99382" fill-rule="evenodd"/>
        <path id="Tracé_12611" data-name="Tracé 12611" d="M188.12,300.691c0,11.93-5.926,15.084-13.236,15.084s-12.735-3.029-13.236-15.084c-.461-11.091,5.927-14.814,13.236-14.814S188.12,290.217,188.12,300.691Z" transform="translate(-117.114 -266.372)" fill="#c99382" fill-rule="evenodd"/>
        <path id="Tracé_12612" data-name="Tracé 12612" d="M193.83,316.639a4.363,4.363,0,1,0,4.31-4.415A4.363,4.363,0,0,0,193.83,316.639Z" transform="translate(-135.003 -281.007)" fill="#fff" fill-rule="evenodd"/>
        <path id="Tracé_12613" data-name="Tracé 12613" d="M197.753,311.533a4.67,4.67,0,1,0,4.726,4.614A4.671,4.671,0,0,0,197.753,311.533Zm.008.615a4.055,4.055,0,1,1-4.007,4.1A4.056,4.056,0,0,1,197.76,312.147Z" transform="translate(-134.619 -280.623)" fill="#7d4556"/>
        <path id="Tracé_12614" data-name="Tracé 12614" d="M200.481,320.16a.307.307,0,0,1-.609.007l0-.041a2.458,2.458,0,0,1,.19-.938,1.532,1.532,0,0,1,1.479-1,1.655,1.655,0,0,1,1.554.9,2.255,2.255,0,0,1,.273.862.307.307,0,1,1-.612.054l-.007-.054c-.006-.034-.015-.079-.028-.132a1.771,1.771,0,0,0-.165-.434,1.046,1.046,0,0,0-1.008-.582.926.926,0,0,0-.918.627,1.894,1.894,0,0,0-.124.471l-.012.109c0,.032,0,.06-.005.084v.031Z" transform="translate(-138.357 -284.317)" fill="#7d4556"/>
        <path id="Tracé_12615" data-name="Tracé 12615" d="M171.018,308.428c1.348-.854,3.353-.854,6.087.513a.307.307,0,0,1-.275.55c-2.551-1.275-4.329-1.275-5.483-.544a2.246,2.246,0,0,0-.4.319l-.06.064a.68.68,0,0,0-.048.059.307.307,0,1,1-.507-.347A2.389,2.389,0,0,1,171.018,308.428Z" transform="translate(-121.921 -278.572)" fill="#7d4556"/>
        <path id="Tracé_12616" data-name="Tracé 12616" d="M199.724,307.637a4.089,4.089,0,0,1,2.232.442.307.307,0,0,1-.3.537,3.492,3.492,0,0,0-1.9-.365,8.321,8.321,0,0,0-2.421.554c-.265.1-.516.2-.748.31l-.171.08c-.166.079-.284.14-.344.173a.307.307,0,1,1-.3-.538l.122-.064c.051-.026.112-.056.181-.09l.073-.035c.294-.14.619-.28.967-.41A8.9,8.9,0,0,1,199.724,307.637Z" transform="translate(-135.996 -278.454)" fill="#7d4556"/>
        <path id="Tracé_12617" data-name="Tracé 12617" d="M187.156,313.5a.25.25,0,0,1,.336.109l.056.115q.034.074.08.178c.1.229.2.485.29.763a7.3,7.3,0,0,1,.414,2.7,7.227,7.227,0,0,1-.305,1.634l-.237.806c-.2.7-.207.827-.141,1.069.1.36.535.591,1.556.7a.25.25,0,1,1-.054.5c-1.2-.131-1.818-.456-1.985-1.068l-.021-.079c-.088-.354-.056-.525.272-1.629l.075-.251a7.236,7.236,0,0,0,.341-1.711,6.824,6.824,0,0,0-.39-2.515c-.07-.211-.144-.408-.219-.59l-.056-.133c-.056-.128-.1-.219-.122-.265A.25.25,0,0,1,187.156,313.5Z" transform="translate(-131.22 -281.699)" fill="#7d4556"/>
        <path id="Tracé_12618" data-name="Tracé 12618" d="M189.557,334.192a.263.263,0,1,1,.132.509,14.05,14.05,0,0,1-5.743.2c-.215-.035-.412-.072-.589-.109l-.245-.054-.151-.037a.263.263,0,1,1,.138-.507l.241.058c.2.045.432.089.69.131A13.543,13.543,0,0,0,189.557,334.192Z" transform="translate(-128.858 -293.204)" fill="#7d4556"/>
        <path id="Tracé_12619" data-name="Tracé 12619" d="M169.054,316.639a4.363,4.363,0,1,0,4.309-4.415A4.361,4.361,0,0,0,169.054,316.639Z" transform="translate(-121.241 -281.007)" fill="#fff" fill-rule="evenodd"/>
        <path id="Tracé_12620" data-name="Tracé 12620" d="M172.976,311.533a4.67,4.67,0,1,0,4.726,4.614A4.67,4.67,0,0,0,172.976,311.533Zm.008.615a4.055,4.055,0,1,1-4.006,4.1A4.056,4.056,0,0,1,172.983,312.147Z" transform="translate(-120.857 -280.623)" fill="#7d4556"/>
        <path id="Tracé_12621" data-name="Tracé 12621" d="M175.7,320.16a.307.307,0,0,1-.609.007l0-.041a2.452,2.452,0,0,1,.19-.938,1.532,1.532,0,0,1,1.479-1,1.655,1.655,0,0,1,1.554.9,2.265,2.265,0,0,1,.273.862.307.307,0,0,1-.606.1l-.014-.1c-.006-.035-.015-.08-.027-.132a1.788,1.788,0,0,0-.165-.434,1.046,1.046,0,0,0-1.007-.582.927.927,0,0,0-.919.627,1.894,1.894,0,0,0-.124.471l-.012.109c0,.032,0,.06-.005.084v.031Z" transform="translate(-124.594 -284.317)" fill="#7d4556"/>
        <path id="Tracé_12622" data-name="Tracé 12622" d="M188.756,317.755a2.746,2.746,0,0,1,1.931.039q.087.037.171.08l.084.045-.3.535a1.832,1.832,0,0,0-.19-.093,2.156,2.156,0,0,0-1.506-.02,2.375,2.375,0,0,0-.269.1l-.03.015-.286-.545A2.631,2.631,0,0,1,188.756,317.755Z" transform="translate(-131.964 -283.992)" fill="#7d4556"/>
        <path id="Tracé_12623" data-name="Tracé 12623" d="M190.112,350.047a.25.25,0,0,1,.189.463,17.981,17.981,0,0,1-12.807.161.25.25,0,0,1,.163-.473A17.5,17.5,0,0,0,190.112,350.047Z" transform="translate(-125.836 -302.005)" fill="#7d4556"/>
        <path id="Tracé_12624" data-name="Tracé 12624" d="M190.577,339.725a.25.25,0,0,1,.04.5l-.04,0h-1.971a.25.25,0,0,1-.041-.5l.041,0Z" transform="translate(-131.963 -296.282)" fill="#7d4556"/>
        <path id="Tracé_12625" data-name="Tracé 12625" d="M190.506,345.849a.251.251,0,0,1,.247.21l0,.04v2.722a.25.25,0,0,1-.5.041l0-.041V346.1A.25.25,0,0,1,190.506,345.849Z" transform="translate(-133.018 -299.684)" fill="#7d4556"/>
        <path id="Tracé_12626" data-name="Tracé 12626" d="M193.007,347.541a.25.25,0,0,1,.273.174l.008.04.282,2.065a.25.25,0,0,1-.487.108l-.009-.04-.282-2.065A.249.249,0,0,1,193.007,347.541Z" transform="translate(-134.426 -300.623)" fill="#7d4556"/>
        <path id="Tracé_12627" data-name="Tracé 12627" d="M186.931,349.019a.25.25,0,0,1,.212.244l0,.041-.188,1.221a.25.25,0,0,1-.5-.036l0-.04.188-1.221a.25.25,0,0,1,.244-.212Z" transform="translate(-130.907 -301.443)" fill="#7d4556"/>
        <path id="Tracé_12628" data-name="Tracé 12628" d="M195.3,348.6a.25.25,0,0,1,.292.139l.014.038.375,1.408a.25.25,0,0,1-.47.167l-.014-.038-.375-1.408A.25.25,0,0,1,195.3,348.6Z" transform="translate(-135.716 -301.209)" fill="#7d4556"/>
        <path id="Tracé_12629" data-name="Tracé 12629" d="M154.227,318.717c.552-.655,1.282-.655,1.971.416a1.87,1.87,0,0,1,.012,1.672l-.139.326a.883.883,0,0,0,.107.967,1.062,1.062,0,0,0,.247.264.863.863,0,0,0,.483.188.25.25,0,1,1,0,.5,1.34,1.34,0,0,1-.783-.288,1.573,1.573,0,0,1-.364-.387,1.353,1.353,0,0,1-.188-1.342l.071-.179.062-.142a1.428,1.428,0,0,0,.053-1.344c-.478-.739-.8-.739-1.15-.329a1.478,1.478,0,0,0-.2.3.25.25,0,0,1-.453-.213A1.943,1.943,0,0,1,154.227,318.717Z" transform="translate(-112.844 -284.364)" fill="#7d4556"/>
        <path id="Tracé_12630" data-name="Tracé 12630" d="M222.088,319.094c.669-1.035,1.4-1.035,1.952-.38a1.962,1.962,0,0,1,.268.409.25.25,0,0,1-.453.213,1.5,1.5,0,0,0-.2-.3c-.345-.409-.672-.409-1.131.294a1.394,1.394,0,0,0-.007,1.281l.141.331a1.37,1.37,0,0,1-.155,1.431,1.563,1.563,0,0,1-.363.387,1.342,1.342,0,0,1-.784.288.25.25,0,0,1,0-.5.865.865,0,0,0,.484-.188,1.063,1.063,0,0,0,.247-.264.866.866,0,0,0,.134-.9l-.061-.154-.06-.136A1.931,1.931,0,0,1,222.088,319.094Z" transform="translate(-150.155 -284.36)" fill="#7d4556"/>
        <path id="Tracé_12631" data-name="Tracé 12631" d="M158.2,297.844a4.853,4.853,0,0,1-1-4.756c-1.752-3.129-.625-6.133,1-7.26-.5-2.753,1.377-7.635,5.257-8.136a17.305,17.305,0,0,0,5.007,1s6.508-3.755,11.014.751c4.631-.5,7.01,4.756,6.634,6.634,2.5,3.129.5,7.885.5,7.885a29.308,29.308,0,0,1-1.126,4.381c-.877,2.629-1.252-.751-1.252-1.5s-1.877-1.377-1.251-4.757a3.925,3.925,0,0,1-1.658-3.817s-1.534,1.564-5.914-.564c-3.13,2.629-7.886,0-7.886,0s-3.848,1.846-6.1.469c0,0,.625,1.877-1.126,4.506.626,2.5-1.221,3.661-.72,5.163S158.7,300.849,158.2,297.844Z" transform="translate(-114.163 -261.568)" fill="#7d4556" fill-rule="evenodd"/>
        <path id="Tracé_12632" data-name="Tracé 12632" d="M214.341,385.222s-7.515,5.537-12.471-1.432c-5.053-7.107,2.769-12.413,2.769-12.413s5.183-3.942,11.609-8.512c5.021-3.57,8.86-6.33,12.292-8.309,3.7-2.135,8.413-1.452,10.734,1.812,3.527,4.961,1.976,9.149-1.375,11.768-3.257,2.546-7.758,5.847-11.411,8.574C219.466,381.955,214.341,385.222,214.341,385.222Z" transform="translate(-138.525 -303.839)" fill="#adc6ff" fill-rule="evenodd"/>
        <path id="Tracé_12633" data-name="Tracé 12633" d="M291.833,254.574s-.447,8.1-3.976,9.552c-3.2,1.31-5.421-2.542-5.421-2.542a31.12,31.12,0,0,1-1.96-7.072c-.369-2.532-1.789-7.24-.544-7.777,1.624-.7,2.29,4.35,3.534,4.679,2.519.666,2.308-7.39,2.975-8.714C287.745,240.111,292.443,244.857,291.833,254.574Z" transform="translate(-182.551 -242.001)" fill="#c99382" fill-rule="evenodd"/>
        <path id="Tracé_12634" data-name="Tracé 12634" d="M297.251,243.468a.251.251,0,0,1,.293.2q.037.192.068.388a16.754,16.754,0,0,1-.216,5.844c-.069.345-.142.665-.216.954l-.044.17c-.053.2-.1.344-.12.421a.25.25,0,0,1-.477-.152l.054-.182c.017-.06.037-.132.059-.215.086-.324.173-.691.253-1.094a16.278,16.278,0,0,0,.212-5.667q-.03-.187-.065-.371A.25.25,0,0,1,297.251,243.468Z" transform="translate(-192.047 -242.814)" fill="#9b6160"/>
        <path id="Tracé_12635" data-name="Tracé 12635" d="M301.431,245.852a.25.25,0,0,1,.3.185l.032.155.011.058c.032.169.063.368.092.594a21.073,21.073,0,0,1-.39,7.013.25.25,0,0,1-.489-.1,20.577,20.577,0,0,0,.383-6.845c-.022-.174-.046-.33-.07-.467l-.037-.2c-.008-.041-.015-.072-.019-.089A.25.25,0,0,1,301.431,245.852Z" transform="translate(-194.522 -244.137)" fill="#9b6160"/>
        <path id="Tracé_12636" data-name="Tracé 12636" d="M304.92,253.788a.25.25,0,0,1,.261.239,25.356,25.356,0,0,1-.182,4.685l-.048.311q-.037.221-.075.409l-.025.122c-.031.144-.055.241-.07.293a.25.25,0,0,1-.481-.137l.036-.144.026-.117c.048-.224.1-.494.142-.808a24.869,24.869,0,0,0,.177-4.591A.25.25,0,0,1,304.92,253.788Z" transform="translate(-196.358 -248.548)" fill="#9b6160"/>
        <path id="Tracé_12637" data-name="Tracé 12637" d="M258.359,322.041s-1.688,9.431,6.147,11.1c8.08,1.721,10.119-7.251,10.119-7.251s1.279-6.349,2.889-14.166a97.028,97.028,0,0,0,2.124-14.009c.174-4.27-2.035-5.168-5.952-6-4.652-.991-6.675-.927-8.14,3.065-1.395,3.807-2.595,9.135-3.711,13.223C259.705,315.793,258.359,322.041,258.359,322.041Z" transform="translate(-170.761 -269.318)" fill="#adc6ff" fill-rule="evenodd"/>
        <path id="Tracé_12638" data-name="Tracé 12638" d="M290.683,285.2l-9.059-1.93-1.956,5.983,10.363,2.207Z" transform="translate(-182.682 -264.926)" fill="#adc6ff" fill-rule="evenodd"/>
        <path id="Tracé_12639" data-name="Tracé 12639" d="M103.243,385.222s7.516,5.537,12.472-1.432c5.053-7.107-2.77-12.413-2.77-12.413s-5.183-3.942-11.609-8.512c-5.022-3.57-8.86-6.33-12.291-8.309-3.7-2.135-8.413-1.452-10.735,1.812-3.527,4.961-1.976,9.149,1.374,11.768,3.257,2.546,7.759,5.847,11.411,8.574C98.119,381.955,103.243,385.222,103.243,385.222Z" transform="translate(-69.724 -303.839)" fill="#adc6ff" fill-rule="evenodd"/>
        <path id="Tracé_12640" data-name="Tracé 12640" d="M61.554,254.574s.447,8.1,3.976,9.552c3.2,1.31,5.421-2.542,5.421-2.542a31.1,31.1,0,0,0,1.96-7.072c.369-2.532,1.789-7.24.544-7.777-1.624-.7-2.29,4.35-3.533,4.679-2.52.666-2.309-7.39-2.975-8.714C65.642,240.111,60.944,244.857,61.554,254.574Z" transform="translate(-61.5 -242.001)" fill="#c99382" fill-rule="evenodd"/>
        <path id="Tracé_12641" data-name="Tracé 12641" d="M70.137,243.469a.249.249,0,0,1,.2.292q-.035.184-.065.371a16.279,16.279,0,0,0,.212,5.667c.067.337.138.647.21.929l.043.165c.051.193.091.328.113.4a.25.25,0,0,1-.476.152l-.041-.135c-.022-.075-.049-.171-.079-.286-.089-.334-.178-.711-.261-1.125a16.759,16.759,0,0,1-.215-5.844q.031-.2.068-.388a.251.251,0,0,1,.252-.2Z" transform="translate(-66.005 -242.814)" fill="#9b6160"/>
        <path id="Tracé_12642" data-name="Tracé 12642" d="M66.241,245.852a.25.25,0,0,1,.185.3l-.038.188-.036.206c-.018.11-.035.23-.052.361a20.575,20.575,0,0,0,.383,6.845.25.25,0,0,1-.489.1,21.067,21.067,0,0,1-.39-7.013c.023-.181.048-.345.073-.489l.04-.213c.009-.047.017-.081.023-.1a.25.25,0,0,1,.261-.191Z" transform="translate(-63.814 -244.137)" fill="#9b6160"/>
        <path id="Tracé_12643" data-name="Tracé 12643" d="M62.878,253.788a.25.25,0,0,1,.239.261,24.887,24.887,0,0,0,.178,4.591c.038.261.078.493.118.692l.05.233c.016.068.028.116.036.144a.25.25,0,0,1-.481.137l-.029-.112c-.012-.049-.026-.109-.041-.181-.051-.236-.1-.517-.148-.842a25.376,25.376,0,0,1-.182-4.685A.25.25,0,0,1,62.878,253.788Z" transform="translate(-62.103 -248.548)" fill="#9b6160"/>
        <path id="Tracé_12644" data-name="Tracé 12644" d="M83.8,322.041s1.688,9.431-6.147,11.1c-8.08,1.721-10.119-7.251-10.119-7.251s-1.279-6.349-2.889-14.166a97.053,97.053,0,0,1-2.124-14.009c-.174-4.27,2.035-5.168,5.952-6,4.652-.991,6.676-.927,8.14,3.065,1.395,3.807,2.594,9.135,3.712,13.223C82.455,315.793,83.8,322.041,83.8,322.041Z" transform="translate(-62.063 -269.318)" fill="#adc6ff" fill-rule="evenodd"/>
        <path id="Tracé_12645" data-name="Tracé 12645" d="M64.5,285.2l9.059-1.93,1.956,5.983-10.363,2.207Z" transform="translate(-63.168 -264.926)" fill="#adc6ff" fill-rule="evenodd"/>
        <path id="Tracé_12646" data-name="Tracé 12646" d="M170.742,370.7l-.843-2.431-16.392.447-.659,2.3s-12.915-1.715-14.881,3.2c-2.028,5.072,4.635,34.367,4.75,40.552-2.79,7.386,1.264,9.639,1.264,9.639l33.246-.4s3.806-2.521.548-7.6c1.334-9.08,10.429-40.367,6.565-43.529C178.462,368.074,170.742,370.7,170.742,370.7Z" transform="translate(-103.761 -312.136)" fill="#adc6ff" fill-rule="evenodd"/>
        <path id="Tracé_12647" data-name="Tracé 12647" d="M141.339,397.94a.25.25,0,0,1,.229.27,58.292,58.292,0,0,0,.37,9.741l.033.327c.188,1.834.424,3.77.7,5.767.258,1.9.536,3.747.813,5.473l.232,1.418.137.8a.25.25,0,1,1-.493.087l-.1-.594-.227-1.375-.041-.256c-.278-1.729-.555-3.582-.814-5.484-.273-2-.509-3.944-.7-5.783l-.066-.656a57.324,57.324,0,0,1-.338-9.505A.25.25,0,0,1,141.339,397.94Z" transform="translate(-105.651 -328.618)" fill="#597ef7"/>
        <path id="Tracé_12648" data-name="Tracé 12648" d="M189.055,374.46a.25.25,0,0,1,.134.482,26.965,26.965,0,0,1-5.1.834,55.317,55.317,0,0,1-8.781-.1l-.488-.043c-.316-.029-.615-.059-.893-.09l-.541-.062-.249-.032a.25.25,0,1,1,.068-.5l.345.043.229.026c.464.053.991.105,1.571.154a54.9,54.9,0,0,0,8.7.1A26.5,26.5,0,0,0,189.055,374.46Z" transform="translate(-123.387 -315.571)" fill="#597ef7"/>
        <path id="Tracé_12649" data-name="Tracé 12649" d="M184.944,493.866a.256.256,0,0,1,.041.508l-.041,0H151.6a.256.256,0,0,1-.042-.508l.042,0Z" transform="translate(-111.406 -381.901)" fill="#253368"/>
        <path id="Tracé_12650" data-name="Tracé 12650" d="M187.111,505.866a.256.256,0,0,1,.041.508l-.041,0H153.1a.256.256,0,0,1-.042-.508l.042,0Z" transform="translate(-112.239 -388.566)" fill="#253368"/>
      </g>
      <g id="Groupe_86" data-name="Groupe 86" transform="matrix(-0.998, 0.07, -0.07, -0.998, 485.196, 1553.113)">
        <path id="Tracé_18171" data-name="Tracé 18171" d="M1.8,5.178,0,3.325V.867A.868.868,0,0,1,.867,0H2.742A.867.867,0,0,1,3.61.867V3.325Z" transform="translate(34.788 0)" fill="#597ef7" fill-rule="evenodd"/>
        <path id="Tracé_18172" data-name="Tracé 18172" d="M.542,0A.541.541,0,0,0,0,.542V18.255a.542.542,0,1,0,1.084,0V.542A.542.542,0,0,0,.542,0Z" transform="translate(36.128 3.68)" fill="#253368" fill-rule="evenodd"/>
        <path id="Tracé_18173" data-name="Tracé 18173" d="M0,11.655V3.28C0,2.208,2.108,1.508,2.108,1.508a38.056,38.056,0,0,1,21.21,0s2.108.7,2.108,1.773v8.375c0-.074-12.713-2.763-12.713-2.763S0,11.581,0,11.655Z" transform="translate(9.912 4.256)" fill="#597ef7" fill-rule="evenodd"/>
        <path id="Tracé_18174" data-name="Tracé 18174" d="M0,6.442,22.687,0,45.025,6.442,22.338,12.954Z" transform="translate(0 12.584)" fill="#e4ebf7" fill-rule="evenodd"/>
        <path id="Tracé_18175" data-name="Tracé 18175" d="M0,7.641v-.6A.868.868,0,0,1,.632,6.2L22.692,0l0,1.2Z" transform="translate(0 11.386)" fill="#253368" fill-rule="evenodd"/>
        <path id="Tracé_18176" data-name="Tracé 18176" d="M0,0,21.714,6.368a.867.867,0,0,1,.623.832v.432L0,1.19Z" transform="translate(22.688 11.394)" fill="#253368" fill-rule="evenodd"/>
        <path id="Tracé_18177" data-name="Tracé 18177" d="M1.671,0C.748,0,0,.342,0,.764s.748.764,1.672.764S3.343,1.185,3.343.764,2.6,0,1.671,0Z" transform="translate(20.544 18.566)" fill="#fff" fill-rule="evenodd"/>
        <path id="Tracé_18178" data-name="Tracé 18178" d="M.541,0A.542.542,0,0,0,.349,1.049L10.423,4.875a.543.543,0,0,0,.334.017l4.38-1.183a.542.542,0,1,0-.283-1.047L10.643,3.8.733.035A.534.534,0,0,0,.541,0Z" transform="translate(21.674 18.791)" fill="#597ef7" fill-rule="evenodd"/>
        <path id="Tracé_18179" data-name="Tracé 18179" d="M2.776.555C2.776.249,2.154,0,1.388,0S0,.249,0,.555s.621.555,1.388.555S2.776.862,2.776.555Z" transform="translate(20.828 18.778)" fill="#597ef7" fill-rule="evenodd"/>
      </g>
    </g>
    <g id="Groupe_2881" data-name="Groupe 2881" transform="translate(-126.029 -1)">
      <g id="Groupe_2844" data-name="Groupe 2844" transform="translate(487.27 1547.583)">
        <path id="Tracé_14946" data-name="Tracé 14946" d="M3837.278,1428.432a7.809,7.809,0,0,0-8.07,6.949c-6.387,2.964-3.969,10-3.969,10s-2.827,5.936,4,8.262c1.03,5.744,7.517,4.127,7.517,4.127s1.963,4.339,6.807,2.063c5.757,3.731,15.854,2.013,19.022-3.431,7.62,4.727,19.513-2.868,17.529-7.612,8.316-1.23,11.605-10.447,6.057-17.554,3.251-6.286-1.342-9.429-1.342-9.429s0-13.79-9.63-14.816c-5.506-6.949-15.524-.116-15.524-.116s-7.1-.846-9.075,5.423c-7.691,1.868-6.953,6.12-7.245,9.771C3836.415,1423.071,3837.278,1428.432,3837.278,1428.432Z" transform="translate(-3775.312 -1403.878)" fill="#253368" fill-rule="evenodd"/>
        <path id="Tracé_14947" data-name="Tracé 14947" d="M3905.2,1431.935c5.544.492,6.85-3.789,6.85-3.789s1.755-6.016,2.638-2.493c.471,1.876,3.193-.9,4.715,1.009,1.03,1.284-1.092,3.239,2.176,6.616,1.893,1.959-4.715,4.223-.212,7.745,0,0-2.555,4.99,2.664,6.1l1.017,5.507a5.515,5.515,0,1,1-10.93,1.309l-.379-6.791C3905.85,1447.825,3904.529,1437.008,3905.2,1431.935Z" transform="translate(-3822.191 -1415.93)" fill="#ffc999" fill-rule="evenodd"/>
        <path id="Tracé_14948" data-name="Tracé 14948" d="M3919.39,1457.5a8.565,8.565,0,0,0,4.285-1.309s.592,2.972-1.309,3.331C3920.515,1459.867,3919.39,1457.5,3919.39,1457.5Z" transform="translate(-3830.553 -1434.383)" fill="#fff" fill-rule="evenodd"/>
        <path id="Tracé_14949" data-name="Tracé 14949" d="M3923.021,1455.44l-.1.062c-.054.033-.129.079-.217.129a9.413,9.413,0,0,1-.892.434,7.326,7.326,0,0,1-2.885.63.332.332,0,0,0-.3.475l.038.075c.037.071.087.167.154.275a5.442,5.442,0,0,0,.55.754,2.731,2.731,0,0,0,2.593,1.1,2.041,2.041,0,0,0,1.617-1.926,5.534,5.534,0,0,0,.009-1.484l-.021-.134c-.008-.079-.021-.142-.029-.183A.333.333,0,0,0,3923.021,1455.44Zm-.079.821.008.113a4.464,4.464,0,0,1-.033.975c-.121.78-.454,1.255-1.08,1.372a2.093,2.093,0,0,1-1.972-.884l-.1-.129a3.155,3.155,0,0,1-.2-.263l-.071-.1h.025a8.357,8.357,0,0,0,2.56-.663c.279-.117.538-.242.779-.371Z" transform="translate(-3830.085 -1433.913)" fill="#f5222d"/>
        <path id="Tracé_14950" data-name="Tracé 14950" d="M3918.378,1444.438a.248.248,0,0,1,.275.217l0,.075a5.366,5.366,0,0,1-.117,1.334,8.22,8.22,0,0,1-.792,2.184l-.075.146.092.046a7.935,7.935,0,0,0,1.259.483l.121.029a2.646,2.646,0,0,0,.55.092h.037a.248.248,0,0,1,.263.233.251.251,0,0,1-.233.267h-.012a2.846,2.846,0,0,1-.726-.1,8.358,8.358,0,0,1-1.813-.717.246.246,0,0,1-.1-.346,8.011,8.011,0,0,0,.938-2.414,5.073,5.073,0,0,0,.112-1.121l0-.129A.247.247,0,0,1,3918.378,1444.438Z" transform="translate(-3829.203 -1427.529)" fill="#dd936f"/>
        <path id="Tracé_14951" data-name="Tracé 14951" d="M3930.3,1440.133c1.021-.088,1.88,1.055,2.005,2.5a.322.322,0,0,1-.3.346.318.318,0,0,1-.346-.292c-.1-1.13-.721-1.959-1.305-1.909s-1.058.976-.963,2.105a.322.322,0,1,1-.642.054C3928.629,1441.5,3929.279,1440.221,3930.3,1440.133Z" transform="translate(-3836.003 -1425.017)" fill="#253368"/>
        <path id="Tracé_14952" data-name="Tracé 14952" d="M3909.585,1443.813c1.017-.087,1.876,1.055,2,2.5a.322.322,0,0,1-.642.054c-.1-1.13-.721-1.959-1.3-1.909s-1.059.976-.963,2.105a.32.32,0,1,1-.638.054C3907.913,1445.177,3908.563,1443.9,3909.585,1443.813Z" transform="translate(-3823.924 -1427.163)" fill="#253368"/>
        <path id="Tracé_14953" data-name="Tracé 14953" d="M3925.725,1432.489a5.076,5.076,0,0,1,4.052-.429,4.122,4.122,0,0,1,.484.208.339.339,0,0,1-.308.6,2.634,2.634,0,0,0-.4-.175,4.4,4.4,0,0,0-3.519.4,7.29,7.29,0,0,0-.726.417l-.1.067c-.075.054-.129.092-.158.117a.338.338,0,0,1-.475-.054.334.334,0,0,1,.054-.475l.1-.075.2-.142A8.24,8.24,0,0,1,3925.725,1432.489Z" transform="translate(-3833.533 -1420.166)" fill="#253368"/>
        <path id="Tracé_14954" data-name="Tracé 14954" d="M3930.166,1474.262a.251.251,0,1,1,.279.417,10.606,10.606,0,0,1-4.831,1.763.251.251,0,0,1-.05-.5A10.083,10.083,0,0,0,3930.166,1474.262Z" transform="translate(-3834.021 -1444.897)" fill="#dd936f"/>
        <path id="Tracé_14955" data-name="Tracé 14955" d="M3876.406,1551.372l-.463-.092a6.381,6.381,0,0,1-5.04-7.487l6.257-32.04a6.377,6.377,0,0,1,7.483-5.04l.462.092a6.381,6.381,0,0,1,5.041,7.487l-6.253,32.04A6.381,6.381,0,0,1,3876.406,1551.372Z" transform="translate(-3802.209 -1463.775)" fill="#ffc999" fill-rule="evenodd"/>
        <path id="Tracé_14956" data-name="Tracé 14956" d="M3892.754,1527.887l2.689-13.777a6.635,6.635,0,0,0-12.99-2.534l-2.664,13.644Z" transform="translate(-3807.461 -1463.823)" fill="#597ef7" fill-rule="evenodd"/>
        <path id="Tracé_14957" data-name="Tracé 14957" d="M3890.342,1506.614a6.622,6.622,0,0,1,5.49,7.408l-.021.125-2.693,13.773a.189.189,0,0,1-.192.158l-.037,0-12.961-2.668a.192.192,0,0,1-.154-.229.2.2,0,0,1,.2-.154l.033,0,12.772,2.626,2.652-13.581a6.209,6.209,0,0,0-5.023-7.049l-.138-.025a.2.2,0,0,1-.154-.229.193.193,0,0,1,.192-.158Z" transform="translate(-3807.449 -1463.785)" fill="#4e5c93"/>
        <path id="Tracé_14958" data-name="Tracé 14958" d="M3848.278,1756.734a5.207,5.207,0,0,1-5.573-4.585l-7.3-59.653a7.549,7.549,0,1,1,15.028-1.238l2.584,60.041A5.205,5.205,0,0,1,3848.278,1756.734Z" transform="translate(-3781.547 -1567.197)" fill="#ffc999" fill-rule="evenodd"/>
        <path id="Tracé_14959" data-name="Tracé 14959" d="M3892.025,1655.276c-1.671-5.044-6.3-8.012-10.246-6.574l-42.441,15.487c-3.269,1.192-4.773,5.478-3.393,9.655s5.152,6.72,8.487,5.723l43.3-12.9C3891.754,1665.465,3893.7,1660.32,3892.025,1655.276Z" transform="translate(-3781.594 -1546.432)" fill="#ffc999" fill-rule="evenodd"/>
        <path id="Tracé_14960" data-name="Tracé 14960" d="M3851.569,1837.131l10.172-.521-.254-16.12-11.677.6Z" transform="translate(-3789.978 -1646.819)" fill="#597ef7" fill-rule="evenodd"/>
        <path id="Tracé_14961" data-name="Tracé 14961" d="M3860.805,1827.479a.335.335,0,0,1,.079.663l-.046.008-10.78.55a.333.333,0,0,1-.35-.317.328.328,0,0,1,.271-.346l.046,0Z" transform="translate(-3789.919 -1650.894)" fill="#e4ebf7"/>
        <path id="Tracé_14962" data-name="Tracé 14962" d="M3833.774,1850.405l11.184-.575,1.614,20.456-25.2,1.292-.221-3.143a2.393,2.393,0,0,1,1.805-2.48l6.59-2.309,3.335-2.13a3.233,3.233,0,0,0,1.484-2.972C3834.167,1855.987,3833.837,1851.652,3833.774,1850.405Z" transform="translate(-3773.264 -1663.928)" fill="#4e5c93" fill-rule="evenodd"/>
        <path id="Tracé_14963" data-name="Tracé 14963" d="M3845.659,1895.39l-25.12,1.284a.431.431,0,0,1-.455-.409l-.146-2.818a.433.433,0,0,1,.408-.454l25.125-1.284a.429.429,0,0,1,.45.409l.146,2.818A.434.434,0,0,1,3845.659,1895.39Z" transform="translate(-3772.559 -1688.349)" fill="#e4ebf7" fill-rule="evenodd"/>
        <path id="Tracé_14964" data-name="Tracé 14964" d="M3820.913,1887.886a3.631,3.631,0,0,1,2.86-3.727l5.636-1.209.6,4.411Z" transform="translate(-3773.125 -1683.241)" fill="#e4ebf7" fill-rule="evenodd"/>
        <path id="Tracé_14965" data-name="Tracé 14965" d="M3845.8,1891.3a.172.172,0,0,1,.05.338l-.033,0-25.125,1.284a.169.169,0,0,1-.05-.334l.033-.008Z" transform="translate(-3772.892 -1688.11)" fill="#a3b5d6"/>
        <path id="Tracé_14966" data-name="Tracé 14966" d="M3848.7,1868.214l.1.017c.129.025.309.067.525.129a6.593,6.593,0,0,1,1.346.554,4.4,4.4,0,0,1,1.126.859.342.342,0,0,1-.229.575,7.772,7.772,0,0,0-1.367.254l-.546.146-.321.092-.35.1.1.079a7.956,7.956,0,0,1,.921.829l.146.158c.063.067.121.138.179.208a.34.34,0,0,1-.283.559,7.3,7.3,0,0,0-1.272.058,14.947,14.947,0,0,0-1.525.275l-.213.05.05.025c.071.042.15.088.225.138l.113.075a3.232,3.232,0,0,1,.75.738.341.341,0,1,1-.546.409,2.763,2.763,0,0,0-.6-.588,2.971,2.971,0,0,0-.842-.413,2.331,2.331,0,0,0-.329-.075l-.034,0a.342.342,0,0,1-.066-.667l.309-.092.075-.021c.3-.083.617-.167.959-.246a16.121,16.121,0,0,1,1.593-.283c.129-.017.254-.029.379-.042l.217-.013-.117-.113c-.158-.146-.321-.283-.484-.408l-.162-.121c-.1-.075-.2-.138-.279-.192l-.088-.054a.938.938,0,0,0-.125-.075.341.341,0,0,1,.05-.625l.409-.133c.317-.1.642-.2.971-.292.2-.054.384-.1.567-.15.208-.054.4-.1.584-.138l.138-.029-.017-.013c-.084-.058-.171-.113-.259-.167l-.138-.079a5.95,5.95,0,0,0-1.209-.5c-.108-.033-.212-.058-.308-.079l-.217-.046s-.012,0-.017,0a.342.342,0,0,1,.067-.679Z" transform="translate(-3787.479 -1674.646)" fill="#e4ebf7"/>
        <path id="Tracé_14967" data-name="Tracé 14967" d="M3851.733,1860.967l-.162,0a.362.362,0,0,0-.112.029.876.876,0,0,0-.617.667.939.939,0,0,0,.388.813,2.3,2.3,0,0,0,.337.25l.033.029.146.108c.133.1.283.213.442.329l.125.088c.6.429,1.222.863,1.847,1.263.375.242.738.467,1.088.667a8.2,8.2,0,0,0,2.868,1.2c1.013.117,1.5-.509,1.246-1.688-.383-1.759-1.818-2.839-3.918-3.381A13.369,13.369,0,0,0,3851.733,1860.967Zm3.539,1.042c1.88.484,3.1,1.4,3.423,2.864.162.742.021.917-.5.859a7.823,7.823,0,0,1-2.6-1.109c-.338-.2-.7-.413-1.059-.65-.617-.4-1.23-.817-1.817-1.242l-.35-.254-.409-.309a1.609,1.609,0,0,1-.263-.2c-.121-.1-.175-.2-.171-.217v0a.31.31,0,0,1,.113-.079l.042-.021h.079A12.578,12.578,0,0,1,3855.272,1862.009Z" transform="translate(-3790.576 -1670.417)" fill="#e4ebf7"/>
        <path id="Tracé_14968" data-name="Tracé 14968" d="M3756.8,1740.979a5.2,5.2,0,0,1-4.115-5.924l9.2-59.391a7.584,7.584,0,0,1,8.921-6.332h0a7.586,7.586,0,0,1,5.878,9.225l-13.844,58.482A5.2,5.2,0,0,1,3756.8,1740.979Z" transform="translate(-3733.303 -1558.591)" fill="#ffc999" fill-rule="evenodd"/>
        <path id="Tracé_14969" data-name="Tracé 14969" d="M3834.078,1663.949c-.575-5.286-4.477-9.159-8.637-8.579l-44.747,6.236c-3.448.479-5.819,4.356-5.34,8.729s3.622,7.649,7.091,7.378l45.042-3.535C3831.677,1673.849,3834.652,1669.23,3834.078,1663.949Z" transform="translate(-3746.525 -1550.498)" fill="#ffc999" fill-rule="evenodd"/>
        <path id="Tracé_14970" data-name="Tracé 14970" d="M3750.27,1817.572l9.93,2.268,4.14-15.582-11.4-2.6Z" transform="translate(-3731.933 -1635.838)" fill="#597ef7" fill-rule="evenodd"/>
        <path id="Tracé_14971" data-name="Tracé 14971" d="M3754.458,1808.7a.333.333,0,0,1,.359-.259l.042.009,10.526,2.4a.334.334,0,0,1-.1.658l-.041-.008-10.526-2.4A.334.334,0,0,1,3754.458,1808.7Z" transform="translate(-3734.37 -1639.79)" fill="#e4ebf7"/>
        <path id="Tracé_14972" data-name="Tracé 14972" d="M3725.532,1830.28l10.917,2.489-4.01,20.126-24.6-5.615.638-3.085a2.393,2.393,0,0,1,2.414-1.892l6.97-.434,3.79-1.142a3.229,3.229,0,0,0,2.234-2.455C3724.389,1835.758,3725.253,1831.493,3725.532,1830.28Z" transform="translate(-3707.191 -1652.528)" fill="#4e5c93" fill-rule="evenodd"/>
        <path id="Tracé_14973" data-name="Tracé 14973" d="M3731.143,1873.092l-24.524-5.6a.426.426,0,0,1-.325-.513l.63-2.751a.428.428,0,0,1,.517-.325l24.524,5.594a.43.43,0,0,1,.321.517l-.625,2.751A.43.43,0,0,1,3731.143,1873.092Z" transform="translate(-3706.283 -1672.129)" fill="#e4ebf7" fill-rule="evenodd"/>
        <path id="Tracé_14974" data-name="Tracé 14974" d="M3709.06,1859.979a3.622,3.622,0,0,1,3.764-2.81l5.749.367-.617,4.411Z" transform="translate(-3707.903 -1668.204)" fill="#e4ebf7" fill-rule="evenodd"/>
        <path id="Tracé_14975" data-name="Tracé 14975" d="M3708.858,1863.514l24.524,5.594a.171.171,0,0,1,.129.2.169.169,0,0,1-.171.134l-.037,0-24.52-5.594a.169.169,0,0,1-.13-.2.163.163,0,0,1,.171-.133Z" transform="translate(-3707.663 -1671.905)" fill="#a3b5d6"/>
        <path id="Tracé_14976" data-name="Tracé 14976" d="M3740.677,1847.233a.341.341,0,0,1,.454-.167l.083.042c.1.05.225.117.375.208a6.981,6.981,0,0,1,1,.725,4.724,4.724,0,0,1,1.1,1.367.342.342,0,0,1-.379.492,8.241,8.241,0,0,0-1.442-.129c-.292,0-.6,0-.9,0l-.3.008.079.1q.181.244.35.513l.112.188a7.41,7.41,0,0,1,.408.788.341.341,0,0,1-.425.463,7.746,7.746,0,0,0-1.438-.317c-.488-.067-.984-.108-1.463-.129l-.1,0,.042.042a3.325,3.325,0,0,1,.738,1.067l.054.138a.342.342,0,0,1-.638.246,2.726,2.726,0,0,0-.634-.967,3.186,3.186,0,0,0-.567-.438l-.1-.058a1.214,1.214,0,0,0-.113-.054l-.025-.013a.341.341,0,0,1,.116-.659l.092,0a18.189,18.189,0,0,1,2.7.154c.2.029.392.058.575.092l.221.046-.025-.046a7.376,7.376,0,0,0-.529-.775l-.108-.134-.092-.108c-.083-.1-.15-.167-.187-.2a.342.342,0,0,1,.221-.588l.113,0,.3-.013c.517-.013,1.05-.021,1.551-.008.259.008.5.017.713.033l.088,0-.059-.075a5.034,5.034,0,0,0-.358-.375l-.133-.121a6.159,6.159,0,0,0-.892-.65l-.129-.075c-.121-.067-.212-.113-.267-.142A.342.342,0,0,1,3740.677,1847.233Z" transform="translate(-3724.033 -1662.298)" fill="#e4ebf7"/>
        <path id="Tracé_14977" data-name="Tracé 14977" d="M3747.3,1840c-.65.079-.937.479-.8.984a1.514,1.514,0,0,0,.208.429,2.277,2.277,0,0,0,.221.283l.017.021c.021.033.07.1.133.179l.275.354c.067.083.134.171.2.259.5.633,1.03,1.263,1.559,1.855.346.384.684.742,1.009,1.059a6.6,6.6,0,0,0,2.255,1.651c.871.283,1.438-.213,1.5-1.338.117-1.943-1.147-3.443-3.285-4.561a13.454,13.454,0,0,0-2.189-.9c-.208-.066-.408-.125-.587-.171l-.3-.079c-.05-.012-.088-.021-.113-.025A.345.345,0,0,0,3747.3,1840Zm-.016.7.046-.009.2.046c.2.054.433.121.683.2a12.366,12.366,0,0,1,2.08.851c1.926,1,3.014,2.3,2.918,3.91-.042.713-.208.859-.613.729a6.23,6.23,0,0,1-1.984-1.488c-.312-.308-.642-.655-.979-1.03-.521-.579-1.038-1.2-1.534-1.822l-.292-.375-.346-.455a2,2,0,0,1-.179-.221.883.883,0,0,1-.117-.233l-.012-.05C3747.155,1840.73,3747.2,1840.709,3747.28,1840.692Z" transform="translate(-3729.714 -1658.192)" fill="#e4ebf7"/>
        <path id="Tracé_14978" data-name="Tracé 14978" d="M3893.975,1507.216c-1.188,2.972-3.414,8.091-3.56,11.409a13.575,13.575,0,0,0,3.448,9.192s-.062,1.126-.659,12.314a119.673,119.673,0,0,0,27.73.475l-.442-5.628,2.168-8.821s.154-3.4,3.035-10.78c2.005-5.132,1.184-11.147.713-14.461-.2-1.422.375-2.689-1.021-3.01a32.22,32.22,0,0,0-6.707-1.071l-.608-3.156a1.106,1.106,0,0,0-1.143-.892l-11.739.575a1.109,1.109,0,0,0-1.03.884l-.688,2.76-7.9,1.542a2.638,2.638,0,0,0-2.005,2.426Z" transform="translate(-3813.65 -1455.724)" fill="#597ef7" fill-rule="evenodd"/>
        <path id="Tracé_14979" data-name="Tracé 14979" d="M3935.283,1502.8a.2.2,0,0,1,.208.192.2.2,0,0,1-.154.208l-.038,0-10.567.517a.2.2,0,0,1-.213-.192.2.2,0,0,1,.154-.2l.038,0Z" transform="translate(-3833.544 -1461.563)" fill="#4e5c93"/>
        <path id="Tracé_14980" data-name="Tracé 14980" d="M3935.648,1500.33a.259.259,0,0,1,.442.267l-.021.033-10.751,15.007a.257.257,0,0,1-.434-.021l-.017-.033-5.144-13.361a.258.258,0,0,1,.463-.225l.017.037,4.973,12.914Z" transform="translate(-3830.737 -1460.06)" fill="#ccd7ee"/>
        <path id="Tracé_14981" data-name="Tracé 14981" d="M3924.4,1536.617a3.856,3.856,0,1,0,5.345-1.888A4.018,4.018,0,0,0,3924.4,1536.617Z" transform="translate(-3833.174 -1479.94)" fill="#ccd7ee" fill-rule="evenodd"/>
        <path id="Tracé_14982" data-name="Tracé 14982" d="M3923.384,1536.647a3.857,3.857,0,1,0,5.348-1.888A4.011,4.011,0,0,0,3923.384,1536.647Z" transform="translate(-3832.58 -1479.957)" fill="#e4ebf7" fill-rule="evenodd"/>
        <path id="Tracé_14983" data-name="Tracé 14983" d="M3925.377,1538.106a2.994,2.994,0,1,0,4.152-1.467A3.116,3.116,0,0,0,3925.377,1538.106Z" transform="translate(-3833.81 -1481.107)" fill="#faad14" fill-rule="evenodd"/>
        <path id="Tracé_14984" data-name="Tracé 14984" d="M3927.773,1511.519a.2.2,0,0,1,.217.187l.05.688.037.558c.025.384.05.788.071,1.2.063,1.13.109,2.238.138,3.276l.012.692a31.5,31.5,0,0,1-.108,3.731,21.7,21.7,0,0,1-1.705,5.069c-.192.446-.4.9-.609,1.376-.408.892-.838,1.792-1.271,2.676l-.325.659c-.129.254-.25.492-.363.717l-.354.684-3.3,12.952.551,5.486a.2.2,0,0,1-.142.213l-.038.008-.55.054c-.084,0-.171.012-.267.021l-.7.058c-.488.038-1.017.075-1.592.108a127.379,127.379,0,0,1-24.483-.8.2.2,0,0,1-.175-.188l0-.129c0-.488.046-1.813.129-3.794l.121-2.705.129-2.684.121-2.4-.117-.187-.221-.388c-.054-.092-.108-.188-.163-.288-.4-.717-.8-1.492-1.167-2.3a23.9,23.9,0,0,1-1.217-3.181,11.08,11.08,0,0,1-.479-2.58,13.868,13.868,0,0,1,.575-5.057,21.4,21.4,0,0,1,1.1-2.751l.171-.354c.171-.367.492-1.021.813-1.672l.892-1.822-.033-3.256a.194.194,0,0,1,.162-.2l.033,0a.2.2,0,0,1,.2.163l0,.037.038,3.306-.021.092-1.651,3.368c-.058.121-.1.221-.142.3a22.808,22.808,0,0,0-1.18,2.914,13.476,13.476,0,0,0-.554,4.919,10.652,10.652,0,0,0,.458,2.485,23.142,23.142,0,0,0,1.2,3.131c.367.8.759,1.563,1.155,2.272l.158.288c.05.088.1.175.15.258l.213.359a.186.186,0,0,1,.029.117l-.079,1.563c-.042.892-.088,1.8-.129,2.693l-.129,2.789c-.1,2.163-.154,3.7-.163,4.373v.146l.458.058a126.98,126.98,0,0,0,23.207.75l.567-.033.559-.033c.363-.025.7-.05,1.029-.075l.826-.067.475-.042-.534-5.323.008-.067,3.31-13.01.017-.042.363-.7c.112-.225.233-.463.358-.717.542-1.084,1.084-2.209,1.592-3.318.213-.471.417-.925.609-1.367l.175-.409a19.594,19.594,0,0,0,1.492-4.548,32.05,32.05,0,0,0,.1-4.135l0-.229c-.025-1.034-.075-2.139-.134-3.264l-.054-.913c-.021-.292-.037-.575-.054-.846l-.05-.688A.2.2,0,0,1,3927.773,1511.519Z" transform="translate(-3813.403 -1466.647)" fill="#4e5c93"/>
        <path id="Tracé_14985" data-name="Tracé 14985" d="M3895.79,1609.308l1.03-3.518s13.131.955,25.47.951a16.087,16.087,0,0,1,.713,4.169C3922.01,1610,3909.43,1611.855,3895.79,1609.308Z" transform="translate(-3816.791 -1521.62)" fill="#4e5c93" fill-rule="evenodd"/>
        <path id="Tracé_14986" data-name="Tracé 14986" d="M4000.511,1503.039a3.707,3.707,0,0,1,3.01,4.106l-6.265,35.475c-.7,3.235-4.177,5.215-7.737,4.4-3.594-.821-5.869-4.169-5.032-7.4l11.581-34.346A3.72,3.72,0,0,1,4000.511,1503.039Z" transform="translate(-3868.412 -1461.639)" fill="#ffc999" fill-rule="evenodd"/>
        <path id="Tracé_14987" data-name="Tracé 14987" d="M3977.595,1546.592l-.546.2a6.411,6.411,0,0,1-8.2-3.852l-11.009-30.485a6.4,6.4,0,0,1,3.852-8.2l.546-.2a6.4,6.4,0,0,1,8.2,3.852l11.009,30.485A6.406,6.406,0,0,1,3977.595,1546.592Z" transform="translate(-3852.749 -1462.072)" fill="#ffc999" fill-rule="evenodd"/>
        <path id="Tracé_14988" data-name="Tracé 14988" d="M3974.222,1518.4l-4.965-13.748a6.7,6.7,0,0,0-12.6,4.552l4.915,13.615Z" transform="translate(-3852.073 -1460.216)" fill="#597ef7" fill-rule="evenodd"/>
        <path id="Tracé_14989" data-name="Tracé 14989" d="M3960.616,1527.454a.191.191,0,0,1,.233.092l.013.033,3.46,10.638,12.452-4.352a.2.2,0,0,1,.237.092l.017.034a.2.2,0,0,1-.092.233l-.029.017-12.648,4.419a.2.2,0,0,1-.238-.092l-.012-.033-3.522-10.834A.2.2,0,0,1,3960.616,1527.454Z" transform="translate(-3854.512 -1475.933)" fill="#4e5c93"/>
        <path id="Tracé_14990" data-name="Tracé 14990" d="M4017.436,1473.077s-.462,10.638-4.465,11.964a6.253,6.253,0,0,1-6-.955,22.864,22.864,0,0,1-3.035-7.4c-.571-2.772-1.121-8.15.292-8.646,1.846-.646,2.113,5.478,3.535,5.432,1.459-.042,1.851-.754,2.889-3.614.646-1.784.313-4.306,1.067-5.761C4012.614,1462.368,4018.328,1463.439,4017.436,1473.077Z" transform="translate(-3879.505 -1438.598)" fill="#ffc999" fill-rule="evenodd"/>
        <path id="Tracé_14991" data-name="Tracé 14991" d="M4024.4,1466.08a.251.251,0,0,1,.258.242,18.9,18.9,0,0,1-.775,6.328,10.5,10.5,0,0,1-.546,1.384l-.083.163q-.112.219-.175.313a.25.25,0,0,1-.417-.275,4.149,4.149,0,0,0,.225-.417,10.43,10.43,0,0,0,.521-1.322,18.418,18.418,0,0,0,.75-6.161A.248.248,0,0,1,4024.4,1466.08Z" transform="translate(-3890.748 -1440.15)" fill="#dd936f"/>
        <path id="Tracé_14992" data-name="Tracé 14992" d="M4028.793,1466.821a.252.252,0,0,1,.35-.05.248.248,0,0,1,.05.35,1.541,1.541,0,0,0-.254.721,4.094,4.094,0,0,0,.009.959l.025.154.008.063,0,.058,0,.125c0,.1-.008.217-.021.346l-.029.384c-.021.267-.05.55-.083.846a21.549,21.549,0,0,1-.767,3.731,13.707,13.707,0,0,1-.463,1.3.247.247,0,0,1-.325.137.252.252,0,0,1-.137-.325q.244-.6.45-1.263a21.686,21.686,0,0,0,.742-3.648c.054-.433.092-.838.117-1.2l.012-.217.009-.208-.017-.1-.017-.125a4.523,4.523,0,0,1-.009-1.084A2.04,2.04,0,0,1,4028.793,1466.821Z" transform="translate(-3893.384 -1440.524)" fill="#dd936f"/>
        <path id="Tracé_14993" data-name="Tracé 14993" d="M4026.305,1474.921c.129-.367.358-.579.688-.5a.245.245,0,0,1,.184.3.25.25,0,0,1-.3.183c-.012,0-.042.025-.1.179a3.314,3.314,0,0,0-.134.838c-.021.333-.017.7,0,1.034l.009.208a11.019,11.019,0,0,1-.733,4.152,3.318,3.318,0,0,1-.767,1.2l-.138.137-.171.184c-.062.067-.125.133-.192.208a16.7,16.7,0,0,0-1.1,1.367,9,9,0,0,0-1.442,2.818,3.506,3.506,0,0,0-.1,1.492.25.25,0,0,1-.492.088,3.95,3.95,0,0,1,.108-1.7,9.359,9.359,0,0,1,1.517-2.985,17.893,17.893,0,0,1,1.138-1.409l.2-.217c.029-.033.063-.067.092-.1l.179-.184a.553.553,0,0,1,.071-.071,1.5,1.5,0,0,0,.179-.208,3.668,3.668,0,0,0,.463-.821,10.444,10.444,0,0,0,.692-3.939l-.008-.2c-.012-.354-.017-.729,0-1.084A3.691,3.691,0,0,1,4026.305,1474.921Z" transform="translate(-3890.075 -1445.006)" fill="#dd936f"/>
        <path id="Tracé_14994" data-name="Tracé 14994" d="M4013.47,1487.828a.248.248,0,0,1,.342-.088,3.553,3.553,0,0,1,.358.263,5.042,5.042,0,0,1,.755.784,5.5,5.5,0,0,1,.967,4.573.248.248,0,0,1-.292.2.252.252,0,0,1-.2-.292,5,5,0,0,0-.871-4.173,4.766,4.766,0,0,0-.68-.7l-.108-.083a1.715,1.715,0,0,0-.187-.133A.25.25,0,0,1,4013.47,1487.828Z" transform="translate(-3885.394 -1452.76)" fill="#dd936f"/>
        <path id="Tracé_14995" data-name="Tracé 14995" d="M3995.458,1539.695a.253.253,0,0,1,.321-.154.244.244,0,0,1,.163.275l-.008.042-4.286,12.5a.25.25,0,0,1-.317.154.253.253,0,0,1-.167-.279l.013-.038Z" transform="translate(-3872.405 -1482.979)" fill="#dd936f"/>
        <path id="Tracé_14996" data-name="Tracé 14996" d="M3777.055,1630.839l36.888-10.488,3.569-5.711,27.6,1.08s17.733,32.924-3.256,40.127c-16.67,4.59-21.3,5.057-21.3,5.057l-6.557,9.017-29.793-14.344-21.769-13.694Z" transform="translate(-3739.03 -1526.781)" fill="#4e5c93" fill-rule="evenodd"/>
        <path id="Tracé_14997" data-name="Tracé 14997" d="M3870.666,1619.887a.241.241,0,0,1,.333-.071.238.238,0,0,1,.092.3l-.017.038-4.381,6.841a.293.293,0,0,1-.046.054l-.029.021-31.123,19.555-5.531,12.143a.245.245,0,0,1-.284.133l-.037-.013a.244.244,0,0,1-.134-.283l.012-.038,5.565-12.21a.265.265,0,0,1,.063-.083l.03-.021,31.135-19.563Z" transform="translate(-3778.135 -1529.777)" fill="#253368"/>
        <path id="Tracé_14998" data-name="Tracé 14998" d="M3909.031,1622.82a.242.242,0,0,1,.226.217v.038l-.672,9.634a.243.243,0,0,1-.016.075l-.017.033-11.505,19.1-11.03,22.878a.241.241,0,0,1-.45-.171l.012-.038,11.043-22.9,11.485-19.072.667-9.575a.241.241,0,0,1,.221-.221Z" transform="translate(-3810.823 -1531.551)" fill="#253368"/>
        <path id="Tracé_14999" data-name="Tracé 14999" d="M3940.26,1624.265a.25.25,0,0,1,.275.154l.008.038,2.614,13.306a.272.272,0,0,1-.008.117l-.013.033-11.709,24.6a.242.242,0,0,1-.45-.171l.012-.037,11.676-24.52-2.593-13.231a.235.235,0,0,1,.15-.271Z" transform="translate(-3837.304 -1532.391)" fill="#253368"/>
        <path id="Tracé_15000" data-name="Tracé 15000" d="M3817.427,1613.78l27.363,1.2a.241.241,0,0,1,.017.479h-.038l-27.23-1.192-4.089,6.074a.227.227,0,0,1-.1.083l-.042.017-36.484,10.117-14.3,10.805L3784,1654.87a.244.244,0,0,1,.1.3l-.021.038a.241.241,0,0,1-.292.1l-.037-.021-21.773-13.694a.241.241,0,0,1-.046-.367l.029-.029,14.619-11.043.079-.042L3813.1,1620l4.114-6.116a.235.235,0,0,1,.171-.1Z" transform="translate(-3738.695 -1526.279)" fill="#253368"/>
        <path id="Tracé_15001" data-name="Tracé 15001" d="M3903.877,1641.019a.243.243,0,0,1,.334-.079.239.239,0,0,1,.1.292l-.017.038-5.361,8.733-.042.054-11.818,10.784a.235.235,0,0,1-.338-.017.246.246,0,0,1-.017-.309l.029-.029,11.793-10.763Z" transform="translate(-3811.471 -1542.096)" fill="#253368"/>
        <path id="Tracé_15002" data-name="Tracé 15002" d="M3833.509,1649.393a.247.247,0,0,1,.308.15.241.241,0,0,1-.116.292l-.033.017-18.621,6.386-15.354,8.358a.239.239,0,0,1-.325-.1.243.243,0,0,1,.062-.309l.033-.021,15.387-8.371Z" transform="translate(-3760.546 -1547.039)" fill="#253368"/>
        <path id="Tracé_15003" data-name="Tracé 15003" d="M3801.217,1618.461a3.663,3.663,0,0,0,4.785,1.551l31.273-16.9c2.814-1.655,3.581-5.54,1.705-8.629-1.9-3.122-5.74-4.219-8.509-2.43l-28.551,21.544A3.686,3.686,0,0,0,3801.217,1618.461Z" transform="translate(-3761.291 -1513.106)" fill="#ffc999" fill-rule="evenodd"/>
        <path id="Tracé_15004" data-name="Tracé 15004" d="M3789.312,1646.509s4.082-5.486,7.546-6.541c2.831-.863,2.693,2.622,2.693,2.622a46.371,46.371,0,0,1-1.868,9.009c-.813,2.093-1.784,6.307-2.935,6.166-1.5-.188.175-4.331-.6-5.136-1.58-1.626-4.877,4.606-5.94,5.319C3786.131,1659.34,3784.693,1653.637,3789.312,1646.509Z" transform="translate(-3752.913 -1541.47)" fill="#ffc999" fill-rule="evenodd"/>
        <path id="Tracé_15005" data-name="Tracé 15005" d="M3791.9,1667.53a.24.24,0,0,1,.329.35l-.134.129-.037.037q-.213.213-.463.488a17.5,17.5,0,0,0-1.4,1.776,12.813,12.813,0,0,0-1.576,3.068.239.239,0,0,1-.455-.15,13.219,13.219,0,0,1,1.635-3.189,17.747,17.747,0,0,1,1.438-1.826c.137-.15.266-.292.387-.413l.167-.171C3791.845,1667.584,3791.883,1667.551,3791.9,1667.53Z" transform="translate(-3754.028 -1557.585)" fill="#dd936f"/>
        <path id="Tracé_15006" data-name="Tracé 15006" d="M3789.764,1663.4a.242.242,0,0,1,.338-.021.238.238,0,0,1,.021.338,19.285,19.285,0,0,0-2.734,3.994,13.343,13.343,0,0,0-.555,1.23l-.054.15c-.054.138-.083.238-.1.3a.237.237,0,0,1-.3.163.241.241,0,0,1-.162-.3l.042-.129.058-.167c.021-.058.046-.121.071-.187a13.687,13.687,0,0,1,.575-1.276A19.765,19.765,0,0,1,3789.764,1663.4Z" transform="translate(-3752.889 -1555.167)" fill="#dd936f"/>
        <path id="Tracé_15007" data-name="Tracé 15007" d="M3789.815,1658.969a.239.239,0,0,1,.338.338l-.092.1c-.033.033-.071.079-.116.129l-.15.179c-.133.163-.275.346-.429.554a23.094,23.094,0,0,0-1.918,3.177.24.24,0,0,1-.321.1.238.238,0,0,1-.1-.321,23,23,0,0,1,1.955-3.243c.192-.259.367-.484.53-.671l.163-.192C3789.736,1659.048,3789.786,1659,3789.815,1658.969Z" transform="translate(-3753.349 -1552.589)" fill="#dd936f"/>
        <path id="Tracé_15008" data-name="Tracé 15008" d="M3897.93,1605.21l25.47.95a.243.243,0,0,1,.021.484h-.037l-25.47-.951a.242.242,0,0,1-.234-.25.245.245,0,0,1,.213-.234Z" transform="translate(-3817.893 -1521.282)" fill="#253368"/>
      </g>
      <g id="Groupe_2876" data-name="Groupe 2876" transform="translate(601.153 1556.816) rotate(172)">
        <path id="Tracé_18171-2" data-name="Tracé 18171" d="M1.752,5.026,0,3.228V.842A.842.842,0,0,1,.842,0h1.82A.842.842,0,0,1,3.5.842V3.228Z" transform="translate(33.767 0)" fill="#597ef7" fill-rule="evenodd"/>
        <path id="Tracé_18172-2" data-name="Tracé 18172" d="M.526,0A.525.525,0,0,0,0,.526V17.72a.526.526,0,1,0,1.052,0V.526A.526.526,0,0,0,.526,0Z" transform="translate(35.068 3.572)" fill="#253368" fill-rule="evenodd"/>
        <path id="Tracé_18173-2" data-name="Tracé 18173" d="M0,11.313V3.184c0-1.04,2.046-1.721,2.046-1.721a36.939,36.939,0,0,1,20.588,0s2.046.68,2.046,1.721v8.129c0-.072-12.34-2.682-12.34-2.682S0,11.241,0,11.313Z" transform="translate(9.62 4.131)" fill="#597ef7" fill-rule="evenodd"/>
        <path id="Tracé_18174-2" data-name="Tracé 18174" d="M0,6.253,22.022,0,43.7,6.253,21.682,12.574Z" transform="translate(0 12.215)" fill="#e4ebf7" fill-rule="evenodd"/>
        <path id="Tracé_18175-2" data-name="Tracé 18175" d="M0,7.417V6.831a.842.842,0,0,1,.614-.811L22.026,0l0,1.164Z" transform="translate(0 11.052)" fill="#253368" fill-rule="evenodd"/>
        <path id="Tracé_18176-2" data-name="Tracé 18176" d="M0,0,21.077,6.181a.842.842,0,0,1,.605.808v.42L0,1.155Z" transform="translate(22.021 11.06)" fill="#253368" fill-rule="evenodd"/>
        <path id="Tracé_18177-2" data-name="Tracé 18177" d="M1.623,0C.726,0,0,.332,0,.741s.726.741,1.623.741S3.246,1.151,3.246.741,2.52,0,1.623,0Z" transform="translate(19.94 18.022)" fill="#fff" fill-rule="evenodd"/>
        <path id="Tracé_18178-2" data-name="Tracé 18178" d="M.526,0A.526.526,0,0,0,.34,1.018l9.778,3.714a.527.527,0,0,0,.324.016L14.694,3.6a.526.526,0,1,0-.275-1.016l-4.087,1.1L.712.034A.518.518,0,0,0,.526,0Z" transform="translate(21.037 18.24)" fill="#597ef7" fill-rule="evenodd"/>
        <path id="Tracé_18179-2" data-name="Tracé 18179" d="M2.695.539c0-.3-.6-.539-1.347-.539S0,.241,0,.539s.6.539,1.347.539S2.695.837,2.695.539Z" transform="translate(20.216 18.227)" fill="#597ef7" fill-rule="evenodd"/>
      </g>
    </g>
  </g>
</svg>
