<svg xmlns="http://www.w3.org/2000/svg" xmlns:xlink="http://www.w3.org/1999/xlink" width="259" height="166" viewBox="100 0 259 166">
  <defs>
    <clipPath id="clip-path">
      <path id="Rectangle_3894" data-name="Rectangle 3894" d="M19,0H430a19,19,0,0,1,19,19V166a0,0,0,0,1,0,0H0a0,0,0,0,1,0,0V19A19,19,0,0,1,19,0Z" transform="translate(760 1497)" fill="#fff"/>
    </clipPath>
  </defs>
  <g id="Groupe_de_masques_48" data-name="Groupe de masques 48" transform="translate(-760 -1497)" clip-path="url(#clip-path)">
    <path id="Rectangle_3892" data-name="Rectangle 3892" d="M19,0H430a19,19,0,0,1,19,19V166a0,0,0,0,1,0,0H0a0,0,0,0,1,0,0V19A19,19,0,0,1,19,0Z" transform="translate(760 1497)" fill="#fff"/>
    <g id="Groupe_2877" data-name="Groupe 2877" transform="translate(657.2 1552.442)">
      <g id="Groupe_2525" data-name="Groupe 2525" transform="translate(201.331 -22.761)">
        <g id="Groupe_2517" data-name="Groupe 2517" transform="translate(0 0)">
          <path id="Tracé_18239" data-name="Tracé 18239" d="M6718.137,10317.8v170.8" transform="translate(-6644.645 -10317.802)" fill="none" stroke="#a3b5d6" stroke-linecap="round" stroke-linejoin="round" stroke-width="5"/>
          <path id="Tracé_18240" data-name="Tracé 18240" d="M6424.771,10466.465H6290.208a5.947,5.947,0,0,1-6.209-5.644v-90.177a5.946,5.946,0,0,1,6.209-5.643h134.562a5.947,5.947,0,0,1,6.212,5.643v90.177A5.948,5.948,0,0,1,6424.771,10466.465Z" transform="translate(-6283.999 -10356.547)" fill="#253368" fill-rule="evenodd"/>
          <path id="Tracé_18241" data-name="Tracé 18241" d="M6284,10497.606h146.983V10414.2H6284Z" transform="translate(-6283.999 -10396.931)" fill="#fbfbfb" fill-rule="evenodd"/>
        </g>
        <g id="Groupe_2523" data-name="Groupe 2523" transform="translate(16.856 26.312)">
          <g id="Groupe_2520" data-name="Groupe 2520" transform="translate(0 0)">
            <g id="Groupe_2518" data-name="Groupe 2518">
              <path id="Tracé_18242" data-name="Tracé 18242" d="M2213.385,5749v-6.869h-11.466V5749c-12.112,4.367-13.469,7.48-13.469,7.48h38.406S2225.5,5753.365,2213.385,5749Z" transform="translate(-2175.716 -5701.767)" fill="#a3b5d6"/>
              <path id="Tracé_18243" data-name="Tracé 18243" d="M2334.822,5229.968a3.984,3.984,0,0,0-2.006-3.58c.057-2.017.013-3.43.013-3.43a10.143,10.143,0,0,0-5.269-8.8v-2.715c-8.918,0-11.785,3.223-11.785,3.223a10.077,10.077,0,0,0-4.45,8.294s-.042,1.346.009,3.284a3.91,3.91,0,0,0-2.333,3.728,3.756,3.756,0,0,0,3.032,3.9,12.884,12.884,0,0,0,1.835,5.162c2.613,3.47,5.782,4.93,8.208,4.93s5.6-1.46,8.209-4.93a12.954,12.954,0,0,0,1.846-5.225A3.827,3.827,0,0,0,2334.822,5229.968Z" transform="translate(-2289.957 -5198.851)" fill="#e4ebf7"/>
              <path id="Tracé_18244" data-name="Tracé 18244" d="M2349.742,5420.221a.233.233,0,0,1,.011.466h-5.37a.233.233,0,0,1-.011-.466h5.37Z" transform="translate(-2323.267 -5396.705)" fill="#fff"/>
              <path id="Tracé_18245" data-name="Tracé 18245" d="M2448.027,5397.78a1.487,1.487,0,1,0,1.487,1.487A1.487,1.487,0,0,0,2448.027,5397.78Zm0,.466a1.021,1.021,0,1,1-1.021,1.021A1.022,1.022,0,0,1,2448.027,5398.246Z" transform="translate(-2420.298 -5375.438)" fill="#fff"/>
              <path id="Tracé_18246" data-name="Tracé 18246" d="M2642.953,5672.939a.233.233,0,0,1,.011.466h-5.371a.233.233,0,0,1-.011-.466h5.371Z" transform="translate(-2601.131 -5636.197)" fill="#fff"/>
              <path id="Tracé_18247" data-name="Tracé 18247" d="M2590.927,5647.451a1.487,1.487,0,1,0,1.487,1.487A1.487,1.487,0,0,0,2590.927,5647.451Zm0,.466a1.021,1.021,0,1,1-1.021,1.021A1.021,1.021,0,0,1,2590.927,5647.917Z" transform="translate(-2555.718 -5612.042)" fill="#fff"/>
              <path id="Tracé_18248" data-name="Tracé 18248" d="M2100.332,5225.212a1.331,1.331,0,0,1,1.331,1.331v6.657h6.574a1.332,1.332,0,1,1,0,2.663h-6.574A2.663,2.663,0,0,1,2099,5233.2v-6.657A1.331,1.331,0,0,1,2100.332,5225.212Zm53.34,10.651a1.332,1.332,0,0,1,0-2.663h6.574v-6.657a1.331,1.331,0,0,1,2.663,0v6.657a2.663,2.663,0,0,1-2.663,2.663ZM2108.237,5172a1.332,1.332,0,1,1,0,2.663h-6.574v6.656a1.331,1.331,0,1,1-2.663,0v-6.656a2.663,2.663,0,0,1,2.618-2.663h6.618Z" transform="translate(-2099 -5172.001)" fill="#0060f9" opacity="0.41"/>
              <path id="Tracé_18249" data-name="Tracé 18249" d="M2878.768,5181.32a1.331,1.331,0,1,1-2.663,0v-6.656h-6.574a1.332,1.332,0,0,1,0-2.663h7.018a2.219,2.219,0,0,1,2.219,2.219Z" transform="translate(-2814.859 -5172.001)" fill="#0060f9" opacity="0.41"/>
            </g>
            <g id="Groupe_2519" data-name="Groupe 2519" transform="translate(48.643 24.063) rotate(178)">
              <path id="Tracé_18250" data-name="Tracé 18250" d="M1.313,3.766,0,2.419V.631A.631.631,0,0,1,.631,0H1.995a.631.631,0,0,1,.631.631V2.419Z" transform="translate(25.302 0)" fill="#597ef7" fill-rule="evenodd"/>
              <path id="Tracé_18251" data-name="Tracé 18251" d="M.394,0A.394.394,0,0,0,0,.394V13.277a.394.394,0,0,0,.789,0V.394A.394.394,0,0,0,.394,0Z" transform="translate(26.277 2.677)" fill="#253368" fill-rule="evenodd"/>
              <path id="Tracé_18252" data-name="Tracé 18252" d="M0,8.477V2.386C0,1.606,1.533,1.1,1.533,1.1a27.68,27.68,0,0,1,15.427,0s1.533.51,1.533,1.289V8.477c0-.054-9.247-2.01-9.247-2.01S0,8.423,0,8.477Z" transform="translate(7.209 3.095)" fill="#597ef7" fill-rule="evenodd"/>
              <path id="Tracé_18253" data-name="Tracé 18253" d="M0,4.686,16.5,0,32.748,4.686l-16.5,4.737Z" transform="translate(0 9.153)" fill="#e4ebf7" fill-rule="evenodd"/>
              <path id="Tracé_18254" data-name="Tracé 18254" d="M0,5.557V5.119a.631.631,0,0,1,.46-.607L16.5,0l0,.872Z" transform="translate(0 8.281)" fill="#253368" fill-rule="evenodd"/>
              <path id="Tracé_18255" data-name="Tracé 18255" d="M0,0,15.793,4.631a.631.631,0,0,1,.453.605v.315L0,.866Z" transform="translate(16.501 8.287)" fill="#253368" fill-rule="evenodd"/>
              <path id="Tracé_18256" data-name="Tracé 18256" d="M1.216,0C.545,0,0,.249,0,.555s.545.555,1.216.555S2.432.862,2.432.555,1.888,0,1.216,0Z" transform="translate(14.942 13.504)" fill="#fff" fill-rule="evenodd"/>
              <path id="Tracé_18257" data-name="Tracé 18257" d="M.395,0a.394.394,0,0,0-.14.763L7.581,3.546a.4.4,0,0,0,.243.012L11.01,2.7a.394.394,0,1,0-.206-.761l-3.063.827L.534.026A.39.39,0,0,0,.395,0Z" transform="translate(15.764 13.667)" fill="#597ef7" fill-rule="evenodd"/>
              <path id="Tracé_18258" data-name="Tracé 18258" d="M2.019.4c0-.223-.452-.4-1.01-.4S0,.181,0,.4s.452.4,1.01.4S2.019.627,2.019.4Z" transform="translate(15.149 13.658)" fill="#597ef7" fill-rule="evenodd"/>
            </g>
          </g>
          <g id="Groupe_2521" data-name="Groupe 2521" transform="translate(79.545 28.818)">
            <path id="Tracé_18259" data-name="Tracé 18259" d="M1155.283,9489.82h-38a1.282,1.282,0,0,1-1.281-1.279V9460.3h40.564v28.24A1.282,1.282,0,0,1,1155.283,9489.82Z" transform="translate(-1116 -9456.664)" fill="#e4ebf7" fill-rule="evenodd"/>
            <path id="Tracé_18260" data-name="Tracé 18260" d="M1267.937,9832.5l-1.7-2.2a.413.413,0,0,0-.649-.008l-1.831,2.269a.425.425,0,0,1-.755-.3l.552-7.261s0,0,0,0h4.588s0,0,0,0l.548,7.208A.425.425,0,0,1,1267.937,9832.5Z" transform="translate(-1255.902 -9803.752)" fill="#ff7946" fill-rule="evenodd"/>
            <path id="Tracé_18261" data-name="Tracé 18261" d="M1209.976,9599.988a5.988,5.988,0,1,1-5.988-5.987A5.988,5.988,0,0,1,1209.976,9599.988Z" transform="translate(-1194.04 -9583.908)" fill="#faad14" fill-rule="evenodd"/>
            <path id="Tracé_18262" data-name="Tracé 18262" d="M1242.5,9634.249a4.25,4.25,0,1,1-4.25-4.249A4.25,4.25,0,0,1,1242.5,9634.249Z" transform="translate(-1228.302 -9618.168)" fill="#faad14" fill-rule="evenodd"/>
            <path id="Tracé_18263" data-name="Tracé 18263" d="M1288.09,9683.206l.259.524a.366.366,0,0,0,.278.2l.58.085a.367.367,0,0,1,.2.627l-.42.408a.366.366,0,0,0-.106.324l.1.576a.368.368,0,0,1-.535.388l-.518-.271a.367.367,0,0,0-.343,0l-.518.271a.368.368,0,0,1-.535-.388l.1-.576a.366.366,0,0,0-.106-.324l-.42-.408a.367.367,0,0,1,.2-.627l.579-.085a.366.366,0,0,0,.278-.2l.259-.524A.37.37,0,0,1,1288.09,9683.206Z" transform="translate(-1277.788 -9668.611)" fill="#fff" fill-rule="evenodd"/>
            <path id="Tracé_18264" data-name="Tracé 18264" d="M1517.427,9768.689a.426.426,0,0,1-.427-.426v-.837a.427.427,0,0,1,.427-.427h16.24a.427.427,0,0,1,.427.427v.837a.426.426,0,0,1-.427.426Z" transform="translate(-1497.635 -9748.553)" fill="#597ef7" fill-rule="evenodd"/>
            <path id="Tracé_18265" data-name="Tracé 18265" d="M1533.667,9661.689h-16.24a.427.427,0,0,1-.427-.428v-.834a.427.427,0,0,1,.427-.428h16.24a.427.427,0,0,1,.427.428v.834A.427.427,0,0,1,1533.667,9661.689Z" transform="translate(-1497.635 -9646.72)" fill="#597ef7" fill-rule="evenodd"/>
            <path id="Tracé_18266" data-name="Tracé 18266" d="M1533.667,9874.689h-16.24a.426.426,0,0,1-.427-.426v-.836a.427.427,0,0,1,.427-.427h16.24a.427.427,0,0,1,.427.427v.836A.426.426,0,0,1,1533.667,9874.689Z" transform="translate(-1497.635 -9849.436)" fill="#597ef7" fill-rule="evenodd"/>
            <path id="Tracé_18267" data-name="Tracé 18267" d="M1157.564,9391.52H1117v-5.233a1.283,1.283,0,0,1,1.281-1.286h38a1.283,1.283,0,0,1,1.281,1.286Z" transform="translate(-1116.952 -9385)" fill="#253368" fill-rule="evenodd"/>
          </g>
          <g id="Groupe_2522" data-name="Groupe 2522" transform="translate(90.153 1.888)">
            <path id="Tracé_18268" data-name="Tracé 18268" d="M8283.183,2128a11.183,11.183,0,1,0,11.183,11.183A11.182,11.182,0,0,0,8283.183,2128Z" transform="translate(-8272 -2128)" fill="#00be65" fill-rule="evenodd"/>
            <path id="Tracé_18269" data-name="Tracé 18269" d="M8607.825,2415.188l-.706-.706,6.842-6.866a.6.6,0,0,1,.847,0l.283.282a.6.6,0,0,1,0,.847l-6.419,6.443A.6.6,0,0,1,8607.825,2415.188Z" transform="translate(-8598.444 -2400.207)" fill="#fff" fill-rule="evenodd"/>
            <path id="Tracé_18270" data-name="Tracé 18270" d="M8523.5,2551.141l-.705.706a.6.6,0,0,1-.848,0l-2.812-2.812a.6.6,0,0,1,0-.847l.282-.282a.6.6,0,0,1,.848,0Z" transform="translate(-8512.565 -2536.865)" fill="#fff" fill-rule="evenodd"/>
          </g>
        </g>
      </g>
      <g id="Groupe_2516" data-name="Groupe 2516" transform="translate(337.733 -28.683)">
        <g id="Groupe_2514" data-name="Groupe 2514" transform="translate(0 121.203)">
          <path id="Tracé_18180" data-name="Tracé 18180" d="M9688.6,1275.39a6.67,6.67,0,1,1-6.669-6.67A6.67,6.67,0,0,1,9688.6,1275.39Z" transform="translate(-9640.115 -1259.282)" fill="#253368" fill-rule="evenodd"/>
          <path id="Tracé_18181" data-name="Tracé 18181" d="M9718.161,1395.358h2.585V1337.31h-2.585Z" transform="translate(-9677.597 -1319.209)" fill="#253368" fill-rule="evenodd"/>
          <path id="Tracé_18182" data-name="Tracé 18182" d="M9496.7,1756.613l-30.076,5.009-1.939-1.4,32.016-9.43Z" transform="translate(-9456.133 -1680.464)" fill="#253368" fill-rule="evenodd"/>
          <path id="Tracé_18183" data-name="Tracé 18183" d="M9738.613,1756.613l30.076,5.009,1.939-1.4-32.016-9.43Z" transform="translate(-9695.467 -1680.464)" fill="#253368" fill-rule="evenodd"/>
          <path id="Tracé_18184" data-name="Tracé 18184" d="M9712.168,1792.031h4.1v-8.41h-4.1Z" transform="translate(-9672.36 -1709.148)" fill="#253368" fill-rule="evenodd"/>
          <path id="Tracé_18185" data-name="Tracé 18185" d="M9454.246,1827.047a3.478,3.478,0,1,1-3.479-3.477A3.478,3.478,0,0,1,9454.246,1827.047Z" transform="translate(-9440.939 -1744.052)" fill="#253368" fill-rule="evenodd"/>
          <path id="Tracé_18186" data-name="Tracé 18186" d="M9707.816,1827.047a3.478,3.478,0,1,1-3.478-3.477A3.478,3.478,0,0,1,9707.816,1827.047Z" transform="translate(-9662.48 -1744.052)" fill="#253368" fill-rule="evenodd"/>
          <path id="Tracé_18187" data-name="Tracé 18187" d="M9963.785,1827.047a3.477,3.477,0,1,1-3.477-3.477A3.478,3.478,0,0,1,9963.785,1827.047Z" transform="translate(-9886.12 -1744.052)" fill="#253368" fill-rule="evenodd"/>
          <path id="Tracé_18188" data-name="Tracé 18188" d="M9480.627,1208.884H9397A14.884,14.884,0,0,1,9411.885,1194h53.864A14.877,14.877,0,0,1,9480.627,1208.884Z" transform="translate(-9397.001 -1194)" fill="#a3b5d6" fill-rule="evenodd"/>
        </g>
        <g id="Groupe_2515" data-name="Groupe 2515" transform="translate(5.207)">
          <path id="Tracé_18189" data-name="Tracé 18189" d="M4265,1622.935l-14.664-12.014a4.4,4.4,0,0,1-1.452-3.751l-1.976-15.179s21.4,4.352,32.1,2.16c3.645-.746,6.526,9.023,6.526,9.023,2.99,2.7-1.154,8.977-1.77,9.8-1.883,2.543-6.916,3.911-15.226,9.609C4267.41,1623.358,4266.019,1623.841,4265,1622.935Z" transform="translate(-4229.002 -1506.028)" fill="#253368" fill-rule="evenodd"/>
          <path id="Tracé_18190" data-name="Tracé 18190" d="M4312.771,1598.9a.2.2,0,0,1,.212.16l.008.032.265,3.769a.2.2,0,0,1-.187.22.208.208,0,0,1-.216-.156l0-.036-.27-3.769A.207.207,0,0,1,4312.771,1598.9Z" transform="translate(-4271.342 -1510.482)" fill="#253368"/>
          <path id="Tracé_18191" data-name="Tracé 18191" d="M4283.025,1440.182l-.6-.06c.182,3.4-13.456,2.792-15.249-1.286a2.6,2.6,0,0,1-.111-.295l-1.652-.171-5.275,58.6s13.555,1.467,25.616,2.007C4294.356,1452.547,4283.025,1440.182,4283.025,1440.182Z" transform="translate(-4237.533 -1406.979)" fill="#597ef7" fill-rule="evenodd"/>
          <path id="Tracé_18192" data-name="Tracé 18192" d="M4302.513,1747.7a4.6,4.6,0,0,0-6.294,2.11c-1.776,4-4.59,10.124-7.535,15.669-2.636,4.966-5.431,7.812-5.233,9.609.217,1.943,3.159,2.1,3.886,4.852s1.2,4.813,6.743,6.636c6.479,2.135,2.359-2.281,1.179-6.149-2.078-6.827-1.41-9.1.267-12.273a143.248,143.248,0,0,1,8.607-14.316A4.2,4.2,0,0,0,4302.513,1747.7Z" transform="translate(-4252.557 -1606.087)" fill="#c99382" fill-rule="evenodd"/>
          <path id="Tracé_18193" data-name="Tracé 18193" d="M4316.1,1652.865l-20.977,45.47a2.346,2.346,0,0,0,.942,3l7.367,4.522a2.593,2.593,0,0,0,3.6-.9l24.1-43.321s4.387-7.215-3.869-11.378C4319.567,1646.371,4316.1,1652.865,4316.1,1652.865Z" transform="translate(-4259.951 -1542.796)" fill="#253368" fill-rule="evenodd"/>
          <path id="Tracé_18194" data-name="Tracé 18194" d="M4284.96,1811.9a25.288,25.288,0,0,0,1.577,5.257c1.122,2.973,1.9,4.831,3.417,5.03a42.045,42.045,0,0,1,4.748.878,30.17,30.17,0,0,1,2.226,4.185c.821,2.007-.532,3.748-4.238,2.3s-5.53-2.753-7.255-6.952-3.729-4.036-3.377-5.666A12.9,12.9,0,0,1,4284.96,1811.9Z" transform="translate(-4251.637 -1647.818)" fill="#253368" fill-rule="evenodd"/>
          <path id="Tracé_18195" data-name="Tracé 18195" d="M4291.054,1781.359l12.081,7.407a.538.538,0,0,0,.746-.178l3.016-5.155a.491.491,0,0,0-.174-.671l-12.834-7.875a.54.54,0,0,0-.779.245l-2.262,5.62A.5.5,0,0,0,4291.054,1781.359Z" transform="translate(-4257.31 -1623.902)" fill="#4e5c93" fill-rule="evenodd"/>
          <path id="Tracé_18196" data-name="Tracé 18196" d="M4279.157,1371.113s.313-11.094,13.887-8.334c7.484,2.05,5.239,14.682,5.239,14.682a11.262,11.262,0,0,1-1.35,5.314c-1.62,2.881-4.692,3.431-8.579,3.151-7.073-1.414-9.3-5.794-9.3-5.794s-4.959-.433-3.539-6.529C4276.869,1367.955,4279.157,1371.113,4279.157,1371.113Z" transform="translate(-4247.281 -1357.956)" fill="#c99382" fill-rule="evenodd"/>
          <path id="Tracé_18197" data-name="Tracé 18197" d="M4274.341,1355.856a5.129,5.129,0,1,1-4.355-5.8A5.13,5.13,0,0,1,4274.341,1355.856Z" transform="translate(-4240.107 -1350.003)" fill="#7d4556" fill-rule="evenodd"/>
          <path id="Tracé_18198" data-name="Tracé 18198" d="M4290.6,1372.362a32.617,32.617,0,0,0,3.573-5.958c1.493-3.3-4.085-11.133-4.9-11.818s-1.176-1.3-7.609.05c-18.259-1.865-16.326,15.385-16.326,15.385s-2.332,1.229-1.7,5.517c.855,4.319,6.522,5.275,6.522,5.275l1.116-6.408a4.014,4.014,0,0,1-3.069-2.561c-1.13-2.43.5-4.952,1.428-5.048.877-.483,2.813.1,2.476,2.476-.17,1.194,2.487-1.161,4.028-5.588,6.515-.32,8.731-4.5,8.731-4.5s-.379,4.256-1.638,5.893c3.481-.526,5.513-2.05,5.226-4.021C4292.016,1363.261,4290.6,1372.362,4290.6,1372.362Z" transform="translate(-4239.725 -1352.473)" fill="#7d4556" fill-rule="evenodd"/>
          <path id="Tracé_18199" data-name="Tracé 18199" d="M4278.386,1415.2l1.655-10.138,12.469,2.074s-.983,6.543-1.116,9.24c7.507,5.641-10.937,7.776-14.476,2.121C4275.829,1416.747,4278.386,1415.2,4278.386,1415.2Z" transform="translate(-4248.177 -1385.502)" fill="#c99382" fill-rule="evenodd"/>
          <path id="Tracé_18200" data-name="Tracé 18200" d="M4306.459,1387.594c-.583,2.4-2.74,3.932-4.817,3.431s-3.29-2.856-2.707-5.257,2.735-3.936,4.813-3.432S4307.038,1385.192,4306.459,1387.594Z" transform="translate(-4262.453 -1370.788)" fill="#fff" fill-rule="evenodd"/>
          <path id="Tracé_18201" data-name="Tracé 18201" d="M4298.193,1385.223c-.615,2.533.674,5.034,2.905,5.574s4.519-1.091,5.136-3.627-.678-5.037-2.905-5.577S4298.808,1382.687,4298.193,1385.223Zm5.012-3.112c1.922.469,3.059,2.671,2.511,4.934s-2.568,3.7-4.493,3.236a4.262,4.262,0,0,1,1.887-8.192Z" transform="translate(-4261.97 -1370.304)" fill="#253368"/>
          <path id="Tracé_18202" data-name="Tracé 18202" d="M4331.418,1390.224c-.579,2.4-2.627,3.961-4.571,3.488s-3.052-2.8-2.468-5.2,2.628-3.961,4.571-3.489S4332,1387.827,4331.418,1390.224Z" transform="translate(-4278.851 -1372.531)" fill="#fff" fill-rule="evenodd"/>
          <path id="Tracé_18203" data-name="Tracé 18203" d="M4323.636,1387.966c-.615,2.533.561,5.012,2.665,5.52s4.28-1.155,4.895-3.687-.562-5.009-2.665-5.517S4324.247,1385.437,4323.636,1387.966Zm4.771-3.165c1.787.433,2.82,2.607,2.27,4.874s-2.462,3.727-4.252,3.293-2.821-2.608-2.271-4.874c.541-2.231,2.4-3.68,4.164-3.314Z" transform="translate(-4278.368 -1372.045)" fill="#253368"/>
          <path id="Tracé_18204" data-name="Tracé 18204" d="M4320.907,1399.136a.2.2,0,0,1,.26.025l.024.025,1.172,1.684a.206.206,0,0,1-.027.266l-.029.018-1.694,1.108a.2.2,0,0,1-.25-.316l.03-.021,1.52-.995-1.055-1.51a.2.2,0,0,1,.024-.259Z" transform="translate(-4276.322 -1381.659)" fill="#9b6160"/>
          <path id="Tracé_18205" data-name="Tracé 18205" d="M4311.709,1408.509c-.282,2.061.1,3.186,1.236,3.186,1.044,0,1.836-.778,2.375-2.259a.266.266,0,0,0-.269-.359,3.865,3.865,0,0,1-1.13-.146c-.255-.064-.525-.146-.807-.238-.2-.064-.383-.135-.564-.2l-.288-.114c-.082-.036-.146-.06-.184-.078A.264.264,0,0,0,4311.709,1408.509Zm.472.522.014-.107-.018-.007c.243.1.5.192.768.281.292.1.575.185.848.252l.125.028a5.32,5.32,0,0,0,.692.121l.072,0-.04.089c-.447.995-1.015,1.47-1.7,1.47C4312.328,1411.162,4312.046,1410.5,4312.182,1409.031Z" transform="translate(-4270.726 -1387.576)" fill="#9b6160"/>
          <path id="Tracé_18206" data-name="Tracé 18206" d="M4321,1393.872a1.164,1.164,0,0,1,1.265.178Z" transform="translate(-4276.773 -1378.214)" fill="#fff" fill-rule="evenodd"/>
          <path id="Tracé_18207" data-name="Tracé 18207" d="M4321,1393.872a1.164,1.164,0,0,1,1.265.178" transform="translate(-4276.773 -1378.214)" fill="none" stroke="#253368" stroke-linecap="round" stroke-linejoin="round" stroke-width="1.5"/>
          <path id="Tracé_18208" data-name="Tracé 18208" d="M4299.967,1424.557a.2.2,0,0,1,.262-.114,15.866,15.866,0,0,0,1.912.6c.877.227,1.815.412,2.757.565.262.043.511.078.738.114l.483.06a.081.081,0,0,0,.029,0,.2.2,0,0,1-.047.4l-.351-.043c-.277-.039-.587-.085-.917-.138-.952-.153-1.9-.341-2.792-.568a17,17,0,0,1-1.962-.618A.205.205,0,0,1,4299.967,1424.557Z" transform="translate(-4263.203 -1397.99)" fill="#9b6160"/>
          <path id="Tracé_18209" data-name="Tracé 18209" d="M4312.329,1392.53c-.085.6-.423,1.052-.75,1s-.526-.572-.437-1.172.419-1.052.749-1.006S4312.414,1391.926,4312.329,1392.53Z" transform="translate(-4270.403 -1376.662)" fill="#253368" fill-rule="evenodd"/>
          <path id="Tracé_18210" data-name="Tracé 18210" d="M4334.031,1395.91c-.085.6-.419,1.051-.75,1s-.522-.572-.437-1.172.418-1.051.749-1.005S4334.116,1395.306,4334.031,1395.91Z" transform="translate(-4284.397 -1378.842)" fill="#253368" fill-rule="evenodd"/>
          <path id="Tracé_18211" data-name="Tracé 18211" d="M4292.915,1391.409l-3.464-.419" transform="translate(-4256.432 -1376.43)" fill="none" stroke="#253368" stroke-linecap="round" stroke-linejoin="round" stroke-width="1.5"/>
          <path id="Tracé_18212" data-name="Tracé 18212" d="M4352.5,1495.4a7.425,7.425,0,0,0,3.015-10.06l-11.147-20.682a7.426,7.426,0,0,0-13.073,7.048l11.144,20.682A7.427,7.427,0,0,0,4352.5,1495.4Z" transform="translate(-4282.835 -1421.41)" fill="#e4ebf7" fill-rule="evenodd"/>
          <path id="Tracé_18213" data-name="Tracé 18213" d="M4282.836,1453.427a.2.2,0,0,1,.276-.082l.107.053.039.021c.125.06.266.128.43.2a16.966,16.966,0,0,0,1.6.621,14.9,14.9,0,0,0,10.069.064.205.205,0,0,1,.147.384,15.3,15.3,0,0,1-10.348-.061,17.568,17.568,0,0,1-1.639-.636l-.191-.089c-.093-.043-.178-.082-.252-.121l-.139-.071a.088.088,0,0,1-.021-.01A.2.2,0,0,1,4282.836,1453.427Z" transform="translate(-4252.15 -1416.618)" fill="#597ef7"/>
          <path id="Tracé_18214" data-name="Tracé 18214" d="M4318.1,1438.047s4.216,8.863,1.743,40.071c-2.479,31.254,12.047,32.81,12.047,32.81l8.018,2.646s-8.129-7.421-7.266-23.343c1.578-29,1.7-36.937-.23-43.573-2.6-1.73-5.4-2.988-9.433-5.531-.98-.615-2.646-2.217-3.271-2.615C4318.021,1437.436,4318.1,1438.047,4318.1,1438.047Z" transform="translate(-4274.903 -1406.659)" fill="#e4ebf7" fill-rule="evenodd"/>
          <path id="Tracé_18215" data-name="Tracé 18215" d="M4358.587,1483.089a.269.269,0,0,1,.285.249l.039.639.046.863q.064,1.135.121,2.526a236.113,236.113,0,0,1-.416,27.36.266.266,0,0,1-.288.245.27.27,0,0,1-.245-.288,234.246,234.246,0,0,0,.444-26.554l-.028-.743c-.042-1.016-.085-1.932-.132-2.739l-.074-1.275A.266.266,0,0,1,4358.587,1483.089Z" transform="translate(-4300.712 -1435.811)" fill="#a3b5d6"/>
          <path id="Tracé_18216" data-name="Tracé 18216" d="M4317.966,1436.363a.267.267,0,0,1,.338-.078l.032.018,4.981,3.6a.274.274,0,0,1,.1.135l.032.11.01.039c.025.1.053.209.083.341l.021.1c.109.494.216,1.105.316,1.844,1.012,7.563.522,20.22-2.565,39.172a.268.268,0,0,1-.529-.089l.183-1.126c2.917-18.273,3.369-30.532,2.381-37.886l-.049-.352c-.076-.511-.154-.952-.231-1.325l-.025-.124c-.023-.1-.043-.188-.062-.27l-.049-.192-4.907-3.538a.265.265,0,0,1-.078-.338Z" transform="translate(-4274.784 -1405.615)" fill="#a3b5d6"/>
          <path id="Tracé_18217" data-name="Tracé 18217" d="M4460.246,1459.008s-5.961,1.766-8.2-1.137a3.754,3.754,0,0,1,.353-4.966,19.857,19.857,0,0,1,5.2-4.622c2.106-1.265,6.358-3.265,7.175-2.249,1.06,1.329-3.882,3.311-3.438,4.465.456,1.183,1.506.849,4.15.877,1.651.014,3.286-.618,4.682-.334C4472.9,1451.591,4469.407,1457.1,4460.246,1459.008Z" transform="translate(-4360.741 -1411.741)" fill="#c99382" fill-rule="evenodd"/>
          <path id="Tracé_18218" data-name="Tracé 18218" d="M4491.023,1462.472a.2.2,0,0,1,.27.092.2.2,0,0,1-.093.27,11.483,11.483,0,0,1-6.674,1.165c-.107-.014-.2-.032-.292-.05l-.082-.014c-.067-.014-.11-.025-.135-.032a.2.2,0,0,1,.1-.391l.057.014.061.01c.1.021.213.042.348.064A11.081,11.081,0,0,0,4491.023,1462.472Z" transform="translate(-4381.784 -1422.506)" fill="#9b6160"/>
          <path id="Tracé_18219" data-name="Tracé 18219" d="M4488.929,1468.306a.2.2,0,0,1,.271.085.2.2,0,0,1-.085.273l-.113.053-.146.071c-.054.021-.111.047-.171.075-.341.146-.728.291-1.154.43a12.239,12.239,0,0,1-4.462.607.2.2,0,0,1,.024-.4,11.746,11.746,0,0,0,4.313-.586c.416-.135.79-.277,1.12-.419l.163-.071.139-.064Z" transform="translate(-4381.147 -1426.265)" fill="#9b6160"/>
          <path id="Tracé_18220" data-name="Tracé 18220" d="M4458.376,1474.03a3.853,3.853,0,0,1,3.153-1.151,9.142,9.142,0,0,1,2.939.7c.383.152.739.316,1.062.479l.159.085c.05.025.1.05.139.075l.075.043.078.007.042,0a12.9,12.9,0,0,0,4.938-.817.2.2,0,1,1,.127.384,13.622,13.622,0,0,1-4.99.845l-.11-.007c-.053-.007-.1-.011-.132-.014l-.057-.007-.067-.025-.1-.057-.134-.075c-.047-.025-.1-.053-.153-.078-.313-.16-.656-.319-1.027-.469a8.67,8.67,0,0,0-2.807-.668,3.45,3.45,0,0,0-2.837,1.02.2.2,0,0,1-.285.014A.207.207,0,0,1,4458.376,1474.03Z" transform="translate(-4365.315 -1429.226)" fill="#9b6160"/>
          <path id="Tracé_18221" data-name="Tracé 18221" d="M4392.98,1463.29l8.689,9.293-24.582,24.44a7.426,7.426,0,1,1-10.142-10.849Z" transform="translate(-4304.878 -1423.046)" fill="#e4ebf7" fill-rule="evenodd"/>
          <path id="Tracé_18222" data-name="Tracé 18222" d="M4444.236,1462.248a.264.264,0,0,1,.348-.014l.029.025,8.685,9.293a.266.266,0,0,1-.358.391l-.029-.025-8.689-9.293A.264.264,0,0,1,4444.236,1462.248Z" transform="translate(-4356.176 -1422.328)" fill="#a3b5d6"/>
          <path id="Tracé_18223" data-name="Tracé 18223" d="M4434.72,1474.913a.274.274,0,0,1,.348-.014l.028.029,7.378,7.89a.268.268,0,0,1-.011.377.264.264,0,0,1-.348.014l-.029-.025-7.378-7.893A.268.268,0,0,1,4434.72,1474.913Z" transform="translate(-4350.043 -1430.495)" fill="#a3b5d6"/>
          <path id="Tracé_18224" data-name="Tracé 18224" d="M4307.739,1657.014l-35.535-2.757c-7.349-.65-12.785-6.689-11.538-12.813,1.08-5.3,6.821-8.7,13.151-7.783l35.58,5.147s10.188.995,9.268,10.064C4317.767,1657.693,4307.739,1657.014,4307.739,1657.014Z" transform="translate(-4237.756 -1532.8)" fill="#253368" fill-rule="evenodd"/>
          <path id="Tracé_18225" data-name="Tracé 18225" d="M4404.644,1766.192a4.659,4.659,0,0,0-3.256,6.082c1.58,4.433,3.921,11.275,5.74,17.751,1.627,5.8,1.58,10.021,3.055,11.314,1.585,1.4,3.946-.532,6.522,1.151s4.448,2.995,10.015.575c6.507-2.831.123-3.467-3.61-5.726-6.6-3.986-7.751-6.266-8.8-9.965a156.188,156.188,0,0,1-3.93-17.42A4.66,4.66,0,0,0,4404.644,1766.192Z" transform="translate(-4328.429 -1618.255)" fill="#c99382" fill-rule="evenodd"/>
          <path id="Tracé_18226" data-name="Tracé 18226" d="M4421.7,1849.59a28.368,28.368,0,0,0,5.059,3.087c3.038,1.584,4.991,2.522,6.295,1.62a41.676,41.676,0,0,1,4.266-2.622,33.244,33.244,0,0,1,4.771,1.776c2.1,1.026,2.341,3.36-1.546,4.8s-6.245,1.673-10.639-.469-5.8-.6-6.731-2.153A14.066,14.066,0,0,1,4421.7,1849.59Z" transform="translate(-4341.702 -1672.119)" fill="#253368" fill-rule="evenodd"/>
          <path id="Tracé_18227" data-name="Tracé 18227" d="M4372.807,1658.75l12.963,52.18a2.612,2.612,0,0,0,2.76,1.972l9.037-.789a2.61,2.61,0,0,0,2.349-3.045l-8.97-52.308s-1.19-8.952-10.717-7.3C4371.343,1651,4372.807,1658.75,4372.807,1658.75Z" transform="translate(-4310.119 -1542.952)" fill="#253368" fill-rule="evenodd"/>
          <path id="Tracé_18228" data-name="Tracé 18228" d="M4403.618,1813.966l14.72-2.131a.539.539,0,0,0,.455-.65l-1.3-6.256a.547.547,0,0,0-.614-.43l-15.641,2.263a.547.547,0,0,0-.437.728l2.228,6.121A.545.545,0,0,0,4403.618,1813.966Z" transform="translate(-4328.204 -1643.042)" fill="#4e5c93" fill-rule="evenodd"/>
          <path id="Tracé_18229" data-name="Tracé 18229" d="M4231.694,1439.606c4.393-1.659,7.356-2.259,10.156-3.542,1.792-.821,3.282-2,4.667-2.334,5.592,39.655,4.889,86.12,1.393,108.382-10.3.448-19.459-7.3-19.459-7.3-2.273,1.762-.445-31.84-.25-54.841C4228.348,1462.963,4230.571,1440.029,4231.694,1439.606Z" transform="translate(-4216.372 -1403.987)" fill="#e4ebf7" fill-rule="evenodd"/>
          <path id="Tracé_18230" data-name="Tracé 18230" d="M4272.407,1432.608a.266.266,0,0,1,.292.444l-.029.021-4.285,2.441.046.437.036.337c.089.746.2,1.652.355,2.718l.105.735c.441,2.991,1.056,6.611,1.876,10.892l.259,1.346c.771,3.89,2.96,13.449,3.262,14.962a71.1,71.1,0,0,1,1.425,12.27.267.267,0,0,1-.257.277.271.271,0,0,1-.276-.259,69.862,69.862,0,0,0-1.325-11.719l-.121-.625c-.4-1.922-2.479-11.023-3.229-14.8l-.191-.981c-.856-4.447-1.5-8.2-1.947-11.282l-.142-.966c-.125-.9-.225-1.677-.3-2.341l-.057-.5-.053-.487a1.273,1.273,0,0,0-.011-.132.273.273,0,0,1,.1-.235l.032-.021Z" transform="translate(-4242.495 -1403.242)" fill="#a3b5d6"/>
          <path id="Tracé_18231" data-name="Tracé 18231" d="M4201.739,1490.921a7.429,7.429,0,0,1-4.571-9.457l9.531-27.36a7.427,7.427,0,0,1,14.027,4.888l-9.53,27.36A7.428,7.428,0,0,1,4201.739,1490.921Z" transform="translate(-4196.664 -1413.91)" fill="#e4ebf7" fill-rule="evenodd"/>
          <path id="Tracé_18232" data-name="Tracé 18232" d="M4241.875,1651.349c-.748-1.478-8.016-6.067-8.016-6.067l-1.18-8.131-8.507,2.49s1.424,7.456,3.2,11.169c1.329,2.771,4.05,3.183,7.5,6.984,1.592,1.762,3.61,3.648,4.59,2.426.194-.241,1.946.37,1.844-1.233a.964.964,0,0,0,1.183.089.933.933,0,0,0,.413-.924C4244.1,1657.8,4242.436,1652.461,4241.875,1651.349Z" transform="translate(-4214.342 -1535.146)" fill="#c99382" fill-rule="evenodd"/>
          <path id="Tracé_18233" data-name="Tracé 18233" d="M4250.873,1683.4a.187.187,0,0,1,.253-.071l.085.053.089.053c.138.085.288.185.455.3a12.724,12.724,0,0,1,1.375,1.1,8.653,8.653,0,0,1,1.144,1.286l2.6,3.67a.181.181,0,0,1-.042.256.185.185,0,0,1-.258-.043l-2.6-3.67a8.286,8.286,0,0,0-1.095-1.225,11.931,11.931,0,0,0-1.335-1.069c-.157-.11-.306-.206-.437-.288l-.163-.1A.182.182,0,0,1,4250.873,1683.4Z" transform="translate(-4231.541 -1564.903)" fill="#9b6160"/>
          <path id="Tracé_18234" data-name="Tracé 18234" d="M4256.854,1677.548a.185.185,0,0,1,.262-.014l.149.142.146.142c.075.075.157.153.238.238.4.405.8.842,1.176,1.29a12.4,12.4,0,0,1,1.055,1.442l.043.071.043.071c.149.259.315.536.494.835l.252.412c.288.465.586.949.891,1.432l.529.835.21.323a.186.186,0,0,1-.313.2l-.511-.8c-.306-.483-.612-.97-.9-1.446l-.363-.586-.216-.359q-.106-.176-.2-.341l-.189-.319c-.027-.047-.053-.089-.081-.135a11.942,11.942,0,0,0-1.022-1.4c-.366-.44-.761-.867-1.156-1.264l-.159-.164c-.05-.05-.1-.1-.15-.146l-.213-.2A.184.184,0,0,1,4256.854,1677.548Z" transform="translate(-4235.382 -1561.152)" fill="#9b6160"/>
          <path id="Tracé_18235" data-name="Tracé 18235" d="M4262.177,1673.526a.185.185,0,0,1,.259-.028l.075.06.075.064c.114.1.242.21.38.338a14.211,14.211,0,0,1,1.162,1.187,7.554,7.554,0,0,1,1.524,2.455l.043.132c.146.49.319.969.511,1.438a16.073,16.073,0,0,0,.711,1.5l.1.178c.014.029.031.053.046.082l.089.149c.042.071.07.121.084.142a.185.185,0,1,1-.309.2l-.068-.11-.024-.043c-.075-.121-.156-.263-.242-.426a16.349,16.349,0,0,1-.731-1.538,15.594,15.594,0,0,1-.522-1.47,7.025,7.025,0,0,0-1.492-2.451,14.6,14.6,0,0,0-1.13-1.155l-.195-.177c-.061-.053-.121-.1-.178-.153l-.139-.113A.189.189,0,0,1,4262.177,1673.526Z" transform="translate(-4238.819 -1558.554)" fill="#9b6160"/>
          <path id="Tracé_18236" data-name="Tracé 18236" d="M4216.717,1573.937l-12.493,2.4-7.588-33.825a7.426,7.426,0,1,1,14.586-2.8Z" transform="translate(-4196.501 -1468.433)" fill="#e4ebf7" fill-rule="evenodd"/>
          <path id="Tracé_18237" data-name="Tracé 18237" d="M4220.236,1492.968a.268.268,0,0,1,.516.142l-.012.036-7.043,20.224,5.52,34.344a.266.266,0,0,1-.177.295l-.036.007-12.493,2.4a.27.27,0,0,1-.3-.171l-.011-.032-6.277-29.122a.267.267,0,0,1,.512-.149l.011.036,6.223,28.866,11.982-2.3-5.487-34.156a.3.3,0,0,1,0-.089l.01-.043Z" transform="translate(-4198.702 -1442.067)" fill="#a3b5d6"/>
          <path id="Tracé_18238" data-name="Tracé 18238" d="M4228.069,1631.971a.268.268,0,0,1,.139.515l-.036.007-10.607,2.043a.269.269,0,0,1-.312-.213.266.266,0,0,1,.174-.3l.035-.011Z" transform="translate(-4209.877 -1531.802)" fill="#a3b5d6"/>
        </g>
      </g>
    </g>
  </g>
</svg>
