<svg width="617" height="384" viewBox="0 0 617 384" fill="none" xmlns="http://www.w3.org/2000/svg">
<path d="M592.69 201.367C592.69 201.367 579.69 166.335 552.295 191.75C542.377 200.95 525.4 181.292 474.395 131.15C469.418 129.141 463.856 129.141 458.878 131.15L415.078 171.826V366.913H592.678L592.69 201.367Z" fill="#3A4865"/>
<path d="M447.517 263.584L507.452 203.715C507.452 203.715 516.17 197.115 527.002 203.715C537.834 210.315 542.424 222.515 554.315 223.31C566.206 224.105 588.556 207.676 620.786 166.462V367.08L447.517 365.74V263.584Z" fill="#54617E"/>
<path d="M467.492 266.28C479.786 266.28 489.751 281.339 489.751 299.916C489.751 315.516 482.839 329.647 473.031 333.552C471.486 334.17 466.31 333.552 464.343 333.552C452.049 333.552 445.233 318.493 445.233 299.916C445.233 281.339 455.199 266.28 467.492 266.28Z" fill="#54C15D"/>
<path d="M467.324 283.463C467.589 283.463 467.844 283.568 468.031 283.756C468.219 283.943 468.324 284.198 468.324 284.463V296.62C468.365 296.576 468.407 296.532 468.45 296.489L474.96 289.966C475.86 289.066 476.945 288.694 477.384 289.137C477.823 289.58 477.452 290.67 476.552 291.57L470.041 298.093C469.583 298.592 468.984 298.941 468.324 299.093V366.08C468.324 366.345 468.219 366.6 468.031 366.787C467.844 366.975 467.589 367.08 467.324 367.08H466.317C466.052 367.08 465.797 366.975 465.61 366.787C465.422 366.6 465.317 366.345 465.317 366.08V284.463C465.317 284.198 465.422 283.943 465.61 283.756C465.797 283.568 466.052 283.463 466.317 283.463H467.324Z" fill="#359462"/>
<path d="M506.861 335.606C506.861 335.606 526.292 353.806 547.481 304.406C556.917 275.482 590.761 295.532 596.307 309.452C603.195 326.738 588.386 344.064 623.471 339.426C685.9 331.174 618.562 384.045 618.562 384.045L490.937 379.127L506.861 335.606Z" fill="#017963"/>
<path d="M478.969 347.088C491.301 342.797 496.715 331.554 506.646 337.021C516.577 342.488 524.686 358.994 536.681 349.203C542.55 344.814 552.439 359.314 560.437 354.186C568.435 349.058 574.346 346.105 591.732 364.132L599.384 366.152C599.384 366.152 604.252 350.923 609.815 350.612C615.378 350.301 617.29 351.234 617.29 351.234L620.695 384.054H304.407L302.095 340.924L457.317 354.186C457.317 354.186 466.636 351.379 478.969 347.088Z" fill="#53C45C"/>
<path d="M554.84 255.215C570.552 255.215 583.29 274.463 583.29 298.206C583.29 318.15 574.455 336.206 561.919 341.197C559.944 341.987 553.328 341.197 550.819 341.197C535.102 341.197 526.39 321.949 526.39 298.206C526.39 274.463 539.127 255.215 554.84 255.215Z" fill="#53BE5A"/>
<path d="M552.778 382.128V328.219C552.57 328.236 552.36 328.207 552.164 328.135C551.967 328.063 551.789 327.948 551.642 327.8L543.489 319.616C543.218 319.346 543.065 318.979 543.064 318.596C543.064 318.212 543.215 317.845 543.486 317.574C543.756 317.302 544.123 317.149 544.506 317.149C544.889 317.148 545.257 317.3 545.528 317.57L552.778 324.848V297.354C552.57 297.372 552.36 297.344 552.164 297.272C551.968 297.2 551.79 297.086 551.642 296.938L547.567 292.843C547.297 292.571 547.145 292.203 547.145 291.82C547.145 291.436 547.297 291.068 547.567 290.796C547.701 290.662 547.859 290.555 548.034 290.482C548.209 290.409 548.397 290.372 548.587 290.372C548.776 290.372 548.964 290.409 549.139 290.482C549.314 290.555 549.472 290.662 549.606 290.796L552.78 293.982V285.66C552.78 285.15 552.982 284.662 553.343 284.301C553.703 283.941 554.192 283.739 554.702 283.739C555.211 283.739 555.7 283.941 556.06 284.301C556.421 284.662 556.623 285.15 556.623 285.66V312.26L565.067 304.554V300.466H568.077V303.438H570.958V306.386H567.402L556.621 316.174V382.128C556.621 382.638 556.419 383.126 556.058 383.487C555.698 383.847 555.209 384.05 554.7 384.05C554.19 384.05 553.701 383.847 553.341 383.487C552.98 383.126 552.778 382.638 552.778 382.128Z" fill="#41AE5B"/>
<path d="M114.856 239.847C99.143 239.847 86.406 259.095 86.406 282.838C86.406 302.782 95.241 320.838 107.777 325.829C109.752 326.619 116.368 325.829 118.877 325.829C134.589 325.829 143.301 306.581 143.301 282.838C143.301 259.095 130.568 239.847 114.856 239.847Z" fill="#53BE5A"/>
<path d="M116.918 270.292V278.615L120.092 275.429C120.226 275.295 120.384 275.188 120.559 275.115C120.734 275.042 120.922 275.005 121.111 275.005C121.301 275.005 121.489 275.042 121.664 275.115C121.839 275.188 121.997 275.295 122.131 275.429C122.401 275.701 122.553 276.069 122.553 276.453C122.553 276.836 122.401 277.204 122.131 277.476L118.054 281.568C117.907 281.716 117.728 281.83 117.532 281.903C117.336 281.975 117.126 282.003 116.918 281.986V309.479L124.168 302.2C124.439 301.93 124.807 301.778 125.19 301.779C125.573 301.78 125.941 301.933 126.211 302.204C126.481 302.475 126.633 302.843 126.632 303.226C126.631 303.609 126.478 303.977 126.207 304.247L118.054 312.432C117.907 312.58 117.729 312.695 117.532 312.767C117.336 312.839 117.126 312.868 116.918 312.851L116.918 382.078C116.918 382.588 116.716 383.076 116.355 383.437C115.995 383.797 115.506 384 114.996 384C114.487 384 113.998 383.797 113.638 383.437C113.277 383.076 113.075 382.588 113.075 382.078L113.075 300.806L102.294 291.014H98.735V288.067H101.615V285.1H104.629V289.186L113.079 296.893V270.293C113.079 269.783 113.281 269.295 113.642 268.934C114.002 268.574 114.491 268.372 115 268.372C115.51 268.372 115.999 268.574 116.359 268.934C116.72 269.295 116.922 269.783 116.922 270.293L116.918 270.292Z" fill="#41AE5B"/>
<path d="M163.14 346.254C163.14 346.254 159.077 343.607 157.286 348.361C154.478 355.826 149.161 374.161 142.766 373.418C132.697 372.247 135.918 362.597 131.228 363.663C126.538 364.729 120.461 373.153 118.01 373.418C115.559 373.683 108.821 372.986 106.635 376.602C104.449 380.218 104.001 387.883 104.001 387.883H163.139L163.14 346.254Z" fill="#107E6B"/>
<path d="M0.576294 388.97C0.576294 388.97 11.5819 365.138 18.8419 372.164C26.1019 379.19 35.0011 384.107 36.8741 376.848C38.7471 369.589 40.7601 364.616 46.3741 363.679C51.9881 362.742 61.5281 368.479 68.8741 367.519C76.2201 366.559 97.0138 353.663 97.0138 365.387C97.0138 377.111 120.467 389.687 123.53 388.97C126.593 388.253 0.576294 388.97 0.576294 388.97Z" fill="#48B850"/>
<path d="M126.942 212.282V384.049H283.985V204.126L203.558 142.035L126.942 212.282Z" fill="#FFE194"/>
<path d="M488.27 208.027H282.681V384.049H488.27V208.027Z" fill="#FFCB47"/>
<path d="M339.546 245.899H309.674C307.465 245.899 305.674 247.69 305.674 249.899V271.655C305.674 273.864 307.465 275.655 309.674 275.655H339.546C341.755 275.655 343.546 273.864 343.546 271.655V249.899C343.546 247.69 341.755 245.899 339.546 245.899Z" fill="white"/>
<path d="M400.411 245.899H370.539C368.33 245.899 366.539 247.69 366.539 249.899V271.655C366.539 273.864 368.33 275.655 370.539 275.655H400.411C402.62 275.655 404.411 273.864 404.411 271.655V249.899C404.411 247.69 402.62 245.899 400.411 245.899Z" fill="white"/>
<path d="M461.277 245.899H431.405C429.196 245.899 427.405 247.69 427.405 249.899V271.655C427.405 273.864 429.196 275.655 431.405 275.655H461.277C463.486 275.655 465.277 273.864 465.277 271.655V249.899C465.277 247.69 463.486 245.899 461.277 245.899Z" fill="white"/>
<path d="M293.501 208.027H499.09V220.2L488.279 227.286V220.27L293.501 220.2V208.027Z" fill="#1B61C6"/>
<path d="M293.501 208.027H499.09V220.2L488.279 227.286V220.27L293.501 220.2V208.027Z" fill="#E26A44"/>
<path d="M204.405 137.392H409.961L499.098 208.069H293.543L204.405 137.392Z" fill="#FF9E7F"/>
<path d="M293.501 220.116L204.427 148.444L127.115 212.928V221.901H116.357V210.539L204.428 137.373L293.505 207.89L293.501 220.116Z" fill="#EE7852"/>
<path d="M173.614 246.549H159.042C157.937 246.549 157.042 247.445 157.042 248.549V262.028C157.042 263.133 157.937 264.028 159.042 264.028H173.614C174.719 264.028 175.614 263.133 175.614 262.028V248.549C175.614 247.445 174.719 246.549 173.614 246.549Z" fill="white"/>
<path d="M193.278 246.549H178.706C177.601 246.549 176.706 247.445 176.706 248.549V262.028C176.706 263.133 177.601 264.028 178.706 264.028H193.278C194.383 264.028 195.278 263.133 195.278 262.028V248.549C195.278 247.445 194.383 246.549 193.278 246.549Z" fill="white"/>
<path d="M173.614 266.213H159.042C157.937 266.213 157.042 267.109 157.042 268.213V281.692C157.042 282.797 157.937 283.692 159.042 283.692H173.614C174.719 283.692 175.614 282.797 175.614 281.692V268.213C175.614 267.109 174.719 266.213 173.614 266.213Z" fill="white"/>
<path d="M193.278 266.213H178.706C177.601 266.213 176.706 267.109 176.706 268.213V281.692C176.706 282.797 177.601 283.692 178.706 283.692H193.278C194.383 283.692 195.278 282.797 195.278 281.692V268.213C195.278 267.109 194.383 266.213 193.278 266.213Z" fill="white"/>
<path d="M232.607 246.549H218.035C216.93 246.549 216.035 247.445 216.035 248.549V262.028C216.035 263.133 216.93 264.028 218.035 264.028H232.607C233.712 264.028 234.607 263.133 234.607 262.028V248.549C234.607 247.445 233.712 246.549 232.607 246.549Z" fill="white"/>
<path d="M252.271 246.549H237.699C236.594 246.549 235.699 247.445 235.699 248.549V262.028C235.699 263.133 236.594 264.028 237.699 264.028H252.271C253.376 264.028 254.271 263.133 254.271 262.028V248.549C254.271 247.445 253.376 246.549 252.271 246.549Z" fill="white"/>
<path d="M232.607 266.213H218.035C216.93 266.213 216.035 267.109 216.035 268.213V281.692C216.035 282.797 216.93 283.692 218.035 283.692H232.607C233.712 283.692 234.607 282.797 234.607 281.692V268.213C234.607 267.109 233.712 266.213 232.607 266.213Z" fill="white"/>
<path d="M252.271 266.213H237.699C236.594 266.213 235.699 267.109 235.699 268.213V281.692C235.699 282.797 236.594 283.692 237.699 283.692H252.271C253.376 283.692 254.271 282.797 254.271 281.692V268.213C254.271 267.109 253.376 266.213 252.271 266.213Z" fill="white"/>
<path d="M194.278 283.692H155.857C155.305 283.692 154.857 284.14 154.857 284.692V288.154C154.857 288.706 155.305 289.154 155.857 289.154H194.278C194.83 289.154 195.278 288.706 195.278 288.154V284.692C195.278 284.14 194.83 283.692 194.278 283.692Z" fill="#FFCB47"/>
<path d="M253.271 283.692H214.85C214.298 283.692 213.85 284.14 213.85 284.692V288.154C213.85 288.706 214.298 289.154 214.85 289.154H253.271C253.823 289.154 254.271 288.706 254.271 288.154V284.692C254.271 284.14 253.823 283.692 253.271 283.692Z" fill="#FFCB47"/>
<path d="M209.268 169.53H202.081C194.901 169.53 189.081 175.35 189.081 182.53V189.717C189.081 196.897 194.901 202.717 202.081 202.717H209.268C216.448 202.717 222.268 196.897 222.268 189.717V182.53C222.268 175.35 216.448 169.53 209.268 169.53Z" fill="white"/>
<path d="M206.338 166.875H205.011V204.044H206.338V166.875Z" fill="#FFE194"/>
<path d="M224.912 187.362V185.786H187.09V187.362H224.912Z" fill="#FFE194"/>
<path d="M171.614 316.518H143.07C140.861 316.518 139.07 318.309 139.07 320.518V342.274C139.07 344.483 140.861 346.274 143.07 346.274H171.614C173.823 346.274 175.614 344.483 175.614 342.274V320.518C175.614 318.309 173.823 316.518 171.614 316.518Z" fill="white"/>
<path d="M227.402 320.733H184.923V384.048H227.402V320.733Z" fill="#DEA739"/>
<path d="M184.923 320.733H182.268V384.048H184.923V320.733Z" fill="#C5932F"/>
<path d="M190.782 361.497C192.429 361.497 193.764 360.162 193.764 358.515C193.764 356.868 192.429 355.533 190.782 355.533C189.135 355.533 187.8 356.868 187.8 358.515C187.8 360.162 189.135 361.497 190.782 361.497Z" fill="#C5932F"/>
<path d="M267.751 316.518H239.207C236.998 316.518 235.207 318.309 235.207 320.518V342.274C235.207 344.483 236.998 346.274 239.207 346.274H267.751C269.96 346.274 271.751 344.483 271.751 342.274V320.518C271.751 318.309 269.96 316.518 267.751 316.518Z" fill="white"/>
<path fill-rule="evenodd" clip-rule="evenodd" d="M246.429 356.488C246.525 356.362 246.647 356.259 246.788 356.185C246.928 356.112 247.083 356.07 247.241 356.064C247.4 356.057 247.557 356.085 247.704 356.146C247.85 356.207 247.981 356.3 248.087 356.417C248.881 357.271 250.116 358.567 251.327 359.702C252.411 360.719 253.327 361.177 253.455 361.658C253.591 362.176 252.926 362.503 253.02 363.28C253.128 363.721 253.096 364.184 252.93 364.606C252.765 365.028 252.473 365.388 252.094 365.638C250.794 366.815 251.331 365.282 251.234 364.176C251.063 362.222 250.69 361.705 249.999 361.055C248.935 360.046 247.814 359.1 246.641 358.221C246.513 358.121 246.406 357.998 246.326 357.856C246.246 357.715 246.195 357.56 246.175 357.399C246.155 357.238 246.167 357.074 246.211 356.918C246.255 356.762 246.329 356.616 246.429 356.488Z" fill="#FFC999"/>
<path fill-rule="evenodd" clip-rule="evenodd" d="M252.425 360.633C252.52 361.127 252.566 361.63 252.562 362.133C252.587 363.004 252.585 363.556 252.252 363.754C251.9 363.962 251.562 364.192 251.238 364.441C251.168 364.868 251.13 365.299 251.122 365.731C251.122 366.326 251.604 366.64 252.322 365.909C252.676 365.604 252.953 365.22 253.129 364.787C253.305 364.354 253.376 363.886 253.335 363.42C253.335 362.176 253.813 362.02 253.575 361.639C253.273 361.221 252.88 360.877 252.425 360.633Z" fill="#253368"/>
<path fill-rule="evenodd" clip-rule="evenodd" d="M239.867 353.681L249.205 360.927C249.297 360.998 249.402 361.049 249.515 361.077C249.628 361.105 249.745 361.109 249.859 361.09C249.973 361.071 250.083 361.028 250.18 360.965C250.277 360.902 250.36 360.819 250.424 360.722L251.224 359.579C251.356 359.391 251.416 359.163 251.395 358.935C251.374 358.706 251.272 358.493 251.108 358.333L242.68 350.419C242.231 350.112 241.68 349.99 241.143 350.079C240.606 350.169 240.125 350.462 239.799 350.898C239.465 351.289 239.287 351.789 239.3 352.303C239.312 352.816 239.514 353.307 239.867 353.681Z" fill="#253368"/>
<path fill-rule="evenodd" clip-rule="evenodd" d="M249.765 361.814L251.675 358.999C251.694 358.971 251.702 358.937 251.699 358.904C251.695 358.87 251.68 358.839 251.656 358.815L250.508 357.724C250.494 357.711 250.478 357.701 250.461 357.695C250.443 357.689 250.424 357.687 250.406 357.689C250.387 357.691 250.369 357.697 250.353 357.707C250.337 357.717 250.324 357.73 250.314 357.746L248.251 360.787C248.229 360.819 248.221 360.857 248.228 360.895C248.235 360.932 248.256 360.965 248.288 360.987L249.588 361.853C249.602 361.862 249.618 361.869 249.635 361.872C249.651 361.875 249.668 361.875 249.685 361.871C249.701 361.867 249.717 361.861 249.731 361.851C249.744 361.841 249.756 361.828 249.765 361.814Z" fill="#4E5C93"/>
<path fill-rule="evenodd" clip-rule="evenodd" d="M249.872 362.639C250.041 362.627 250.211 362.651 250.371 362.709C250.53 362.767 250.676 362.857 250.798 362.975C250.921 363.092 251.017 363.234 251.082 363.391C251.146 363.548 251.177 363.716 251.172 363.886C251.139 365.114 251.111 367.003 251.184 368.757C251.248 370.329 251.602 371.374 251.341 371.814C251.06 372.289 250.317 372.001 249.814 372.627C249.564 373.028 249.192 373.337 248.752 373.508C248.313 373.68 247.829 373.705 247.374 373.58C245.529 373.404 247.062 372.73 247.807 371.867C249.122 370.343 249.224 369.684 249.184 368.681C249.128 367.126 248.984 365.575 248.75 364.037C248.725 363.87 248.734 363.7 248.778 363.538C248.821 363.375 248.898 363.223 249.004 363.092C249.109 362.96 249.241 362.852 249.39 362.774C249.54 362.696 249.704 362.65 249.872 362.639Z" fill="#FFC999"/>
<path fill-rule="evenodd" clip-rule="evenodd" d="M251.321 369.85C251.027 370.276 250.69 370.67 250.314 371.026C249.689 371.665 249.279 372.056 248.882 371.937C248.465 371.81 248.04 371.708 247.611 371.632C247.244 371.881 246.896 372.157 246.571 372.459C246.133 372.884 246.261 373.482 247.343 373.526C247.823 373.59 248.312 373.534 248.766 373.364C249.219 373.193 249.623 372.913 249.943 372.549C250.861 371.661 251.336 371.929 251.443 371.47C251.524 370.928 251.482 370.374 251.321 369.85Z" fill="#253368"/>
<path fill-rule="evenodd" clip-rule="evenodd" d="M251.943 354.849L255.143 347.636C255.288 347.304 255.364 346.946 255.367 346.584C255.371 346.221 255.301 345.862 255.162 345.528C255.023 345.193 254.818 344.89 254.559 344.636C254.3 344.383 253.993 344.184 253.655 344.052C253.318 343.921 252.957 343.858 252.595 343.869C252.233 343.88 251.877 343.964 251.548 344.115C251.219 344.267 250.924 344.484 250.68 344.752C250.437 345.021 250.251 345.336 250.132 345.678L247.486 353.162C247.365 353.441 247.305 353.742 247.309 354.046C247.314 354.349 247.382 354.649 247.511 354.924C247.639 355.199 247.825 355.444 248.055 355.642C248.285 355.841 248.555 355.988 248.846 356.074C249.421 356.307 250.063 356.31 250.64 356.081C251.216 355.853 251.683 355.412 251.943 354.849Z" fill="#253368"/>
<path fill-rule="evenodd" clip-rule="evenodd" d="M252.057 353.407L251.87 367.446C251.868 367.609 251.808 367.765 251.7 367.887C251.593 368.009 251.446 368.089 251.285 368.112L248.94 368.45C248.847 368.463 248.752 368.457 248.661 368.432C248.57 368.407 248.486 368.363 248.413 368.303C248.34 368.244 248.28 368.17 248.237 368.086C248.194 368.002 248.169 367.91 248.163 367.816L247.327 353.981C247.294 353.663 247.328 353.341 247.429 353.037C247.53 352.732 247.694 352.453 247.91 352.217C248.127 351.982 248.391 351.795 248.686 351.669C248.98 351.543 249.298 351.481 249.618 351.487C249.907 351.437 250.202 351.448 250.486 351.519C250.77 351.591 251.036 351.722 251.266 351.903C251.496 352.084 251.686 352.311 251.822 352.571C251.958 352.83 252.038 353.115 252.057 353.407Z" fill="#253368"/>
<path fill-rule="evenodd" clip-rule="evenodd" d="M251.997 368.526L248.153 369.081C248.134 369.084 248.114 369.083 248.095 369.078C248.076 369.073 248.059 369.064 248.043 369.052C248.028 369.04 248.015 369.025 248.006 369.008C247.997 368.99 247.992 368.971 247.99 368.952L247.854 367.289C247.851 367.253 247.862 367.217 247.884 367.188C247.907 367.16 247.94 367.141 247.976 367.136L252.06 366.546C252.081 366.543 252.102 366.545 252.123 366.551C252.143 366.557 252.162 366.568 252.177 366.582C252.193 366.597 252.205 366.614 252.213 366.634C252.221 366.654 252.224 366.675 252.223 366.696L252.123 368.396C252.12 368.429 252.106 368.46 252.083 368.484C252.06 368.507 252.03 368.522 251.997 368.526Z" fill="#4E5C93"/>
<path fill-rule="evenodd" clip-rule="evenodd" d="M250.77 349.213L253.988 345.092C254.098 344.951 254.169 344.784 254.194 344.608C254.218 344.431 254.197 344.251 254.13 344.085L252.584 340.219L243.215 342.911L244.28 347.046C244.346 347.303 244.51 347.524 244.736 347.662C246.312 348.514 248.011 349.117 249.772 349.448C249.943 349.51 250.129 349.521 250.306 349.479C250.483 349.437 250.644 349.345 250.77 349.213Z" fill="#253368"/>
<path d="M252.73 341.462C252.726 341.45 252.718 341.439 252.708 341.432C252.697 341.424 252.684 341.421 252.671 341.423H252.662L244.185 343.901C244.172 343.905 244.161 343.914 244.155 343.926C244.148 343.937 244.146 343.951 244.148 343.964C244.151 343.978 244.159 343.989 244.169 343.997C244.18 344.005 244.193 344.009 244.207 344.008H244.216L252.692 341.53C252.699 341.528 252.706 341.525 252.711 341.521C252.717 341.516 252.722 341.511 252.725 341.504C252.729 341.498 252.731 341.491 252.732 341.484C252.733 341.476 252.732 341.469 252.73 341.462Z" fill="#253368"/>
<path d="M247.537 341.725C247.533 341.711 247.523 341.699 247.511 341.693C247.498 341.686 247.483 341.684 247.469 341.688C247.456 341.692 247.446 341.699 247.438 341.71C247.431 341.721 247.428 341.734 247.43 341.747V341.756L247.767 342.912C247.771 342.926 247.781 342.938 247.793 342.945C247.806 342.951 247.821 342.953 247.835 342.949C247.847 342.946 247.858 342.938 247.865 342.927C247.873 342.916 247.876 342.903 247.874 342.89V342.881L247.537 341.725Z" fill="#253368"/>
<path fill-rule="evenodd" clip-rule="evenodd" d="M239.762 323.844C239.762 323.844 238.402 321.205 241.938 320.096C243.957 319.609 245.063 322.858 245.063 322.858C245.302 323.294 245.43 323.781 245.435 324.278C245.428 325.162 244.779 325.689 243.835 326.125C243.365 326.312 242.86 326.395 242.355 326.368C241.849 326.341 241.356 326.205 240.908 325.97C240.908 325.97 239.69 326.509 239.234 324.898C238.823 323.401 239.762 323.844 239.762 323.844Z" fill="#FFC999"/>
<path fill-rule="evenodd" clip-rule="evenodd" d="M239.374 321.828C239.47 322.082 239.488 322.359 239.427 322.623C239.365 322.888 239.226 323.128 239.028 323.314C238.83 323.5 238.582 323.622 238.314 323.667C238.046 323.711 237.771 323.675 237.524 323.564C237.276 323.452 237.068 323.269 236.924 323.039C236.78 322.808 236.708 322.54 236.717 322.269C236.725 321.998 236.814 321.735 236.972 321.514C237.13 321.293 237.35 321.124 237.604 321.028C237.945 320.9 238.323 320.912 238.654 321.062C238.986 321.212 239.245 321.487 239.374 321.828Z" fill="#253368"/>
<path fill-rule="evenodd" clip-rule="evenodd" d="M245.088 322.965C245.176 322.35 245.198 321.727 245.154 321.107C245.077 320.14 242.754 319.027 242.48 318.971C242.206 318.915 242.036 318.818 240.703 319.971C240.133 320.136 239.613 320.438 239.187 320.851C238.762 321.264 238.444 321.775 238.263 322.34C238.082 322.904 238.042 323.505 238.148 324.088C238.253 324.672 238.501 325.221 238.868 325.686C238.868 325.686 238.48 326.275 239.183 327.198C239.943 328.098 241.393 327.591 241.393 327.591L240.825 325.945C240.648 326.006 240.458 326.02 240.273 325.985C240.089 325.95 239.917 325.867 239.775 325.745C239.559 325.599 239.406 325.377 239.347 325.124C239.288 324.87 239.327 324.603 239.457 324.377C239.599 324.151 240.129 324.036 240.357 324.637C240.471 324.937 240.789 324.043 240.578 322.807C240.986 322.596 241.334 322.285 241.59 321.903C241.845 321.521 242.001 321.081 242.041 320.623C242.272 321.123 242.401 321.664 242.421 322.215C243.168 321.642 243.447 321.022 243.121 320.598C244.242 320.65 245.088 322.965 245.088 322.965Z" fill="#253368"/>
<path fill-rule="evenodd" clip-rule="evenodd" d="M241.471 327.786L240.592 325.345L243.781 324.219C243.781 324.219 244.397 325.879 244.714 326.527C247.203 326.878 243.035 329.927 241.474 329.063C240.992 328.795 241.471 327.786 241.471 327.786Z" fill="#FFC999"/>
<path fill-rule="evenodd" clip-rule="evenodd" d="M243.079 323.131C243.104 323.33 243.07 323.532 242.983 323.712C242.896 323.893 242.76 324.045 242.589 324.15C242.418 324.255 242.221 324.309 242.02 324.305C241.82 324.301 241.625 324.239 241.458 324.128C241.292 324.016 241.161 323.859 241.081 323.675C241.002 323.491 240.976 323.288 241.008 323.09C241.041 322.893 241.129 322.708 241.263 322.559C241.397 322.41 241.571 322.303 241.765 322.25C242.056 322.194 242.357 322.256 242.603 322.421C242.849 322.586 243.02 322.841 243.079 323.131Z" fill="white"/>
<path d="M243.147 323.111C243.24 323.436 243.201 323.784 243.038 324.079C242.875 324.375 242.602 324.595 242.278 324.69C241.954 324.785 241.606 324.748 241.309 324.587C241.012 324.426 240.791 324.154 240.694 323.83C240.597 323.507 240.632 323.159 240.791 322.861C240.951 322.563 241.221 322.34 241.544 322.241C241.867 322.142 242.215 322.175 242.514 322.332C242.813 322.49 243.037 322.759 243.138 323.081L243.147 323.111ZM241.783 322.318C241.552 322.344 241.334 322.441 241.16 322.594C240.985 322.748 240.862 322.951 240.806 323.177C240.75 323.403 240.765 323.64 240.849 323.857C240.932 324.074 241.08 324.26 241.273 324.391C241.465 324.521 241.693 324.59 241.925 324.587C242.158 324.584 242.384 324.51 242.573 324.374C242.762 324.239 242.905 324.049 242.983 323.83C243.061 323.611 243.07 323.373 243.009 323.149C242.955 322.877 242.796 322.637 242.567 322.482C242.337 322.326 242.055 322.267 241.783 322.318Z" fill="#253368"/>
<path fill-rule="evenodd" clip-rule="evenodd" d="M245.2 322.231C245.211 322.418 245.168 322.604 245.077 322.768C244.987 322.931 244.851 323.066 244.687 323.156C244.523 323.246 244.337 323.288 244.15 323.276C243.963 323.265 243.783 323.201 243.631 323.091C243.48 322.982 243.362 322.832 243.292 322.658C243.222 322.485 243.202 322.295 243.235 322.111C243.269 321.927 243.353 321.756 243.48 321.618C243.606 321.48 243.769 321.38 243.95 321.331C244.235 321.288 244.525 321.357 244.759 321.526C244.992 321.694 245.151 321.947 245.2 322.231Z" fill="white"/>
<path d="M245.27 322.212C245.374 322.55 245.341 322.915 245.177 323.228C245.013 323.541 244.732 323.777 244.395 323.883C244.058 323.99 243.692 323.958 243.378 323.796C243.064 323.634 242.827 323.354 242.718 323.018C242.61 322.682 242.639 322.316 242.799 322.001C242.959 321.686 243.238 321.447 243.573 321.336C243.909 321.226 244.275 321.253 244.591 321.411C244.907 321.569 245.147 321.846 245.26 322.181L245.27 322.212ZM243.97 321.401C243.731 321.412 243.502 321.496 243.313 321.643C243.124 321.789 242.986 321.991 242.917 322.22C242.848 322.449 242.852 322.693 242.928 322.92C243.004 323.146 243.148 323.344 243.341 323.485C243.534 323.625 243.767 323.703 244.006 323.706C244.245 323.709 244.479 323.638 244.675 323.502C244.872 323.366 245.022 323.173 245.104 322.948C245.186 322.724 245.196 322.48 245.133 322.249C245.088 321.984 244.941 321.747 244.724 321.589C244.506 321.431 244.236 321.364 243.97 321.402V321.401Z" fill="#253368"/>
<path d="M243.374 323.189C243.362 323.184 243.349 323.184 243.337 323.187C243.325 323.191 243.315 323.2 243.308 323.211C243.301 323.222 243.299 323.235 243.301 323.247C243.304 323.26 243.31 323.271 243.32 323.279H243.328L243.772 323.497L243.543 323.928C243.538 323.939 243.536 323.952 243.538 323.964C243.541 323.976 243.548 323.986 243.557 323.994L243.566 323.999C243.577 324.005 243.59 324.007 243.602 324.004C243.614 324.002 243.625 323.995 243.632 323.985L243.638 323.977L243.892 323.498C243.899 323.487 243.9 323.474 243.898 323.461C243.895 323.449 243.887 323.438 243.877 323.43H243.869L243.374 323.189Z" fill="#DD936F"/>
<path d="M243.861 324.21C243.856 324.202 243.849 324.195 243.841 324.19C243.833 324.185 243.825 324.181 243.815 324.179C243.806 324.177 243.796 324.177 243.787 324.179C243.778 324.181 243.769 324.185 243.761 324.19C243.655 324.25 243.54 324.293 243.421 324.317C243.321 324.341 243.214 324.36 243.107 324.375L243.053 324.382L242.97 324.391C242.961 324.392 242.952 324.395 242.943 324.399C242.935 324.403 242.928 324.409 242.922 324.416C242.916 324.424 242.911 324.432 242.908 324.441C242.906 324.45 242.905 324.459 242.906 324.469C242.906 324.478 242.909 324.487 242.913 324.495C242.918 324.504 242.924 324.511 242.931 324.517C242.938 324.523 242.946 324.527 242.955 324.53C242.964 324.533 242.974 324.534 242.983 324.533H243.025L243.076 324.527L243.132 324.519C243.244 324.503 243.356 324.483 243.46 324.458C243.596 324.431 243.726 324.382 243.845 324.312C243.853 324.307 243.86 324.3 243.865 324.291C243.87 324.283 243.874 324.274 243.875 324.265C243.877 324.255 243.876 324.245 243.874 324.236C243.871 324.226 243.867 324.218 243.861 324.21Z" fill="#F5222D"/>
<path d="M243.322 322.643C243.268 322.627 243.211 322.625 243.156 322.637C243.1 322.649 243.049 322.674 243.006 322.71C242.975 322.733 242.949 322.76 242.926 322.791C242.92 322.799 242.916 322.807 242.914 322.816C242.912 322.826 242.912 322.835 242.913 322.844C242.915 322.854 242.918 322.863 242.923 322.871C242.928 322.879 242.934 322.886 242.942 322.891C242.957 322.902 242.977 322.906 242.995 322.903C243.014 322.9 243.031 322.889 243.042 322.874C243.056 322.855 243.074 322.838 243.093 322.823C243.118 322.8 243.149 322.785 243.182 322.777C243.215 322.77 243.249 322.771 243.282 322.78C243.3 322.785 243.32 322.783 243.336 322.774C243.353 322.765 243.365 322.75 243.37 322.732C243.376 322.713 243.374 322.694 243.364 322.677C243.355 322.661 243.34 322.648 243.322 322.643Z" fill="#253368"/>
<path d="M244.322 325.87C244.317 325.857 244.307 325.847 244.294 325.841C244.281 325.836 244.266 325.836 244.253 325.841L244.203 325.861L244.064 325.914C243.917 325.969 243.759 326.024 243.596 326.076C243.433 326.128 243.251 326.176 243.09 326.217C242.958 326.249 242.825 326.274 242.69 326.292C242.682 326.291 242.673 326.291 242.665 326.293C242.657 326.296 242.65 326.3 242.644 326.306C242.638 326.311 242.633 326.319 242.63 326.326C242.627 326.334 242.627 326.343 242.628 326.351C242.629 326.359 242.632 326.367 242.637 326.374C242.641 326.381 242.648 326.387 242.655 326.391C242.662 326.395 242.67 326.397 242.679 326.397C242.687 326.397 242.695 326.396 242.703 326.392C242.841 326.374 242.977 326.348 243.112 326.316C243.276 326.277 243.448 326.229 243.626 326.173C243.763 326.13 243.896 326.084 244.026 326.038L244.161 325.987L244.293 325.935C244.305 325.93 244.315 325.92 244.32 325.908C244.325 325.896 244.326 325.883 244.322 325.87Z" fill="#DD936F"/>
<path fill-rule="evenodd" clip-rule="evenodd" d="M242.47 323.18C242.528 323.332 242.508 323.48 242.424 323.512C242.34 323.544 242.224 323.446 242.17 323.294C242.116 323.142 242.133 322.994 242.216 322.962C242.299 322.93 242.413 323.032 242.47 323.18Z" fill="#253368"/>
<path fill-rule="evenodd" clip-rule="evenodd" d="M244.432 322.464C244.49 322.616 244.469 322.764 244.386 322.796C244.303 322.828 244.186 322.73 244.131 322.578C244.076 322.426 244.094 322.278 244.176 322.246C244.258 322.214 244.374 322.312 244.432 322.464Z" fill="#253368"/>
<path d="M241.148 323.653C241.142 323.637 241.13 323.624 241.114 323.617C241.099 323.609 241.082 323.607 241.065 323.611H241.056L240.19 323.961C240.172 323.967 240.158 323.98 240.149 323.997C240.141 324.013 240.14 324.033 240.145 324.05C240.151 324.068 240.164 324.083 240.18 324.091C240.197 324.1 240.216 324.102 240.234 324.096H240.243L241.109 323.746C241.118 323.743 241.126 323.737 241.132 323.731C241.139 323.724 241.144 323.716 241.148 323.708C241.152 323.699 241.154 323.69 241.154 323.68C241.154 323.671 241.152 323.662 241.148 323.653Z" fill="#253368"/>
<path fill-rule="evenodd" clip-rule="evenodd" d="M236.503 340.223C236.023 340.004 235.65 339.604 235.466 339.111C235.281 338.617 235.301 338.071 235.519 337.591L238.126 331.871C238.233 331.631 238.386 331.415 238.576 331.235C238.767 331.054 238.992 330.914 239.237 330.821C239.483 330.727 239.744 330.684 240.006 330.693C240.269 330.701 240.527 330.762 240.766 330.87C241.004 330.979 241.219 331.134 241.398 331.327C241.576 331.519 241.715 331.745 241.806 331.991C241.897 332.237 241.938 332.499 241.927 332.761C241.916 333.024 241.853 333.281 241.742 333.519L239.135 339.239C239.027 339.477 238.873 339.69 238.682 339.868C238.491 340.046 238.267 340.185 238.023 340.276C237.779 340.368 237.518 340.41 237.258 340.401C236.997 340.392 236.74 340.331 236.503 340.223Z" fill="#E4EBF7"/>
<path fill-rule="evenodd" clip-rule="evenodd" d="M229.91 330.698C229.91 330.698 230.844 332.074 231.8 331.853C232.04 331.798 232.25 331.656 232.392 331.456C232.534 331.255 232.597 331.009 232.569 330.765C232.581 330.14 232.482 329.518 232.277 328.928C232.056 328.309 231.514 327.174 231.177 327.246C230.733 327.34 231.42 328.589 231.132 328.753C230.844 328.917 230.676 328.673 230.125 328.231C229.78 327.955 229.549 327.546 229.212 327.368C228.549 327.019 228.337 328.751 229.91 330.698Z" fill="#FFC999"/>
<path d="M229.125 327.533C229.119 327.52 229.108 327.509 229.094 327.504C229.081 327.499 229.066 327.5 229.052 327.506C229.039 327.512 229.029 327.523 229.024 327.536C229.019 327.55 229.019 327.565 229.025 327.578C229.145 327.837 229.297 328.08 229.477 328.302C229.646 328.511 229.842 328.697 230.061 328.853C230.119 328.894 230.174 328.93 230.225 328.959L230.255 328.976C230.28 328.99 230.305 329.003 230.331 329.015C230.344 329.021 230.359 329.021 230.373 329.016C230.386 329.01 230.397 329 230.402 328.987C230.408 328.973 230.408 328.958 230.403 328.945C230.398 328.931 230.387 328.921 230.374 328.915L230.353 328.905L230.32 328.888L230.307 328.881C230.243 328.845 230.182 328.806 230.123 328.764C229.912 328.613 229.722 328.434 229.559 328.232C229.386 328.018 229.24 327.783 229.125 327.533Z" fill="#DD936F"/>
<path d="M229.15 328.088C229.147 328.081 229.143 328.076 229.138 328.07C229.133 328.065 229.127 328.062 229.121 328.059C229.114 328.056 229.107 328.055 229.1 328.055C229.093 328.055 229.086 328.056 229.079 328.059C229.072 328.062 229.066 328.066 229.061 328.071C229.056 328.076 229.052 328.082 229.05 328.089C229.047 328.095 229.046 328.102 229.046 328.109C229.046 328.116 229.047 328.123 229.05 328.13L229.061 328.155L229.078 328.192L229.086 328.207C229.116 328.266 229.151 328.332 229.192 328.407C229.317 328.619 229.464 328.818 229.629 329.001C229.768 329.155 229.923 329.294 230.091 329.416C230.097 329.42 230.103 329.423 230.11 329.425C230.117 329.426 230.124 329.426 230.131 329.425C230.137 329.424 230.144 329.422 230.15 329.418C230.156 329.414 230.161 329.41 230.165 329.404C230.169 329.398 230.172 329.392 230.174 329.385C230.175 329.378 230.175 329.371 230.174 329.365C230.173 329.358 230.171 329.351 230.167 329.345C230.164 329.339 230.159 329.334 230.153 329.33C229.991 329.213 229.841 329.079 229.707 328.93C229.547 328.752 229.404 328.559 229.283 328.353C229.243 328.284 229.208 328.22 229.183 328.163L229.16 328.115L229.15 328.088Z" fill="#DD936F"/>
<path d="M229.221 328.903C229.213 328.892 229.201 328.883 229.188 328.88C229.174 328.877 229.16 328.88 229.148 328.887C229.142 328.891 229.137 328.896 229.133 328.901C229.129 328.907 229.126 328.913 229.124 328.92C229.123 328.927 229.123 328.934 229.124 328.941C229.125 328.948 229.128 328.954 229.132 328.96C229.318 329.265 229.542 329.545 229.798 329.794C229.864 329.857 229.933 329.916 230.006 329.971L230.033 329.99L230.08 330.022H230.087L230.102 330.028L230.163 330.042H230.177C230.238 330.057 230.305 330.074 230.377 330.095C230.584 330.153 230.787 330.223 230.985 330.305L231.054 330.334C231.554 330.557 231.854 330.817 231.847 331.1C231.847 331.107 231.848 331.114 231.85 331.12C231.853 331.127 231.856 331.133 231.861 331.138C231.866 331.143 231.872 331.147 231.878 331.15C231.884 331.152 231.891 331.154 231.898 331.154C231.905 331.154 231.912 331.153 231.918 331.15C231.925 331.148 231.931 331.144 231.936 331.139C231.941 331.134 231.945 331.129 231.947 331.122C231.95 331.116 231.952 331.109 231.952 331.102C231.961 330.745 231.61 330.451 231.026 330.202C230.823 330.118 230.616 330.047 230.405 329.988L230.279 329.954L230.187 329.931L230.132 329.918L230.104 329.899L230.082 329.884L230.069 329.875C229.999 329.823 229.932 329.767 229.869 329.707C229.621 329.467 229.403 329.197 229.221 328.903Z" fill="#DD936F"/>
<path fill-rule="evenodd" clip-rule="evenodd" d="M232.883 330.124L230.246 332.277L235.889 339.639C236.222 340.047 236.704 340.307 237.229 340.359C237.753 340.412 238.277 340.255 238.685 339.922C239.094 339.588 239.353 339.106 239.406 338.582C239.459 338.057 239.301 337.533 238.968 337.125L232.883 330.124Z" fill="#E4EBF7"/>
<path d="M232.907 330.04C232.896 330.027 232.881 330.018 232.864 330.015C232.847 330.012 232.83 330.015 232.815 330.024L232.806 330.03L230.169 332.183C230.161 332.188 230.155 332.195 230.15 332.203C230.145 332.211 230.141 332.22 230.14 332.229C230.138 332.238 230.138 332.248 230.14 332.257C230.142 332.266 230.146 332.275 230.152 332.283C230.157 332.29 230.164 332.297 230.172 332.302C230.179 332.307 230.188 332.31 230.198 332.312C230.207 332.314 230.216 332.313 230.226 332.311C230.235 332.309 230.243 332.305 230.251 332.3L230.26 332.294L232.897 330.141C232.912 330.129 232.921 330.112 232.923 330.093C232.925 330.074 232.919 330.055 232.907 330.04Z" fill="#A3B5D6"/>
<path d="M233.642 331.354C233.631 331.341 233.616 331.332 233.6 331.329C233.583 331.326 233.566 331.329 233.551 331.338L233.542 331.344L231.303 333.172C231.296 333.178 231.29 333.185 231.285 333.193C231.281 333.202 231.278 333.211 231.277 333.22C231.276 333.229 231.277 333.239 231.28 333.248C231.283 333.257 231.287 333.265 231.293 333.272C231.304 333.285 231.319 333.294 231.336 333.297C231.353 333.3 231.37 333.297 231.385 333.288L231.394 333.282L233.632 331.454C233.639 331.448 233.645 331.441 233.65 331.433C233.654 331.424 233.657 331.415 233.658 331.406C233.659 331.397 233.658 331.387 233.655 331.379C233.653 331.37 233.648 331.361 233.642 331.354Z" fill="#A3B5D6"/>
<path fill-rule="evenodd" clip-rule="evenodd" d="M241.138 328.585L241.288 328.526C241.509 329.476 244.988 328.35 245.127 327.102C245.129 327.073 245.129 327.043 245.127 327.014L245.542 326.851L251.527 342.615C249.636 343.769 247.483 344.422 245.27 344.515C239.39 332.34 241.138 328.585 241.138 328.585Z" fill="#597EF7"/>
<path d="M245.213 328.448C245.208 328.443 245.202 328.439 245.195 328.436C245.188 328.433 245.181 328.432 245.174 328.432C245.167 328.432 245.16 328.433 245.153 328.436C245.146 328.439 245.14 328.443 245.135 328.448L245.112 328.47L245.083 328.496C245.039 328.535 244.983 328.578 244.928 328.625C244.744 328.77 244.549 328.902 244.346 329.019C243.656 329.44 242.852 329.636 242.046 329.578C242.038 329.577 242.031 329.577 242.023 329.578C242.016 329.58 242.009 329.583 242.002 329.588C241.996 329.593 241.991 329.599 241.988 329.605C241.984 329.612 241.981 329.619 241.981 329.627C241.98 329.635 241.981 329.642 241.983 329.65C241.986 329.657 241.99 329.664 241.995 329.669C242 329.675 242.007 329.679 242.014 329.682C242.021 329.686 242.028 329.687 242.036 329.687C242.864 329.747 243.689 329.546 244.398 329.114C244.606 328.996 244.805 328.862 244.993 328.714C245.054 328.666 245.108 328.621 245.153 328.581L245.184 328.554L245.21 328.53C245.216 328.525 245.221 328.519 245.224 328.512C245.227 328.505 245.229 328.497 245.229 328.49C245.23 328.482 245.228 328.474 245.225 328.467C245.223 328.46 245.218 328.453 245.213 328.448Z" fill="#597EF7"/>
<path fill-rule="evenodd" clip-rule="evenodd" d="M241.596 327.951C241.596 327.951 241.459 330.278 244.147 338.211C246.288 344.53 245.809 345.656 245.809 345.656C245.809 345.656 242.864 348.814 241.847 349.938C240.98 350.897 242.947 346.457 241.574 342.416C239.081 335.056 238.562 333.106 238.582 331.257C239.129 330.624 239.706 330.041 240.561 329.096C240.769 328.866 241.084 328.334 241.216 328.187C241.574 327.783 241.596 327.951 241.596 327.951Z" fill="#E4EBF7"/>
<path d="M238.959 333.102C238.941 333.106 238.924 333.117 238.914 333.133C238.904 333.148 238.9 333.168 238.904 333.186L238.935 333.336L238.963 333.467C238.978 333.537 238.995 333.611 239.013 333.69L239.056 333.874C239.181 334.422 239.33 335.033 239.502 335.693C239.991 337.579 240.565 339.475 241.217 341.259C241.223 341.277 241.237 341.291 241.254 341.299C241.271 341.307 241.291 341.308 241.308 341.302C241.326 341.295 241.341 341.282 241.349 341.265C241.357 341.247 241.357 341.228 241.351 341.21C240.701 339.43 240.129 337.538 239.64 335.657L239.58 335.427C239.444 334.894 239.322 334.395 239.217 333.939L239.195 333.839C239.166 333.712 239.139 333.594 239.115 333.486L239.058 333.222L239.044 333.153C239.04 333.136 239.031 333.121 239.017 333.111C239.003 333.1 238.986 333.095 238.969 333.096L238.959 333.102Z" fill="#A3B5D6"/>
<path fill-rule="evenodd" clip-rule="evenodd" d="M249.52 326.866C248.268 326.755 247.028 326.983 246.213 326.854C245.763 326.732 245.306 326.643 244.843 326.588C246.256 337.21 251.923 350.019 254.426 355.505C257.113 354.879 258.012 350.313 258.012 350.313C258.012 350.313 255.052 342.213 252.89 337.188C251.092 333.006 249.84 326.894 249.52 326.866Z" fill="#E4EBF7"/>
<path d="M244.876 326.475C244.858 326.469 244.839 326.471 244.822 326.48C244.806 326.488 244.793 326.503 244.787 326.521C244.782 326.539 244.783 326.558 244.791 326.575C244.8 326.591 244.814 326.604 244.832 326.61H244.841L246.131 326.933L246.142 326.961L246.164 327.014C246.201 327.108 246.243 327.221 246.288 327.351C246.417 327.724 246.546 328.165 246.666 328.671C246.893 329.642 247.048 330.628 247.129 331.621L247.15 331.879C247.166 332.079 247.181 332.279 247.199 332.5L247.299 333.926C247.38 335.011 247.443 335.703 247.529 336.407C247.654 337.435 247.841 338.455 248.09 339.461C248.092 339.47 248.096 339.479 248.102 339.486C248.107 339.494 248.114 339.5 248.122 339.505C248.131 339.51 248.139 339.513 248.149 339.515C248.158 339.516 248.167 339.516 248.176 339.514C248.186 339.511 248.194 339.507 248.202 339.502C248.209 339.496 248.216 339.489 248.221 339.481C248.226 339.473 248.229 339.464 248.23 339.455C248.232 339.446 248.231 339.436 248.229 339.427C247.994 338.477 247.814 337.515 247.69 336.544L247.671 336.39C247.597 335.79 247.541 335.19 247.471 334.347L247.323 332.347C247.313 332.205 247.301 332.07 247.291 331.936L247.276 331.736C247.196 330.692 247.037 329.656 246.799 328.636C246.677 328.125 246.547 327.68 246.417 327.302C246.377 327.186 246.34 327.084 246.306 326.996L246.272 326.912L246.242 326.841C246.235 326.824 246.222 326.811 246.205 326.804H246.194L244.876 326.475Z" fill="#A3B5D6"/>
<path d="M241.556 327.786C241.543 327.775 241.527 327.769 241.51 327.769C241.493 327.769 241.476 327.775 241.463 327.786L241.456 327.794L240.431 329.079C240.425 329.087 240.421 329.096 240.419 329.105C240.416 329.115 240.416 329.124 240.417 329.134L240.424 329.175L240.433 329.219L240.449 329.297C240.472 329.42 240.506 329.566 240.549 329.736L240.561 329.788C240.689 330.318 240.87 330.962 241.112 331.723L241.139 331.805C242.11 334.713 243.256 337.56 244.571 340.33C244.579 340.347 244.593 340.36 244.611 340.367C244.628 340.374 244.648 340.373 244.665 340.365C244.682 340.357 244.695 340.343 244.702 340.325C244.709 340.307 244.708 340.287 244.7 340.27L244.534 339.911C243.289 337.261 242.2 334.539 241.275 331.761C241.037 331.022 240.858 330.392 240.727 329.869L240.7 329.754C240.658 329.581 240.625 329.431 240.6 329.305L240.583 329.215L240.569 329.141L241.574 327.881C241.585 327.868 241.591 327.852 241.591 327.835C241.591 327.818 241.585 327.801 241.574 327.788L241.556 327.786Z" fill="#A3B5D6"/>
<path d="M254.282 340.528C254.274 340.513 254.26 340.502 254.244 340.496C254.228 340.49 254.211 340.491 254.195 340.497H254.185L252.018 341.714C252.005 341.722 251.994 341.733 251.988 341.747C251.982 341.762 251.981 341.777 251.984 341.792V341.802L253.855 346.557C253.896 346.661 253.958 346.755 254.038 346.833C254.117 346.912 254.212 346.972 254.317 347.012C254.421 347.051 254.533 347.068 254.645 347.062C254.756 347.056 254.865 347.026 254.964 346.975L254.987 346.963L256.502 346.12C256.511 346.116 256.519 346.11 256.525 346.102C256.531 346.095 256.536 346.086 256.538 346.076C256.541 346.067 256.542 346.057 256.541 346.047C256.539 346.038 256.536 346.028 256.531 346.02C256.523 346.005 256.509 345.994 256.493 345.988C256.477 345.982 256.459 345.982 256.443 345.988H256.434L254.918 346.831C254.838 346.876 254.75 346.903 254.658 346.911C254.567 346.92 254.475 346.909 254.388 346.879C254.302 346.85 254.222 346.803 254.155 346.741C254.087 346.679 254.034 346.603 253.997 346.519L253.988 346.498L252.14 341.798L254.253 340.611C254.268 340.602 254.279 340.589 254.285 340.573C254.29 340.557 254.29 340.539 254.284 340.523L254.282 340.528Z" fill="#A3B5D6"/>
<path fill-rule="evenodd" clip-rule="evenodd" d="M256.637 332.589C256.88 332.121 256.927 331.576 256.768 331.074C256.609 330.571 256.257 330.153 255.789 329.91L250.208 327.016C249.74 326.773 249.195 326.726 248.693 326.886C248.19 327.045 247.772 327.397 247.529 327.865C247.286 328.333 247.239 328.878 247.399 329.38C247.558 329.883 247.91 330.301 248.378 330.544L253.958 333.438C254.19 333.558 254.443 333.632 254.703 333.654C254.963 333.677 255.225 333.648 255.474 333.569C255.722 333.49 255.953 333.363 256.153 333.195C256.352 333.027 256.517 332.821 256.637 332.589Z" fill="#E4EBF7"/>
<path fill-rule="evenodd" clip-rule="evenodd" d="M240.107 350.644L245.584 345.184C246.584 344.184 247.923 344.461 248.942 345.484C249.426 346.105 249.651 346.889 249.57 347.672C249.488 348.454 249.108 349.176 248.507 349.684L242.966 354.365C242.966 354.365 241.774 355.435 240.173 353.714C239.768 353.31 239.535 352.764 239.523 352.192C239.511 351.62 239.72 351.066 240.107 350.644Z" fill="#253368"/>
<path fill-rule="evenodd" clip-rule="evenodd" d="M253.504 340.472L253.163 340.609C253.104 340.632 253.051 340.667 253.006 340.711C252.961 340.755 252.925 340.808 252.9 340.866C252.875 340.924 252.862 340.987 252.861 341.05C252.861 341.113 252.873 341.175 252.896 341.234L255.212 347.001C255.235 347.06 255.27 347.113 255.314 347.158C255.358 347.203 255.411 347.239 255.469 347.264C255.527 347.289 255.59 347.302 255.653 347.303C255.716 347.303 255.778 347.292 255.837 347.268L256.179 347.131C256.238 347.108 256.291 347.073 256.337 347.029C256.382 346.984 256.418 346.932 256.443 346.874C256.468 346.815 256.48 346.753 256.481 346.69C256.482 346.626 256.47 346.564 256.446 346.505L254.131 340.738C254.083 340.62 253.99 340.525 253.872 340.475C253.755 340.425 253.622 340.424 253.504 340.472Z" fill="#A3B5D6"/>
<path fill-rule="evenodd" clip-rule="evenodd" d="M261.128 337.413L253.475 340.486C253.357 340.534 253.262 340.626 253.212 340.743C253.162 340.86 253.161 340.993 253.208 341.111L255.525 346.878C255.573 346.996 255.665 347.091 255.782 347.141C255.899 347.191 256.032 347.192 256.15 347.145L263.803 344.072C263.861 344.048 263.915 344.014 263.96 343.969C264.005 343.925 264.041 343.873 264.066 343.815C264.09 343.757 264.103 343.694 264.104 343.631C264.104 343.568 264.093 343.506 264.069 343.447L261.754 337.68C261.706 337.562 261.614 337.467 261.496 337.417C261.379 337.367 261.246 337.366 261.128 337.413Z" fill="#253368"/>
<path d="M263.022 341.53L254.645 344.89L254.685 344.99L263.062 341.626L263.022 341.53Z" fill="#A3B5D6"/>
<path fill-rule="evenodd" clip-rule="evenodd" d="M260.456 341.489C260.456 341.489 259.947 339.906 258.968 339.849C258.723 339.834 258.48 339.911 258.288 340.063C258.095 340.216 257.965 340.434 257.923 340.676C257.736 341.272 257.656 341.897 257.686 342.521C257.725 343.178 257.925 344.421 258.272 344.445C258.726 344.48 258.418 343.088 258.74 343.012C259.062 342.936 259.155 343.212 259.559 343.796C259.741 344.174 259.953 344.536 260.192 344.881C260.727 345.403 261.418 343.801 260.456 341.489Z" fill="#FFC999"/>
<path d="M259.683 342.889C259.672 342.881 259.659 342.878 259.646 342.879C259.633 342.881 259.62 342.887 259.612 342.897C259.603 342.907 259.598 342.92 259.599 342.934C259.599 342.947 259.605 342.96 259.614 342.969L259.624 342.978L259.639 342.992L259.649 343.001C259.678 343.029 259.71 343.064 259.749 343.101C259.86 343.23 259.959 343.37 260.043 343.518C260.242 343.868 260.373 344.251 260.431 344.649C260.432 344.656 260.434 344.662 260.438 344.668C260.442 344.674 260.446 344.68 260.452 344.684C260.457 344.688 260.464 344.691 260.47 344.692C260.477 344.694 260.484 344.694 260.491 344.693C260.505 344.691 260.517 344.683 260.526 344.672C260.534 344.661 260.538 344.647 260.536 344.633C260.476 344.222 260.341 343.826 260.136 343.465C260.048 343.311 259.946 343.166 259.83 343.031C259.801 342.997 259.773 342.967 259.747 342.941L259.728 342.922L259.683 342.889Z" fill="#DD936F"/>
<path d="M260.129 342.482C260.125 342.476 260.12 342.47 260.114 342.466C260.108 342.462 260.101 342.459 260.093 342.458C260.086 342.457 260.079 342.457 260.071 342.459C260.064 342.461 260.057 342.464 260.052 342.468C260.046 342.473 260.041 342.479 260.037 342.485C260.034 342.492 260.032 342.499 260.031 342.507C260.031 342.514 260.032 342.521 260.035 342.528C260.037 342.535 260.041 342.542 260.046 342.547C260.119 342.638 260.186 342.734 260.246 342.834C260.396 343.089 260.511 343.363 260.589 343.648C260.612 343.729 260.63 343.805 260.644 343.875L260.652 343.916C260.661 343.964 260.666 343.998 260.668 344.016C260.671 344.029 260.678 344.041 260.689 344.049C260.7 344.057 260.713 344.061 260.727 344.059C260.74 344.057 260.752 344.051 260.761 344.04C260.77 344.03 260.774 344.017 260.773 344.003V343.974L260.763 343.917C260.763 343.91 260.763 343.903 260.763 343.896C260.748 343.812 260.726 343.719 260.698 343.619C260.618 343.325 260.499 343.042 260.344 342.779C260.279 342.675 260.207 342.576 260.129 342.482Z" fill="#DD936F"/>
<path d="M260.312 341.895C260.307 341.89 260.301 341.886 260.295 341.884C260.288 341.881 260.281 341.88 260.274 341.88C260.267 341.88 260.261 341.881 260.254 341.884C260.248 341.886 260.242 341.89 260.237 341.895C260.232 341.9 260.228 341.906 260.225 341.912C260.222 341.919 260.221 341.926 260.221 341.933C260.221 341.94 260.222 341.946 260.225 341.953C260.228 341.959 260.232 341.965 260.237 341.97L260.25 341.985L260.263 342.001L260.27 342.011C260.306 342.055 260.339 342.101 260.37 342.148C260.489 342.338 260.59 342.539 260.67 342.748C260.727 342.893 260.781 343.048 260.829 343.219C260.835 343.23 260.844 343.239 260.855 343.244C260.867 343.249 260.879 343.249 260.891 343.246C260.903 343.242 260.913 343.235 260.92 343.225C260.927 343.215 260.93 343.202 260.929 343.19C260.883 343.027 260.828 342.867 260.766 342.709C260.684 342.494 260.58 342.287 260.456 342.093C260.419 342.036 260.383 341.987 260.356 341.948L260.339 341.927L260.312 341.895Z" fill="#DD936F"/>
<path fill-rule="evenodd" clip-rule="evenodd" d="M256.824 341.344L260.036 340.216L257.236 331.374C257.061 330.877 256.696 330.469 256.221 330.241C255.746 330.013 255.2 329.983 254.703 330.158C254.205 330.332 253.798 330.697 253.569 331.172C253.341 331.647 253.311 332.194 253.486 332.691L256.824 341.344Z" fill="#E4EBF7"/>
<path d="M260.119 340.239C260.113 340.223 260.102 340.209 260.087 340.201C260.071 340.192 260.054 340.189 260.037 340.193H260.028L256.816 341.321C256.798 341.326 256.782 341.338 256.773 341.355C256.764 341.371 256.761 341.39 256.766 341.409C256.771 341.427 256.783 341.442 256.8 341.451C256.816 341.461 256.836 341.463 256.854 341.458H256.864L260.074 340.33C260.083 340.327 260.091 340.322 260.098 340.316C260.105 340.31 260.111 340.302 260.116 340.294C260.12 340.286 260.122 340.276 260.123 340.267C260.123 340.257 260.122 340.248 260.119 340.239Z" fill="#A3B5D6"/>
<path d="M259.391 338.925C259.385 338.909 259.374 338.895 259.359 338.887C259.344 338.878 259.327 338.875 259.31 338.879H259.3L256.573 339.837C256.564 339.84 256.556 339.844 256.548 339.85C256.541 339.855 256.535 339.862 256.53 339.871C256.525 339.879 256.523 339.888 256.522 339.897C256.52 339.906 256.521 339.916 256.524 339.925C256.526 339.934 256.53 339.942 256.536 339.949C256.542 339.957 256.549 339.963 256.557 339.967C256.565 339.972 256.574 339.975 256.583 339.976C256.593 339.977 256.602 339.977 256.611 339.974H256.62L259.347 339.016C259.356 339.013 259.364 339.008 259.371 339.002C259.378 338.996 259.384 338.988 259.388 338.98C259.392 338.971 259.395 338.962 259.395 338.953C259.396 338.943 259.394 338.934 259.391 338.925Z" fill="#A3B5D6"/>
<path d="M174.614 343.778H136.193C135.641 343.778 135.193 344.226 135.193 344.778V347.148C135.193 347.7 135.641 348.148 136.193 348.148H174.614C175.166 348.148 175.614 347.7 175.614 347.148V344.778C175.614 344.226 175.166 343.778 174.614 343.778Z" fill="#FFCB47"/>
<path d="M270.751 343.778H232.33C231.778 343.778 231.33 344.226 231.33 344.778V347.148C231.33 347.7 231.778 348.148 232.33 348.148H270.751C271.303 348.148 271.751 347.7 271.751 347.148V344.778C271.751 344.226 271.303 343.778 270.751 343.778Z" fill="#FFCB47"/>
<path d="M183.119 227.429V228.901H171.734V212.801H182.774V214.273H173.436V220H181.762V221.449H173.436V227.429H183.119ZM178.933 208.638H181.118L177.392 211.49H175.782L178.933 208.638ZM191.609 229.016C190.413 229.016 189.34 228.755 188.389 228.234C187.454 227.713 186.718 226.984 186.181 226.049C185.644 225.098 185.376 224.033 185.376 222.852C185.376 221.671 185.644 220.613 186.181 219.678C186.718 218.743 187.454 218.014 188.389 217.493C189.34 216.972 190.413 216.711 191.609 216.711C192.652 216.711 193.579 216.918 194.392 217.332C195.22 217.731 195.872 218.321 196.347 219.103L195.128 219.931C194.729 219.333 194.223 218.888 193.61 218.597C192.997 218.29 192.33 218.137 191.609 218.137C190.735 218.137 189.945 218.336 189.24 218.735C188.55 219.118 188.006 219.67 187.607 220.391C187.224 221.112 187.032 221.932 187.032 222.852C187.032 223.787 187.224 224.615 187.607 225.336C188.006 226.041 188.55 226.593 189.24 226.992C189.945 227.375 190.735 227.567 191.609 227.567C192.33 227.567 192.997 227.421 193.61 227.13C194.223 226.839 194.729 226.394 195.128 225.796L196.347 226.624C195.872 227.406 195.22 228.004 194.392 228.418C193.564 228.817 192.636 229.016 191.609 229.016ZM204.298 229.016C203.133 229.016 202.082 228.755 201.147 228.234C200.212 227.697 199.476 226.961 198.939 226.026C198.402 225.091 198.134 224.033 198.134 222.852C198.134 221.671 198.402 220.613 198.939 219.678C199.476 218.743 200.212 218.014 201.147 217.493C202.082 216.972 203.133 216.711 204.298 216.711C205.463 216.711 206.514 216.972 207.449 217.493C208.384 218.014 209.113 218.743 209.634 219.678C210.171 220.613 210.439 221.671 210.439 222.852C210.439 224.033 210.171 225.091 209.634 226.026C209.113 226.961 208.384 227.697 207.449 228.234C206.514 228.755 205.463 229.016 204.298 229.016ZM204.298 227.567C205.157 227.567 205.923 227.375 206.598 226.992C207.288 226.593 207.825 226.034 208.208 225.313C208.591 224.592 208.783 223.772 208.783 222.852C208.783 221.932 208.591 221.112 208.208 220.391C207.825 219.67 207.288 219.118 206.598 218.735C205.923 218.336 205.157 218.137 204.298 218.137C203.439 218.137 202.665 218.336 201.975 218.735C201.3 219.118 200.764 219.67 200.365 220.391C199.982 221.112 199.79 221.932 199.79 222.852C199.79 223.772 199.982 224.592 200.365 225.313C200.764 226.034 201.3 226.593 201.975 226.992C202.665 227.375 203.439 227.567 204.298 227.567ZM213.773 211.835H215.406V228.901H213.773V211.835ZM230.484 223.358H220.364C220.456 224.615 220.939 225.635 221.813 226.417C222.687 227.184 223.791 227.567 225.125 227.567C225.876 227.567 226.566 227.437 227.195 227.176C227.823 226.9 228.368 226.501 228.828 225.98L229.748 227.038C229.211 227.682 228.536 228.173 227.724 228.51C226.926 228.847 226.045 229.016 225.079 229.016C223.837 229.016 222.733 228.755 221.767 228.234C220.816 227.697 220.072 226.961 219.536 226.026C218.999 225.091 218.731 224.033 218.731 222.852C218.731 221.671 218.984 220.613 219.49 219.678C220.011 218.743 220.716 218.014 221.606 217.493C222.51 216.972 223.522 216.711 224.642 216.711C225.761 216.711 226.765 216.972 227.655 217.493C228.544 218.014 229.242 218.743 229.748 219.678C230.254 220.598 230.507 221.656 230.507 222.852L230.484 223.358ZM224.642 218.114C223.476 218.114 222.495 218.49 221.698 219.241C220.916 219.977 220.471 220.943 220.364 222.139H228.943C228.835 220.943 228.383 219.977 227.586 219.241C226.804 218.49 225.822 218.114 224.642 218.114Z" fill="#DEA739"/>
<path d="M345.095 275.655H306.674C306.122 275.655 305.674 276.103 305.674 276.655V280.117C305.674 280.669 306.122 281.117 306.674 281.117H345.095C345.647 281.117 346.095 280.669 346.095 280.117V276.655C346.095 276.103 345.647 275.655 345.095 275.655Z" fill="#E9B739"/>
<path d="M405.961 275.655H367.54C366.988 275.655 366.54 276.103 366.54 276.655V280.117C366.54 280.669 366.988 281.117 367.54 281.117H405.961C406.513 281.117 406.961 280.669 406.961 280.117V276.655C406.961 276.103 406.513 275.655 405.961 275.655Z" fill="#E9B739"/>
<path d="M467.138 275.655H428.717C428.165 275.655 427.717 276.103 427.717 276.655V280.117C427.717 280.669 428.165 281.117 428.717 281.117H467.138C467.69 281.117 468.138 280.669 468.138 280.117V276.655C468.138 276.103 467.69 275.655 467.138 275.655Z" fill="#E9B739"/>
<path d="M391.085 297.412L432.135 262.601C432.314 262.411 432.53 262.26 432.77 262.157C433.01 262.054 433.268 262 433.529 262C433.79 262 434.048 262.054 434.288 262.157C434.528 262.26 434.744 262.411 434.923 262.601L475.98 297.952V384.052H391.211L391.085 297.412Z" fill="#FFCB47"/>
<path d="M340.876 297.951L391.21 295.185V384.049H340.876V297.951Z" fill="#FFE194"/>
<path d="M428.883 307.972H418.351C416.142 307.972 414.351 309.763 414.351 311.972V322.504C414.351 324.713 416.142 326.504 418.351 326.504H428.883C431.092 326.504 432.883 324.713 432.883 322.504V311.972C432.883 309.763 431.092 307.972 428.883 307.972Z" fill="white"/>
<path d="M449.594 307.972H437.972C435.763 307.972 433.972 309.763 433.972 311.972V322.504C433.972 324.713 435.763 326.504 437.972 326.504H449.594C451.803 326.504 453.594 324.713 453.594 322.504V311.972C453.594 309.763 451.803 307.972 449.594 307.972Z" fill="white"/>
<path d="M428.883 328.684H418.351C416.142 328.684 414.351 330.475 414.351 332.684V343.216C414.351 345.425 416.142 347.216 418.351 347.216H428.883C431.092 347.216 432.883 345.425 432.883 343.216V332.684C432.883 330.475 431.092 328.684 428.883 328.684Z" fill="white"/>
<path d="M449.594 328.684H437.972C435.763 328.684 433.972 330.475 433.972 332.684V343.216C433.972 345.425 435.763 347.216 437.972 347.216H449.594C451.803 347.216 453.594 345.425 453.594 343.216V332.684C453.594 330.475 451.803 328.684 449.594 328.684Z" fill="white"/>
<path d="M334.315 301.615L377.012 300.932L380.738 305.775L334.315 305.92V301.615Z" fill="#EE7852"/>
<path d="M436.963 262.415L380.676 305.799L376.924 300.941L433.202 256.744L436.963 262.415Z" fill="#E26A44"/>
<path d="M429.116 261.819L475.939 298.052L475.936 305.766L486.164 305.799L489.916 300.94L433.268 256.783L429.116 261.819Z" fill="#E26A44"/>
<path d="M385.79 256.732H433.232L377.518 301.492L334.253 301.641L385.79 256.732Z" fill="#FF9E7F"/>
<path d="M452.594 347.215H415.351C414.799 347.215 414.351 347.663 414.351 348.215V351.215C414.351 351.767 414.799 352.215 415.351 352.215H452.594C453.146 352.215 453.594 351.767 453.594 351.215V348.215C453.594 347.663 453.146 347.215 452.594 347.215Z" fill="#E9B739"/>
<path d="M308.796 12.6909C304.309 12.5306 299.833 13.2564 295.627 14.827C291.42 16.3976 287.564 18.7821 284.28 21.8442C280.995 24.9062 278.347 28.5857 276.486 32.6722C274.625 36.7587 273.587 41.172 273.433 45.6597C272.535 71.2871 299.987 109.957 299.987 109.957C299.987 109.957 340.867 73.6811 341.765 48.0547C341.925 43.5672 341.2 39.092 339.629 34.8851C338.058 30.6783 335.674 26.8223 332.612 23.5378C329.55 20.2534 325.87 17.6048 321.784 15.7435C317.697 13.8823 313.284 12.845 308.796 12.6909ZM307.172 59.0595C304.758 58.9752 302.424 58.177 300.464 56.7659C298.504 55.3548 297.006 53.3942 296.161 51.132C295.315 48.8698 295.159 46.4077 295.713 44.057C296.267 41.7063 297.505 39.5726 299.272 37.9257C301.038 36.2789 303.253 35.1928 305.637 34.8049C308.021 34.4171 310.466 34.7448 312.663 35.7466C314.861 36.7485 316.712 38.3794 317.982 40.4333C319.253 42.4872 319.886 44.8717 319.801 47.2852C319.686 50.5209 318.291 53.5786 315.923 55.7865C313.555 57.9943 310.407 59.1716 307.172 59.0595Z" fill="#3784FF"/>
<path d="M303.459 12.5031C298.972 12.3427 294.497 13.0685 290.29 14.6392C286.083 16.2097 282.228 18.5943 278.943 21.6563C275.659 24.7183 273.01 28.3978 271.149 32.4843C269.288 36.5708 268.251 40.9841 268.097 45.4719C267.199 71.0982 300.039 110.122 300.039 110.122C300.039 110.122 335.53 73.4922 336.428 47.8669C336.589 43.3793 335.863 38.9041 334.292 34.6973C332.722 30.4904 330.337 26.6345 327.275 23.35C324.213 20.0655 320.534 17.4169 316.447 15.5557C312.361 13.6944 307.947 12.6571 303.459 12.5031ZM301.835 58.8716C299.421 58.7873 297.087 57.9891 295.127 56.578C293.167 55.1669 291.67 53.2063 290.824 50.9441C289.978 48.6819 289.823 46.2198 290.376 43.8691C290.93 41.5184 292.169 39.3847 293.935 37.7378C295.702 36.091 297.917 35.0049 300.3 34.6171C302.684 34.2292 305.129 34.5569 307.327 35.5587C309.524 36.5606 311.375 38.1916 312.646 40.2454C313.916 42.2993 314.549 44.6838 314.464 47.0973C314.35 50.3334 312.956 53.3916 310.587 55.5999C308.219 57.8082 305.071 58.9857 301.835 58.8736L301.835 58.8716Z" fill="#0060F9"/>
<path d="M302.747 71.382C316.256 71.382 327.207 60.4309 327.207 46.922C327.207 33.4131 316.256 22.462 302.747 22.462C289.238 22.462 278.287 33.4131 278.287 46.922C278.287 60.4309 289.238 71.382 302.747 71.382Z" fill="#F3F7FF"/>
<path d="M300.437 43.988L307.41 39.01C307.881 38.67 308.447 38.4871 309.028 38.4871C309.608 38.4871 310.174 38.67 310.645 39.01L317.618 43.988C317.981 44.2457 318.276 44.5866 318.48 44.9821C318.684 45.3775 318.79 45.8161 318.789 46.261V57.376C318.788 57.7456 318.64 58.0996 318.379 58.361C318.118 58.6223 317.764 58.7697 317.394 58.771H311.817V50.403H306.239V58.77H300.661C300.292 58.7687 299.938 58.6214 299.676 58.3603C299.415 58.0992 299.268 57.7454 299.266 57.376V46.261C299.265 45.8161 299.371 45.3775 299.575 44.9821C299.779 44.5866 300.074 44.2457 300.437 43.988Z" fill="#0060F9"/>
<path d="M290.857 33.6689H303.491C303.852 33.6686 304.209 33.7393 304.543 33.8772C304.876 34.0152 305.179 34.2175 305.434 34.4726C305.689 34.7278 305.892 35.0308 306.03 35.3642C306.168 35.6977 306.238 36.0551 306.238 36.4159L306.11 36.5419C305.998 36.6119 305.887 36.6679 305.775 36.7419L298.81 41.7149C297.756 42.472 296.997 43.5711 296.662 44.8249H293.692V47.6139H296.481V50.4029H293.688V53.1919H296.477V58.7689H290.857C290.496 58.7693 290.139 58.6986 289.806 58.5607C289.472 58.4229 289.169 58.2207 288.914 57.9656C288.659 57.7105 288.457 57.4077 288.319 57.0743C288.181 56.741 288.11 56.3837 288.11 56.0229V36.4159C288.11 36.0551 288.18 35.6977 288.318 35.3642C288.456 35.0308 288.659 34.7278 288.914 34.4726C289.169 34.2175 289.472 34.0152 289.805 33.8772C290.139 33.7393 290.496 33.6686 290.857 33.6689ZM293.688 42.0359H296.477V39.2469H293.688V42.0359Z" fill="#0060F9"/>
<path d="M294.648 383.934C294.648 383.934 305.316 375.707 308.894 365.494C312.472 355.281 319.436 370.181 325.177 369.847C330.918 369.513 333.286 354.822 339.271 356.623C345.256 358.424 347.952 368.717 360.749 356.731C373.546 344.745 369.193 365.073 375.18 369.507C381.167 373.941 385.49 375.321 396.297 370.332C407.104 365.343 406.966 384.05 406.966 384.05L294.648 383.934Z" fill="#56C160"/>
</svg>
